<svg version="1.1" xmlns="http://www.w3.org/2000/svg" viewBox="0 0 281.6964639048601 152.71737905649042" width="281.6964639048601" height="152.71737905649042">
  <!-- svg-source:excalidraw -->
  
  <defs>
    <style class="style-fonts">
      @font-face {
        font-family: "Virgil";
        src: url("https://excalidraw.com/Virgil.woff2");
      }
      @font-face {
        font-family: "Cascadia";
        src: url("https://excalidraw.com/Cascadia.woff2");
      }
    </style>
  </defs>
  <rect x="0" y="0" width="281.6964639048601" height="152.71737905649042" fill="#ffffff"/><g transform="translate(64.77224496694726 83.73190072866589) rotate(0 45.29245229867789 21.768446702223542)" stroke="none"><path fill="#000000" d="M 0.58,-0.58 Q 0.58,-0.58 1.02,-0.20 1.47,0.16 1.94,1.05 2.40,1.95 2.75,3.16 3.10,4.37 3.24,5.75 3.38,7.12 3.63,8.87 3.87,10.62 3.97,12.00 4.07,13.38 4.11,15.39 4.15,17.40 4.36,19.43 4.58,21.46 4.67,23.56 4.76,25.67 4.79,27.78 4.83,29.89 4.84,31.79 4.86,33.69 4.66,35.16 4.46,36.62 4.37,38.20 4.29,39.78 4.26,41.26 4.22,42.75 4.21,44.18 4.19,45.62 4.19,46.64 4.20,47.65 4.20,48.69 4.20,49.72 4.20,50.77 4.19,51.82 4.23,52.66 4.27,53.51 4.77,53.91 5.28,54.31 6.10,54.27 6.93,54.24 7.76,54.26 8.59,54.28 9.95,54.35 11.32,54.42 12.71,54.48 14.09,54.53 15.90,54.57 17.70,54.60 19.67,54.63 21.65,54.66 23.70,54.68 25.75,54.70 28.27,54.92 30.79,55.14 33.04,55.23 35.29,55.33 38.26,55.37 41.24,55.42 44.12,55.44 47.00,55.46 49.66,55.68 52.32,55.89 55.25,55.98 58.17,56.07 61.03,56.11 63.88,56.15 66.51,56.17 69.14,56.19 71.27,56.19 73.39,56.20 75.51,56.20 77.62,56.21 79.33,56.21 81.04,56.21 82.57,56.21 84.10,56.21 85.56,56.21 87.02,56.22 88.04,56.21 89.07,56.20 89.91,56.16 90.74,56.12 91.50,56.07 92.26,56.03 92.87,56.01 93.48,55.99 93.62,56.13 93.76,56.26 93.88,56.27 94.01,56.29 94.12,56.33 94.24,56.37 94.34,56.44 94.44,56.51 94.52,56.61 94.60,56.70 94.66,56.81 94.72,56.92 94.74,57.04 94.77,57.15 94.77,57.28 94.77,57.40 94.74,57.52 94.72,57.64 94.66,57.75 94.60,57.86 94.52,57.95 94.44,58.04 94.34,58.11 94.24,58.18 94.12,58.22 94.01,58.27 93.88,58.28 93.76,58.30 93.36,57.32 92.97,56.35 92.96,55.40 92.95,54.44 92.98,53.53 93.02,52.61 93.06,51.62 93.10,50.62 93.13,49.59 93.17,48.56 93.21,47.32 93.24,46.07 93.27,44.74 93.29,43.40 93.31,42.03 93.33,40.65 93.15,39.10 92.96,37.55 92.88,36.04 92.81,34.53 92.78,33.08 92.75,31.63 92.54,30.26 92.33,28.88 92.24,27.44 92.15,26.00 92.11,24.78 92.07,23.57 92.06,22.04 92.04,20.51 92.04,19.25 92.03,18.00 92.03,16.66 92.03,15.32 92.03,14.14 92.03,12.97 92.03,11.86 92.03,10.76 92.03,9.68 92.03,8.61 92.03,7.54 92.03,6.48 91.99,5.63 91.95,4.77 91.89,4.21 91.83,3.64 91.81,2.79 91.79,1.95 91.75,1.39 91.70,0.82 91.67,0.18 91.64,-0.45 91.57,-1.33 91.50,-2.21 91.45,-2.94 91.40,-3.68 91.07,-4.83 90.74,-5.99 90.35,-6.49 89.97,-6.99 89.67,-7.54 89.38,-8.09 88.94,-8.55 88.50,-9.00 88.01,-9.37 87.51,-9.73 86.78,-10.02 86.06,-10.30 85.31,-10.58 84.56,-10.86 83.26,-11.23 81.96,-11.60 81.10,-11.97 80.24,-12.33 79.39,-12.49 78.54,-12.66 77.76,-12.73 76.97,-12.79 75.84,-12.88 74.71,-12.97 73.62,-13.03 72.53,-13.09 71.26,-13.13 69.99,-13.17 68.64,-13.20 67.29,-13.23 65.91,-13.25 64.53,-13.27 63.14,-13.29 61.74,-13.30 60.14,-13.31 58.54,-13.33 57.25,-13.33 55.97,-13.34 54.41,-13.35 52.85,-13.35 51.39,-13.36 49.92,-13.36 48.28,-13.36 46.65,-13.37 45.15,-13.37 43.65,-13.37 42.00,-13.37 40.35,-13.37 38.44,-13.38 36.53,-13.38 34.95,-13.18 33.37,-12.98 31.48,-12.69 29.59,-12.41 28.15,-12.28 26.72,-12.16 24.92,-11.91 23.13,-11.66 21.73,-11.55 20.34,-11.44 18.77,-11.19 17.20,-10.95 15.69,-10.84 14.17,-10.73 12.98,-10.49 11.78,-10.25 10.46,-9.94 9.13,-9.64 8.14,-9.48 7.14,-9.33 6.09,-9.27 5.05,-9.20 4.00,-9.18 2.95,-9.16 2.31,-9.09 1.67,-9.02 1.11,-8.79 0.56,-8.57 0.02,-8.42 -0.50,-8.27 -1.15,-8.20 -1.81,-8.13 -1.71,-7.35 -1.61,-6.57 -1.19,-6.09 -0.77,-5.60 -0.16,-4.43 0.43,-3.27 0.65,-2.71 0.88,-2.16 1.16,-1.51 1.44,-0.86 1.95,0.31 2.45,1.49 2.99,2.11 3.53,2.72 3.87,3.14 4.21,3.56 4.28,3.71 4.35,3.87 4.38,4.03 4.41,4.20 4.40,4.37 4.39,4.54 4.34,4.70 4.29,4.86 4.21,5.01 4.12,5.15 4.00,5.27 3.88,5.39 3.74,5.48 3.59,5.57 3.43,5.62 3.27,5.67 3.10,5.68 2.93,5.69 2.76,5.66 2.60,5.63 2.44,5.56 2.29,5.49 2.15,5.39 2.02,5.29 1.92,5.15 1.81,5.02 1.05,3.77 0.29,2.51 0.20,2.34 0.12,2.16 0.10,1.97 0.07,1.77 0.11,1.58 0.15,1.39 0.25,1.22 0.34,1.05 0.49,0.93 0.64,0.80 0.82,0.72 1.00,0.65 1.19,0.63 1.39,0.62 1.58,0.67 1.77,0.72 1.93,0.82 2.09,0.93 2.21,1.08 2.33,1.24 2.40,1.42 2.46,1.61 2.47,1.80 2.47,2.00 2.41,2.18 2.35,2.37 2.24,2.52 2.12,2.68 1.96,2.79 1.80,2.91 1.61,2.96 1.43,3.02 1.23,3.01 1.04,3.00 0.85,2.93 0.67,2.86 0.52,2.74 0.37,2.62 0.27,2.45 0.16,2.28 0.12,2.09 0.07,1.90 0.09,1.71 0.11,1.52 0.19,1.34 0.27,1.16 0.40,1.02 0.53,0.87 0.70,0.78 0.87,0.68 1.07,0.65 1.26,0.61 1.45,0.64 1.64,0.67 1.82,0.76 1.99,0.85 2.13,0.99 2.26,1.13 2.26,1.13 2.26,1.13 3.24,2.34 4.21,3.56 4.28,3.71 4.35,3.87 4.38,4.03 4.41,4.20 4.40,4.37 4.39,4.54 4.34,4.70 4.29,4.86 4.21,5.01 4.12,5.15 4.00,5.27 3.88,5.39 3.74,5.48 3.59,5.57 3.43,5.62 3.27,5.67 3.10,5.68 2.93,5.69 2.76,5.66 2.60,5.63 2.44,5.56 2.29,5.49 2.15,5.39 2.02,5.29 1.92,5.15 1.81,5.02 1.27,4.21 0.73,3.40 0.25,2.40 -0.21,1.41 -0.59,0.83 -0.97,0.26 -1.31,-0.43 -1.65,-1.13 -1.95,-1.86 -2.25,-2.59 -2.58,-3.27 -2.91,-3.95 -3.26,-4.45 -3.60,-4.94 -3.88,-6.01 -4.15,-7.09 -4.21,-7.73 -4.26,-8.38 -3.81,-9.04 -3.37,-9.71 -2.68,-9.97 -1.99,-10.23 -0.97,-10.26 0.03,-10.29 0.83,-10.47 1.63,-10.66 2.27,-10.61 2.92,-10.56 3.95,-10.59 4.97,-10.61 5.96,-10.66 6.95,-10.71 7.90,-10.81 8.84,-10.92 10.18,-11.23 11.53,-11.54 12.80,-11.79 14.08,-12.04 15.54,-12.14 17.00,-12.25 18.62,-12.50 20.23,-12.75 21.59,-12.85 22.95,-12.96 24.78,-13.22 26.60,-13.47 28.00,-13.59 29.39,-13.71 31.30,-14.00 33.21,-14.29 34.87,-14.50 36.53,-14.70 38.44,-14.70 40.35,-14.70 42.00,-14.71 43.65,-14.71 45.15,-14.71 46.65,-14.71 48.28,-14.71 49.92,-14.72 51.39,-14.72 52.85,-14.73 54.41,-14.73 55.97,-14.74 57.25,-14.74 58.54,-14.75 60.14,-14.76 61.74,-14.77 63.14,-14.79 64.53,-14.80 65.91,-14.82 67.30,-14.84 68.65,-14.87 70.00,-14.89 71.27,-14.93 72.55,-14.96 73.65,-15.00 74.76,-15.04 75.94,-15.08 77.13,-15.12 77.99,-15.08 78.85,-15.03 79.97,-14.94 81.09,-14.85 82.02,-14.60 82.95,-14.36 83.49,-14.17 84.04,-13.99 84.85,-13.87 85.66,-13.75 86.54,-13.52 87.42,-13.29 88.23,-12.79 89.05,-12.29 89.54,-12.04 90.03,-11.80 90.75,-11.02 91.46,-10.24 92.00,-9.39 92.54,-8.54 92.92,-8.01 93.31,-7.47 93.39,-6.60 93.48,-5.74 93.73,-4.71 93.98,-3.68 93.92,-2.94 93.87,-2.21 93.80,-1.33 93.73,-0.45 93.70,0.18 93.67,0.82 93.63,1.39 93.58,1.95 93.56,2.79 93.54,3.64 93.48,4.21 93.43,4.77 93.39,5.63 93.34,6.48 93.35,7.54 93.35,8.61 93.35,9.68 93.35,10.76 93.35,11.86 93.35,12.97 93.35,14.14 93.35,15.32 93.36,16.65 93.36,17.99 93.37,19.24 93.38,20.49 93.40,22.01 93.42,23.52 93.46,24.72 93.50,25.91 93.59,27.29 93.68,28.67 93.91,30.13 94.14,31.60 94.18,33.02 94.22,34.45 94.32,35.91 94.41,37.37 94.63,39.01 94.85,40.65 94.87,42.03 94.89,43.40 94.91,44.74 94.94,46.08 94.97,47.32 95.01,48.57 95.04,49.60 95.08,50.63 95.11,51.63 95.14,52.63 95.16,53.56 95.18,54.50 95.06,55.71 94.93,56.93 94.35,56.59 93.76,56.26 93.88,56.27 94.01,56.29 94.12,56.33 94.24,56.37 94.34,56.44 94.44,56.51 94.52,56.61 94.60,56.70 94.66,56.81 94.72,56.92 94.74,57.04 94.77,57.15 94.77,57.28 94.77,57.40 94.74,57.52 94.72,57.64 94.66,57.75 94.60,57.86 94.52,57.95 94.44,58.04 94.34,58.11 94.24,58.18 94.12,58.22 94.01,58.27 93.88,58.28 93.76,58.30 93.01,58.01 92.26,57.72 91.50,57.67 90.74,57.63 89.91,57.59 89.07,57.55 88.04,57.54 87.02,57.53 85.56,57.53 84.10,57.53 82.57,57.53 81.03,57.53 79.33,57.53 77.62,57.53 75.50,57.53 73.39,57.53 71.26,57.52 69.13,57.52 66.50,57.50 63.87,57.49 61.00,57.45 58.13,57.42 55.17,57.33 52.22,57.24 49.60,57.04 46.99,56.84 44.11,56.83 41.22,56.82 38.23,56.79 35.24,56.76 32.95,56.68 30.67,56.61 28.21,56.42 25.75,56.24 23.70,56.26 21.65,56.28 19.67,56.31 17.70,56.33 15.89,56.37 14.09,56.41 12.71,56.46 11.32,56.51 9.95,56.58 8.58,56.65 7.74,56.66 6.89,56.68 5.94,56.59 4.99,56.50 4.11,56.14 3.23,55.77 2.96,55.27 2.68,54.77 2.71,54.14 2.74,53.51 2.78,52.66 2.82,51.81 2.82,50.77 2.82,49.72 2.83,48.68 2.83,47.64 2.85,46.63 2.87,45.61 2.88,44.16 2.90,42.72 2.93,41.21 2.96,39.71 3.05,38.07 3.13,36.44 3.32,35.07 3.51,33.70 3.49,31.81 3.47,29.91 3.43,27.82 3.38,25.73 3.28,23.67 3.18,21.61 2.95,19.52 2.72,17.44 2.66,15.47 2.60,13.50 2.48,12.18 2.35,10.85 2.06,9.08 1.77,7.31 1.61,6.10 1.44,4.89 1.07,3.83 0.70,2.77 0.42,2.10 0.14,1.44 -0.22,1.01 -0.58,0.58 -0.64,0.50 -0.70,0.42 -0.74,0.33 -0.79,0.24 -0.80,0.14 -0.82,0.04 -0.82,-0.04 -0.81,-0.14 -0.78,-0.24 -0.75,-0.33 -0.70,-0.42 -0.65,-0.51 -0.58,-0.58 -0.51,-0.65 -0.42,-0.70 -0.33,-0.75 -0.24,-0.78 -0.14,-0.81 -0.04,-0.82 0.05,-0.82 0.14,-0.80 0.24,-0.79 0.33,-0.74 0.42,-0.70 0.50,-0.64 0.58,-0.58 0.58,-0.58 L 0.58,-0.58 Z"/></g><g transform="translate(66.17666391225976 137.0997502253606) rotate(0 53.01673302283652 -35.81263615534857)" stroke="none"><path fill="#000000" d="M 0,-0.81 Q 0,-0.81 0.58,-0.86 1.17,-0.90 1.86,-1.26 2.55,-1.62 3.73,-2.16 4.91,-2.70 6.45,-3.34 7.99,-3.97 9.40,-4.81 10.81,-5.65 12.44,-6.62 14.07,-7.59 15.78,-8.61 17.48,-9.62 19.19,-10.84 20.91,-12.06 22.65,-13.39 24.39,-14.71 26.35,-16.09 28.32,-17.47 30.15,-18.86 31.98,-20.24 33.75,-21.82 35.53,-23.41 37.54,-24.72 39.55,-26.04 41.37,-27.57 43.18,-29.10 45.00,-30.38 46.82,-31.67 48.36,-32.99 49.91,-34.32 51.81,-35.71 53.71,-37.11 55.12,-38.10 56.53,-39.10 58.12,-40.32 59.72,-41.54 61.19,-42.85 62.66,-44.16 63.89,-45.33 65.12,-46.49 66.28,-47.41 67.43,-48.33 68.53,-49.13 69.63,-49.92 70.67,-50.84 71.71,-51.76 72.99,-52.78 74.26,-53.79 75.16,-54.79 76.07,-55.79 76.68,-56.32 77.30,-56.84 77.92,-57.43 78.53,-58.01 79.25,-58.52 79.96,-59.04 80.50,-59.30 81.03,-59.56 81.75,-60.31 82.48,-61.06 83.30,-61.59 84.11,-62.13 84.81,-62.73 85.51,-63.33 86.33,-63.72 87.15,-64.11 87.94,-64.50 88.72,-64.90 89.78,-65.28 90.84,-65.66 91.90,-66.00 92.96,-66.34 96.60,-68.06 100.23,-69.78 101.80,-70.51 103.37,-71.24 103.50,-71.27 103.62,-71.31 103.76,-71.31 103.89,-71.30 104.01,-71.26 104.13,-71.21 104.24,-71.13 104.34,-71.04 104.41,-70.93 104.48,-70.82 104.51,-70.69 104.54,-70.56 104.53,-70.43 104.52,-70.30 104.46,-70.18 104.41,-70.06 104.32,-69.96 104.23,-69.87 104.12,-69.80 104.00,-69.74 103.87,-69.71 103.74,-69.69 103.61,-69.71 103.48,-69.73 103.36,-69.79 103.25,-69.85 103.15,-69.94 103.06,-70.04 103.00,-70.15 102.95,-70.27 102.93,-70.40 102.91,-70.53 102.94,-70.66 102.97,-70.79 103.03,-70.91 103.10,-71.02 103.20,-71.11 103.30,-71.19 103.42,-71.25 103.54,-71.30 103.67,-71.31 103.80,-71.32 103.93,-71.28 104.06,-71.25 104.17,-71.18 104.28,-71.11 104.36,-71.00 104.44,-70.90 104.48,-70.77 104.53,-70.65 104.53,-70.52 104.53,-70.39 104.49,-70.26 104.45,-70.14 104.38,-70.03 104.30,-69.92 104.19,-69.85 104.08,-69.77 104.08,-69.77 104.08,-69.77 102.54,-68.99 100.99,-68.21 97.31,-66.38 93.62,-64.55 92.65,-64.14 91.67,-63.72 90.79,-63.28 89.92,-62.83 88.65,-62.20 87.38,-61.56 86.79,-60.92 86.20,-60.28 85.20,-59.77 84.20,-59.25 83.61,-59.12 83.02,-58.98 81.97,-58.28 80.92,-57.58 80.26,-57.19 79.61,-56.80 78.91,-56.20 78.21,-55.61 77.62,-55.26 77.03,-54.90 76.06,-53.84 75.08,-52.77 73.83,-51.77 72.58,-50.78 71.49,-49.82 70.40,-48.86 69.32,-48.08 68.25,-47.30 67.14,-46.42 66.03,-45.54 64.78,-44.36 63.54,-43.18 62.03,-41.84 60.52,-40.49 58.90,-39.26 57.28,-38.02 55.89,-37.03 54.49,-36.05 52.63,-34.68 50.77,-33.32 49.17,-31.95 47.58,-30.59 45.81,-29.34 44.04,-28.09 42.16,-26.50 40.28,-24.92 38.34,-23.67 36.41,-22.41 34.60,-20.79 32.79,-19.17 30.94,-17.77 29.10,-16.37 27.16,-15.00 25.22,-13.63 23.46,-12.28 21.71,-10.94 19.96,-9.67 18.21,-8.41 16.52,-7.38 14.82,-6.35 13.20,-5.36 11.59,-4.37 10.10,-3.45 8.61,-2.53 7.13,-1.87 5.65,-1.20 4.48,-0.59 3.31,0.00 2.28,0.45 1.24,0.90 0.62,0.86 0,0.81 -0.09,0.80 -0.19,0.79 -0.28,0.76 -0.38,0.72 -0.46,0.66 -0.54,0.61 -0.60,0.53 -0.67,0.46 -0.72,0.37 -0.76,0.29 -0.78,0.19 -0.81,0.09 -0.81,-0.00 -0.81,-0.09 -0.78,-0.19 -0.76,-0.29 -0.72,-0.37 -0.67,-0.46 -0.60,-0.53 -0.54,-0.61 -0.46,-0.66 -0.38,-0.72 -0.28,-0.76 -0.19,-0.79 -0.09,-0.80 0.00,-0.81 0.00,-0.81 L 0,-0.81 Z"/></g><g transform="translate(62.66564002403862 71.79433969350964) rotate(0 50.20789513221152 -24.226179856520446)" stroke="none"><path fill="#000000" d="M -0.48,-0.60 Q -0.48,-0.60 0.53,-1.40 1.55,-2.19 2.55,-3.29 3.55,-4.40 5.25,-5.73 6.95,-7.06 8.47,-8.21 9.98,-9.37 11.65,-10.47 13.33,-11.58 14.79,-13.01 16.25,-14.45 18.14,-15.91 20.02,-17.36 22.01,-18.98 24.01,-20.59 25.87,-22.08 27.73,-23.58 29.30,-25.20 30.86,-26.81 32.57,-28.34 34.28,-29.86 35.59,-31.10 36.91,-32.34 38.26,-33.86 39.61,-35.38 40.83,-36.46 42.04,-37.54 42.92,-38.57 43.80,-39.59 44.57,-40.63 45.35,-41.67 46.08,-42.71 46.82,-43.76 47.53,-44.81 48.25,-45.85 48.73,-46.87 49.21,-47.88 49.62,-48.91 50.03,-49.94 50.39,-50.82 50.75,-51.69 51.34,-52.69 51.93,-53.69 52.34,-54.50 52.76,-55.32 53.12,-56.52 53.49,-57.71 53.97,-58.64 54.45,-59.56 55.03,-59.75 55.62,-59.95 56.69,-59.52 57.75,-59.09 58.44,-58.15 59.12,-57.20 59.70,-56.24 60.27,-55.28 61.07,-54.30 61.88,-53.31 62.47,-52.19 63.07,-51.07 63.70,-49.81 64.33,-48.54 65.16,-47.46 65.99,-46.37 66.79,-45.04 67.58,-43.70 68.13,-42.29 68.68,-40.88 69.48,-39.54 70.28,-38.21 70.86,-36.76 71.43,-35.31 72.07,-33.71 72.71,-32.11 73.57,-30.45 74.43,-28.78 75.20,-27.25 75.98,-25.73 76.73,-23.84 77.47,-21.95 78.36,-20.61 79.24,-19.27 80.06,-17.64 80.87,-16.00 81.80,-14.54 82.72,-13.08 83.52,-11.85 84.33,-10.61 85.07,-9.48 85.81,-8.35 86.53,-7.26 87.25,-6.18 87.96,-5.11 88.67,-4.04 89.38,-2.98 90.08,-1.93 90.77,-1.10 91.45,-0.27 92.13,0.21 92.81,0.70 93.55,1.61 94.30,2.51 94.84,3.29 95.39,4.07 95.82,4.54 96.26,5.01 96.66,5.38 97.05,5.75 97.82,6.44 98.59,7.13 98.96,7.54 99.33,7.95 99.22,8.69 99.12,9.43 99.24,9.52 99.36,9.61 99.46,9.73 99.55,9.84 99.62,9.98 99.68,10.12 99.72,10.26 99.75,10.41 99.74,10.56 99.74,10.72 99.70,10.86 99.65,11.01 99.58,11.14 99.50,11.27 99.40,11.38 99.29,11.49 99.17,11.57 99.04,11.66 98.90,11.70 98.75,11.75 98.60,11.77 98.45,11.78 98.30,11.76 98.15,11.73 98.01,11.67 97.87,11.62 98.00,11.67 98.13,11.73 97.95,11.64 97.77,11.55 97.62,11.41 97.48,11.26 97.38,11.08 97.29,10.90 97.26,10.70 97.23,10.50 97.27,10.30 97.31,10.10 97.41,9.92 97.51,9.74 97.66,9.60 97.81,9.47 97.99,9.38 98.18,9.30 98.38,9.28 98.59,9.27 98.78,9.31 98.98,9.36 99.15,9.47 99.33,9.58 99.46,9.74 99.58,9.89 99.66,10.09 99.73,10.28 99.73,10.48 99.74,10.68 99.68,10.88 99.62,11.07 99.51,11.24 99.39,11.41 99.22,11.53 99.06,11.65 98.87,11.71 98.67,11.77 98.47,11.76 98.26,11.76 98.07,11.69 97.88,11.62 97.72,11.50 97.56,11.37 97.45,11.20 97.34,11.03 97.29,10.83 97.24,10.63 97.25,10.43 97.27,10.23 97.35,10.04 97.43,9.85 97.56,9.70 97.70,9.55 97.87,9.44 98.05,9.34 98.25,9.30 98.45,9.26 98.78,9.35 99.12,9.43 99.24,9.52 99.36,9.61 99.46,9.73 99.55,9.84 99.62,9.98 99.68,10.12 99.72,10.26 99.75,10.41 99.74,10.56 99.74,10.72 99.70,10.86 99.65,11.01 99.58,11.14 99.50,11.27 99.40,11.38 99.29,11.49 99.17,11.57 99.04,11.66 98.90,11.70 98.75,11.75 98.60,11.77 98.45,11.78 98.30,11.76 98.15,11.73 98.01,11.67 97.87,11.62 97.49,10.39 97.10,9.17 96.71,8.52 96.31,7.87 95.97,7.44 95.63,7.02 95.27,6.54 94.91,6.07 94.52,5.48 94.12,4.90 93.67,4.15 93.21,3.41 92.55,2.62 91.89,1.83 91.17,1.19 90.44,0.56 89.71,-0.31 88.99,-1.20 88.28,-2.26 87.58,-3.32 86.87,-4.38 86.16,-5.45 85.44,-6.54 84.71,-7.63 83.97,-8.76 83.22,-9.89 82.41,-11.13 81.61,-12.38 80.65,-13.89 79.69,-15.41 78.91,-16.98 78.14,-18.55 77.19,-20.00 76.24,-21.46 75.52,-23.29 74.79,-25.12 74.02,-26.64 73.24,-28.17 72.35,-29.89 71.45,-31.61 70.81,-33.21 70.17,-34.81 69.63,-36.15 69.10,-37.50 68.23,-38.93 67.37,-40.36 66.86,-41.66 66.34,-42.96 65.58,-44.21 64.81,-45.46 63.88,-46.64 62.95,-47.82 62.29,-49.05 61.63,-50.27 61.08,-51.21 60.53,-52.16 59.59,-53.18 58.66,-54.19 57.99,-55.09 57.32,-55.99 56.97,-56.57 56.62,-57.15 55.92,-57.05 55.21,-56.96 54.90,-56.37 54.60,-55.78 54.33,-55.20 54.07,-54.61 53.60,-53.80 53.13,-52.99 52.59,-52.05 52.05,-51.11 51.65,-50.28 51.25,-49.46 50.82,-48.38 50.40,-47.31 49.87,-46.21 49.33,-45.12 48.61,-44.06 47.89,-43.00 47.15,-41.94 46.40,-40.88 45.60,-39.81 44.79,-38.73 43.86,-37.65 42.92,-36.56 41.76,-35.53 40.59,-34.50 39.20,-32.94 37.81,-31.38 36.49,-30.13 35.16,-28.87 33.48,-27.38 31.81,-25.89 30.19,-24.22 28.56,-22.55 26.70,-21.05 24.85,-19.55 22.84,-17.93 20.84,-16.30 19.02,-14.89 17.20,-13.48 15.64,-11.96 14.08,-10.45 12.45,-9.36 10.82,-8.27 9.32,-7.11 7.82,-5.95 6.22,-4.69 4.62,-3.43 3.55,-2.23 2.48,-1.03 1.48,-0.21 0.48,0.60 0.40,0.65 0.32,0.70 0.23,0.73 0.14,0.76 0.05,0.77 -0.03,0.78 -0.13,0.76 -0.22,0.74 -0.31,0.71 -0.39,0.67 -0.47,0.61 -0.54,0.55 -0.60,0.48 -0.66,0.41 -0.70,0.32 -0.74,0.23 -0.76,0.14 -0.77,0.05 -0.77,-0.03 -0.76,-0.13 -0.74,-0.22 -0.71,-0.31 -0.66,-0.39 -0.61,-0.47 -0.55,-0.54 -0.48,-0.60 -0.48,-0.60 L -0.48,-0.60 Z"/></g><g transform="translate(59.85680213341362 76.00759652944714) rotate(0 -17.906306340144255 28.439448429987976)" stroke="none"><path fill="#000000" d="M 0.15,0.77 Q 0.15,0.77 -0.84,0.96 -1.85,1.15 -2.57,1.60 -3.28,2.06 -4.52,2.48 -5.75,2.91 -7.03,3.46 -8.31,4.02 -9.44,4.64 -10.58,5.27 -12.15,5.77 -13.71,6.27 -15.10,7.05 -16.49,7.82 -18.17,8.39 -19.85,8.96 -21.32,9.58 -22.80,10.21 -24.45,10.88 -26.10,11.55 -27.63,12.05 -29.16,12.54 -30.41,12.95 -31.65,13.36 -32.74,13.92 -33.83,14.48 -35.00,14.75 -36.16,15.02 -37.21,15.32 -38.26,15.62 -38.83,15.98 -39.41,16.34 -39.93,16.56 -40.46,16.78 -41.22,17.24 -41.98,17.70 -42.81,17.85 -43.64,18.01 -44.20,18.03 -44.75,18.06 -44.20,18.64 -43.64,19.23 -42.80,20.16 -41.96,21.09 -40.85,22.08 -39.74,23.07 -38.51,23.89 -37.27,24.71 -35.87,25.93 -34.48,27.15 -32.94,28.24 -31.39,29.33 -29.91,30.42 -28.43,31.51 -27.00,32.58 -25.57,33.66 -24.33,34.74 -23.10,35.82 -21.79,36.87 -20.48,37.92 -19.30,38.99 -18.12,40.06 -17.04,40.90 -15.96,41.74 -15.07,42.52 -14.18,43.30 -13.40,44.04 -12.62,44.78 -11.86,45.73 -11.09,46.68 -10.22,47.43 -9.34,48.18 -8.57,48.68 -7.79,49.17 -7.01,49.82 -6.23,50.46 -5.53,50.88 -4.83,51.30 -4.08,51.92 -3.32,52.55 -2.78,52.98 -2.24,53.41 -1.53,53.74 -0.81,54.06 -0.18,54.44 0.43,54.81 0.92,55.16 1.41,55.52 2.43,55.56 3.44,55.60 4.46,55.68 5.48,55.76 7.55,55.15 9.62,54.55 9.81,54.52 10.00,54.49 10.18,54.52 10.37,54.55 10.53,54.64 10.70,54.72 10.83,54.86 10.96,55.00 11.04,55.17 11.11,55.34 11.13,55.53 11.15,55.71 11.11,55.90 11.07,56.08 10.98,56.24 10.88,56.40 10.74,56.52 10.59,56.64 10.42,56.71 10.24,56.78 10.06,56.79 9.87,56.80 9.69,56.75 9.51,56.70 9.35,56.60 9.19,56.49 9.08,56.34 8.97,56.19 8.91,56.01 8.85,55.84 8.85,55.65 8.85,55.46 8.91,55.28 8.97,55.10 9.08,54.95 9.20,54.80 9.35,54.70 9.51,54.59 9.69,54.54 9.87,54.49 10.06,54.50 10.25,54.51 10.42,54.58 10.59,54.65 10.74,54.78 10.88,54.90 10.98,55.06 11.07,55.22 11.11,55.40 11.15,55.59 11.13,55.77 11.11,55.96 11.03,56.13 10.95,56.30 10.83,56.44 10.70,56.57 10.53,56.66 10.36,56.75 10.36,56.75 10.36,56.75 7.91,57.35 5.46,57.95 4.39,58.01 3.32,58.07 2.22,57.88 1.12,57.70 0.23,57.07 -0.66,56.44 -1.13,56.07 -1.60,55.70 -2.53,55.23 -3.45,54.77 -3.91,54.28 -4.38,53.80 -5.05,53.21 -5.71,52.63 -6.45,52.11 -7.18,51.58 -7.89,50.96 -8.59,50.34 -9.40,49.76 -10.21,49.18 -11.17,48.35 -12.13,47.51 -12.83,46.63 -13.53,45.75 -14.30,45.03 -15.07,44.31 -15.93,43.56 -16.78,42.81 -17.91,41.94 -19.03,41.08 -20.19,40.04 -21.34,39.00 -22.68,37.94 -24.02,36.88 -25.23,35.85 -26.43,34.82 -27.87,33.77 -29.31,32.72 -30.80,31.67 -32.28,30.62 -33.92,29.52 -35.55,28.41 -36.89,27.32 -38.22,26.23 -39.61,25.41 -40.99,24.59 -42.25,23.63 -43.51,22.66 -44.44,21.85 -45.37,21.04 -46.22,20.17 -47.07,19.29 -47.15,18.36 -47.23,17.42 -46.78,16.79 -46.32,16.16 -45.60,15.89 -44.88,15.61 -44.01,15.64 -43.14,15.66 -42.60,15.65 -42.05,15.64 -41.07,15.30 -40.10,14.97 -39.36,14.66 -38.63,14.36 -37.54,14.05 -36.45,13.74 -35.44,13.52 -34.42,13.30 -33.25,12.70 -32.07,12.10 -30.82,11.69 -29.57,11.28 -28.09,10.80 -26.60,10.32 -24.96,9.65 -23.32,8.97 -21.80,8.32 -20.28,7.68 -18.71,7.15 -17.15,6.63 -15.64,5.79 -14.14,4.95 -12.70,4.49 -11.26,4.04 -10.08,3.36 -8.90,2.69 -7.58,2.09 -6.25,1.49 -5.16,1.09 -4.08,0.70 -3.13,0.17 -2.18,-0.34 -1.16,-0.56 -0.15,-0.77 -0.06,-0.78 0.03,-0.79 0.12,-0.77 0.22,-0.76 0.31,-0.72 0.39,-0.68 0.47,-0.62 0.55,-0.56 0.61,-0.49 0.67,-0.42 0.71,-0.33 0.75,-0.24 0.77,-0.15 0.79,-0.06 0.78,0.03 0.78,0.13 0.75,0.22 0.72,0.31 0.68,0.39 0.63,0.47 0.56,0.54 0.49,0.61 0.41,0.66 0.33,0.71 0.24,0.74 0.15,0.77 0.15,0.77 L 0.15,0.77 Z"/></g><g transform="translate(156.76156850961553 70.3899442232572) rotate(0 31.950472318209137 33.354903001051696)" stroke="none"><path fill="#000000" d="M 0.18,-0.92 Q 0.18,-0.92 1.19,-0.69 2.19,-0.46 2.95,-0.16 3.70,0.12 4.34,0.74 4.97,1.35 5.56,1.97 6.15,2.58 6.79,3.26 7.44,3.94 8.06,4.36 8.69,4.79 9.41,5.44 10.14,6.09 10.98,6.76 11.83,7.43 12.79,8.13 13.75,8.84 14.76,9.55 15.77,10.26 17.01,11.18 18.25,12.10 19.52,12.66 20.78,13.22 22.16,13.88 23.54,14.55 25.15,15.44 26.76,16.34 28.20,16.90 29.65,17.47 30.92,18.13 32.19,18.80 33.89,19.47 35.59,20.14 36.96,20.84 38.34,21.55 40.09,22.24 41.84,22.92 43.23,23.64 44.63,24.35 45.79,24.84 46.95,25.33 48.49,26.16 50.03,27.00 51.03,27.32 52.03,27.65 52.96,28.23 53.88,28.80 54.80,29.22 55.72,29.63 56.72,30.01 57.72,30.40 58.58,30.74 59.44,31.09 60.07,31.42 60.70,31.76 61.23,31.82 61.77,31.88 62.40,32.17 63.03,32.46 63.39,32.88 63.74,33.29 64.28,33.75 64.81,34.22 64.98,35.13 65.14,36.05 64.89,36.72 64.63,37.39 63.76,38.10 62.89,38.80 61.85,39.25 60.81,39.70 59.89,40.38 58.96,41.06 57.38,41.63 55.80,42.20 54.18,42.79 52.55,43.39 50.88,44.22 49.21,45.06 47.24,45.83 45.27,46.60 43.00,47.33 40.74,48.06 38.37,48.77 36.00,49.47 33.81,50.37 31.62,51.26 29.67,52.04 27.71,52.83 25.47,53.77 23.23,54.70 21.48,55.50 19.73,56.30 18.18,57.04 16.63,57.78 14.97,58.69 13.32,59.60 12.04,60.57 10.77,61.55 9.56,62.20 8.35,62.85 7.27,63.51 6.18,64.17 5.59,64.82 5.00,65.48 4.28,66.04 3.57,66.61 2.88,66.90 2.19,67.20 1.62,66.96 1.05,66.72 0.78,65.86 0.52,65.00 0.48,64.07 0.44,63.14 0.48,61.94 0.51,60.74 0.45,58.35 0.40,55.95 0.43,55.79 0.45,55.63 0.53,55.49 0.60,55.34 0.72,55.23 0.84,55.12 0.98,55.05 1.13,54.98 1.29,54.97 1.45,54.95 1.61,54.98 1.77,55.02 1.91,55.10 2.05,55.18 2.15,55.30 2.26,55.43 2.32,55.58 2.38,55.73 2.39,55.89 2.40,56.05 2.35,56.21 2.31,56.36 2.22,56.50 2.13,56.63 2.00,56.73 1.87,56.83 1.72,56.88 1.57,56.93 1.40,56.93 1.24,56.93 1.09,56.88 0.94,56.83 0.81,56.73 0.68,56.64 0.59,56.50 0.50,56.37 0.45,56.21 0.41,56.06 0.42,55.90 0.42,55.73 0.48,55.58 0.54,55.43 0.65,55.31 0.75,55.19 0.89,55.10 1.03,55.02 1.19,54.98 1.34,54.95 1.50,54.96 1.67,54.98 1.81,55.05 1.96,55.12 2.08,55.23 2.20,55.34 2.27,55.48 2.35,55.62 2.37,55.78 2.40,55.94 2.40,55.94 2.40,55.94 2.37,58.33 2.34,60.72 2.40,61.88 2.47,63.05 2.57,64.20 2.67,65.34 3.33,64.92 3.99,64.49 4.74,63.77 5.49,63.05 6.61,62.37 7.72,61.69 8.85,61.09 9.97,60.49 11.32,59.46 12.68,58.44 14.36,57.51 16.05,56.57 17.61,55.82 19.17,55.07 20.94,54.26 22.71,53.45 24.95,52.51 27.20,51.56 29.15,50.76 31.09,49.97 33.34,49.04 35.58,48.11 37.94,47.39 40.29,46.67 42.49,45.93 44.70,45.19 46.59,44.41 48.48,43.64 50.21,42.72 51.93,41.80 53.54,41.14 55.15,40.47 56.43,39.96 57.71,39.45 58.76,38.55 59.80,37.65 60.56,37.23 61.32,36.81 61.95,36.18 62.57,35.55 62.31,35.07 62.05,34.59 61.69,34.13 61.32,33.67 60.57,33.43 59.83,33.18 59.34,32.80 58.85,32.42 58.05,32.04 57.24,31.65 56.20,31.26 55.17,30.86 54.15,30.41 53.14,29.95 52.37,29.42 51.60,28.89 50.51,28.53 49.41,28.16 47.92,27.35 46.44,26.55 45.23,26.04 44.02,25.53 42.69,24.84 41.36,24.16 39.54,23.45 37.73,22.74 36.42,22.06 35.10,21.38 33.33,20.69 31.56,20.00 30.36,19.37 29.15,18.74 27.62,18.14 26.10,17.55 24.52,16.68 22.94,15.82 21.57,15.18 20.20,14.54 18.79,13.92 17.38,13.31 16.14,12.43 14.90,11.55 13.85,10.87 12.81,10.19 11.79,9.52 10.78,8.86 9.82,8.20 8.86,7.54 8.20,6.97 7.54,6.40 6.79,5.85 6.05,5.31 5.37,4.64 4.70,3.98 4.08,3.34 3.46,2.70 3.16,2.26 2.85,1.83 2.34,1.54 1.84,1.26 0.82,1.09 -0.18,0.92 -0.29,0.88 -0.40,0.85 -0.49,0.79 -0.59,0.73 -0.67,0.65 -0.75,0.56 -0.80,0.47 -0.86,0.37 -0.89,0.26 -0.93,0.15 -0.93,0.04 -0.94,-0.07 -0.91,-0.18 -0.89,-0.29 -0.84,-0.39 -0.79,-0.50 -0.72,-0.58 -0.65,-0.67 -0.56,-0.74 -0.47,-0.81 -0.37,-0.86 -0.26,-0.90 -0.15,-0.92 -0.04,-0.94 0.07,-0.93 0.18,-0.92 0.18,-0.92 L 0.18,-0.92 Z"/></g><g transform="translate(68.28331580528862 68.9855252779447) rotate(0 -3.51104736328125 5.266559307391844)" stroke="none"><path fill="#d9480f" d="M 1.13,0.56 Q 1.13,0.56 0.68,1.36 0.24,2.17 -0.24,2.70 -0.73,3.23 -1.26,3.51 -1.79,3.79 -2.13,4.35 -2.47,4.92 -2.27,4.65 -2.07,4.37 -2.12,4.53 -2.16,4.70 -2.24,4.85 -2.32,5.00 -2.43,5.12 -2.54,5.25 -2.68,5.34 -2.82,5.44 -2.98,5.50 -3.14,5.56 -3.31,5.57 -3.48,5.59 -3.64,5.57 -3.81,5.55 -3.97,5.49 -4.13,5.43 -4.26,5.33 -4.40,5.24 -4.51,5.11 -4.62,4.98 -4.70,4.83 -4.78,4.68 -4.82,4.52 -4.86,4.35 -4.86,4.18 -4.86,4.01 -3.47,3.79 -2.07,3.58 -2.12,3.74 -2.16,3.91 -2.24,4.06 -2.32,4.21 -2.44,4.34 -2.55,4.47 -2.69,4.56 -2.83,4.66 -3.00,4.72 -3.16,4.78 -3.33,4.80 -3.50,4.82 -3.67,4.80 -3.84,4.78 -4.00,4.71 -4.16,4.65 -4.30,4.55 -4.44,4.46 -4.56,4.33 -4.67,4.20 -4.75,4.04 -4.83,3.89 -4.87,3.72 -4.91,3.56 -4.90,3.38 -4.90,3.21 -3.51,3.44 -2.11,3.67 -2.08,4.61 -2.04,5.56 -2.29,6.39 -2.53,7.23 -2.87,7.96 -3.20,8.69 -3.58,9.29 -3.96,9.89 -4.33,10.35 -4.71,10.81 -6.09,11.40 -7.48,11.99 -7.96,11.24 -8.45,10.48 -8.51,9.72 -8.57,8.96 -8.28,7.86 -7.99,6.76 -7.91,6.39 -7.83,6.03 -7.71,5.88 -7.60,5.72 -7.45,5.60 -7.30,5.48 -7.12,5.40 -6.95,5.31 -6.76,5.28 -6.57,5.24 -6.38,5.24 -6.19,5.25 -6.00,5.30 -5.82,5.36 -5.65,5.45 -5.48,5.55 -5.34,5.68 -5.20,5.82 -5.10,5.98 -5.00,6.14 -4.93,6.33 -4.87,6.51 -4.86,6.70 -4.84,6.89 -4.87,7.08 -4.90,7.28 -4.98,7.45 -5.05,7.63 -5.03,6.89 -5.01,6.15 -4.87,6.71 -4.73,7.28 -4.86,8.25 -4.99,9.22 -5.03,9.06 -5.07,8.90 -5.09,9.10 -5.11,9.30 -5.18,9.49 -5.25,9.67 -5.36,9.84 -5.47,10.00 -5.62,10.14 -5.77,10.27 -5.95,10.36 -6.12,10.46 -6.31,10.51 -6.51,10.56 -6.71,10.56 -6.91,10.56 -7.10,10.51 -7.29,10.47 -7.47,10.38 -7.65,10.28 -7.80,10.15 -7.95,10.02 -8.06,9.86 -8.18,9.70 -8.25,9.51 -8.32,9.33 -8.35,9.13 -8.37,8.93 -8.52,8.25 -8.66,7.56 -8.66,6.99 -8.66,6.43 -8.64,5.37 -8.62,4.32 -8.35,3.57 -8.08,2.82 -7.92,2.11 -7.76,1.40 -7.30,0.84 -6.84,0.28 -5.41,0.58 -3.97,0.87 -3.54,1.79 -3.12,2.72 -2.96,3.30 -2.80,3.88 -2.75,4.60 -2.70,5.32 -2.66,6.21 -2.63,7.10 -2.61,7.84 -2.60,8.58 -2.62,8.77 -2.64,8.96 -2.71,9.15 -2.77,9.33 -2.88,9.49 -2.99,9.65 -3.14,9.78 -3.28,9.91 -3.45,10.01 -3.62,10.10 -3.81,10.15 -4.00,10.19 -4.20,10.20 -4.39,10.20 -4.58,10.15 -4.77,10.11 -4.94,10.02 -5.12,9.93 -5.26,9.80 -5.41,9.68 -5.52,9.52 -5.63,9.36 -5.70,9.18 -5.78,8.99 -5.80,8.80 -5.83,8.61 -5.54,9.25 -5.25,9.90 -5.89,9.20 -6.54,8.50 -6.75,7.66 -6.97,6.82 -7.30,5.50 -7.63,4.18 -7.68,3.60 -7.73,3.03 -7.77,2.16 -7.82,1.30 -7.72,0.31 -7.62,-0.66 -7.21,-1.21 -6.81,-1.76 -5.83,-1.82 -4.86,-1.88 -4.16,-1.37 -3.47,-0.86 -3.19,-0.27 -2.92,0.31 -2.82,1.06 -2.72,1.81 -2.71,2.51 -2.70,3.20 -2.70,4.30 -2.69,5.41 -2.68,6.27 -2.66,7.13 -2.77,8.11 -2.88,9.09 -3.29,9.64 -3.70,10.20 -4.27,10.40 -4.83,10.60 -5.62,10.49 -6.40,10.38 -6.93,9.99 -7.46,9.61 -7.65,9.04 -7.85,8.47 -7.91,7.67 -7.97,6.87 -7.96,6.09 -7.96,5.32 -7.61,4.55 -7.25,3.79 -6.67,3.36 -6.09,2.93 -5.55,2.79 -5.01,2.64 -3.89,2.73 -2.77,2.82 -2.21,3.21 -1.66,3.60 -1.14,4.75 -0.63,5.89 -0.59,6.63 -0.55,7.37 -0.62,8.52 -0.69,9.66 -1.10,10.26 -1.51,10.86 -2.10,11.09 -2.68,11.32 -4.06,10.46 -5.44,9.59 -5.64,9.58 -5.84,9.58 -6.04,9.53 -6.23,9.47 -6.41,9.37 -6.58,9.27 -6.73,9.14 -6.88,9.00 -6.99,8.83 -7.10,8.66 -7.16,8.47 -7.23,8.28 -7.25,8.08 -7.27,7.88 -7.24,7.68 -7.21,7.48 -7.13,7.29 -7.06,7.11 -6.94,6.94 -6.82,6.78 -6.67,6.65 -6.51,6.52 -6.33,6.43 -6.15,6.34 -5.95,6.30 -5.75,6.26 -6.49,6.89 -7.22,7.52 -7.11,7.27 -7.01,7.02 -6.83,6.82 -6.65,6.62 -6.41,6.49 -6.17,6.35 -5.91,6.30 -5.64,6.25 -5.37,6.29 -5.11,6.32 -4.86,6.44 -4.62,6.56 -4.43,6.75 -4.24,6.95 -4.12,7.19 -4.00,7.43 -3.96,7.70 -3.92,7.97 -3.97,8.23 -4.02,8.50 -4.16,8.73 -4.29,8.97 -4.49,9.15 -4.69,9.33 -4.94,9.44 -5.19,9.55 -5.46,9.57 -5.73,9.59 -5.99,9.53 -6.26,9.46 -6.48,9.31 -6.71,9.17 -6.88,8.96 -7.05,8.75 -7.15,8.49 -7.24,8.24 -7.25,7.97 -7.25,7.70 -7.18,7.44 -7.10,7.18 -6.94,6.96 -6.78,6.74 -6.56,6.58 -6.34,6.42 -6.08,6.34 -5.82,6.26 -5.55,6.27 -5.28,6.28 -5.03,6.37 -4.77,6.47 -4.56,6.63 -4.35,6.80 -4.20,7.03 -4.06,7.26 -3.99,7.52 -3.93,7.79 -4.68,8.69 -5.44,9.59 -5.64,9.58 -5.84,9.58 -6.04,9.53 -6.23,9.47 -6.41,9.37 -6.58,9.28 -6.73,9.14 -6.88,9.00 -6.99,8.83 -7.10,8.66 -7.16,8.47 -7.23,8.28 -7.25,8.08 -7.27,7.88 -7.24,7.68 -7.21,7.48 -7.13,7.29 -7.06,7.11 -6.94,6.94 -6.82,6.78 -6.67,6.65 -6.51,6.52 -6.33,6.43 -6.15,6.34 -5.95,6.30 -5.75,6.26 -4.65,7.53 -3.54,8.81 -3.67,8.21 -3.80,7.62 -4.22,6.86 -4.64,6.10 -4.70,6.95 -4.76,7.80 -5.26,7.47 -5.76,7.14 -5.75,6.28 -5.74,5.43 -5.76,4.38 -5.79,3.32 -5.85,2.23 -5.91,1.15 -5.34,0.83 -4.77,0.52 -4.78,1.25 -4.79,1.97 -4.74,2.88 -4.69,3.78 -4.62,4.31 -4.56,4.84 -4.27,5.97 -3.98,7.09 -3.29,7.83 -2.60,8.58 -2.62,8.77 -2.64,8.96 -2.71,9.15 -2.77,9.33 -2.88,9.49 -2.99,9.65 -3.14,9.78 -3.28,9.91 -3.45,10.01 -3.62,10.10 -3.81,10.15 -4.00,10.19 -4.20,10.20 -4.39,10.20 -4.58,10.15 -4.77,10.11 -4.94,10.02 -5.12,9.93 -5.26,9.80 -5.41,9.68 -5.52,9.52 -5.63,9.36 -5.70,9.18 -5.78,8.99 -5.80,8.80 -5.83,8.61 -5.82,7.89 -5.81,7.17 -5.83,6.37 -5.85,5.56 -5.95,4.80 -6.05,4.04 -6.39,3.08 -6.72,2.13 -5.79,2.58 -4.86,3.03 -5.14,3.73 -5.41,4.43 -5.39,5.41 -5.36,6.39 -5.41,7.11 -5.46,7.83 -5.26,8.37 -5.07,8.90 -5.09,9.10 -5.11,9.30 -5.18,9.49 -5.25,9.67 -5.36,9.84 -5.47,10.00 -5.62,10.14 -5.77,10.27 -5.95,10.36 -6.12,10.46 -6.31,10.51 -6.51,10.56 -6.71,10.56 -6.91,10.56 -7.10,10.51 -7.29,10.47 -7.47,10.38 -7.65,10.28 -7.80,10.15 -7.95,10.02 -8.06,9.86 -8.18,9.70 -8.25,9.51 -8.32,9.33 -8.35,9.13 -8.37,8.93 -8.05,8.33 -7.73,7.73 -7.78,6.88 -7.83,6.03 -7.71,5.88 -7.60,5.72 -7.45,5.60 -7.30,5.48 -7.12,5.40 -6.95,5.31 -6.76,5.28 -6.57,5.24 -6.38,5.24 -6.19,5.25 -6.00,5.30 -5.82,5.36 -5.65,5.45 -5.48,5.55 -5.34,5.68 -5.20,5.82 -5.10,5.98 -5.00,6.14 -4.93,6.33 -4.87,6.51 -4.86,6.70 -4.84,6.89 -4.87,7.08 -4.90,7.28 -4.98,7.45 -5.05,7.63 -5.25,8.25 -5.44,8.88 -5.61,9.44 -5.78,10.00 -6.35,9.52 -6.92,9.04 -6.35,8.31 -5.77,7.57 -5.53,6.96 -5.29,6.35 -5.13,5.41 -4.97,4.47 -4.93,3.86 -4.89,3.25 -3.48,3.41 -2.07,3.57 -2.12,3.74 -2.16,3.91 -2.24,4.06 -2.32,4.21 -2.44,4.34 -2.55,4.47 -2.69,4.56 -2.83,4.66 -3.00,4.72 -3.16,4.78 -3.33,4.80 -3.50,4.82 -3.67,4.80 -3.84,4.78 -4.00,4.71 -4.16,4.65 -4.30,4.55 -4.44,4.46 -4.55,4.33 -4.67,4.20 -4.75,4.04 -4.83,3.89 -4.87,3.72 -4.91,3.56 -4.90,3.38 -4.90,3.21 -3.49,3.79 -2.07,4.37 -2.12,4.53 -2.16,4.70 -2.24,4.85 -2.32,5.00 -2.43,5.12 -2.54,5.25 -2.68,5.34 -2.82,5.44 -2.98,5.50 -3.14,5.56 -3.31,5.57 -3.47,5.59 -3.64,5.57 -3.81,5.55 -3.97,5.49 -4.13,5.43 -4.26,5.33 -4.40,5.24 -4.51,5.11 -4.62,4.98 -4.70,4.83 -4.78,4.68 -4.82,4.52 -4.86,4.35 -4.86,4.18 -4.86,4.01 -4.65,3.24 -4.45,2.47 -3.97,2.02 -3.49,1.58 -2.67,1.32 -1.85,1.05 -1.49,0.24 -1.13,-0.56 -1.04,-0.69 -0.96,-0.82 -0.85,-0.92 -0.74,-1.02 -0.60,-1.10 -0.47,-1.17 -0.32,-1.21 -0.17,-1.25 -0.02,-1.25 0.12,-1.26 0.27,-1.22 0.42,-1.19 0.56,-1.12 0.69,-1.05 0.81,-0.95 0.93,-0.85 1.02,-0.73 1.10,-0.61 1.16,-0.46 1.22,-0.32 1.24,-0.17 1.26,-0.02 1.25,0.12 1.23,0.27 1.18,0.42 1.13,0.56 1.13,0.56 L 1.13,0.56 Z"/></g><g transform="translate(158.16598745492803 137.0997502253606) rotate(0 -1.755535419170684 0.7021859975961604)" stroke="none"><path fill="#d9480f" d="M 1.09,-0.72 Q 1.09,-0.72 1.48,-0.11 1.88,0.49 2.23,0.90 2.58,1.31 2.85,1.87 3.13,2.42 3.15,3.22 3.17,4.01 3.11,3.87 3.06,3.72 3.07,3.89 3.08,4.06 3.04,4.23 3.01,4.40 2.94,4.56 2.87,4.71 2.77,4.85 2.66,4.98 2.53,5.09 2.39,5.19 2.23,5.26 2.08,5.33 1.91,5.37 1.74,5.40 1.57,5.39 1.40,5.37 1.23,5.32 1.07,5.27 0.92,5.18 0.78,5.09 0.66,4.97 0.53,4.85 0.45,4.70 0.36,4.56 0.31,4.39 0.26,4.23 0.10,3.43 -0.05,2.63 -0.06,2.29 -0.08,1.96 -0.07,1.78 -0.05,1.60 -0.00,1.43 0.05,1.25 0.15,1.10 0.24,0.95 0.37,0.82 0.50,0.70 0.66,0.60 0.82,0.51 0.99,0.46 1.16,0.41 1.34,0.40 1.53,0.40 1.70,0.43 1.88,0.47 2.04,0.55 2.21,0.62 2.35,0.74 2.49,0.85 2.60,1.00 2.71,1.14 2.78,1.31 2.85,1.47 2.88,1.65 2.91,1.83 2.92,2.45 2.93,3.07 2.80,3.67 2.67,4.27 2.34,4.70 2.01,5.13 1.50,5.67 1.00,6.21 0.24,6.32 -0.50,6.43 -1.61,6.36 -2.71,6.28 -3.20,5.95 -3.70,5.62 -4.27,5.09 -4.83,4.56 -4.95,4.04 -5.08,3.52 -5.12,2.73 -5.17,1.95 -5.16,1.38 -5.15,0.82 -5.14,-0.05 -5.13,-0.92 -4.79,-1.69 -4.44,-2.46 -3.87,-2.90 -3.30,-3.34 -2.75,-3.49 -2.21,-3.64 -1.43,-3.53 -0.66,-3.42 -0.10,-3.03 0.45,-2.64 0.65,-2.05 0.86,-1.47 0.90,-0.59 0.94,0.27 0.59,1.06 0.24,1.84 -0.33,2.27 -0.92,2.70 -1.46,2.84 -2.00,2.98 -2.78,2.87 -3.56,2.75 -4.13,2.33 -4.71,1.91 -4.90,1.06 -5.10,0.22 -5.14,-0.63 -5.18,-1.50 -5.18,-2.29 -5.17,-3.08 -4.82,-3.86 -4.46,-4.63 -3.88,-5.06 -3.29,-5.50 -2.36,-5.51 -1.43,-5.53 -0.67,-4.97 0.08,-4.41 0.38,-3.52 0.68,-2.64 0.74,-1.87 0.80,-1.10 0.80,-0.37 0.80,0.34 0.57,1.70 0.33,3.07 -0.05,4.09 -0.43,5.11 -0.82,5.59 -1.21,6.08 -1.79,6.43 -2.36,6.79 -2.88,6.92 -3.40,7.06 -4.50,6.99 -5.61,6.92 -6.16,6.52 -6.71,6.12 -6.91,5.49 -7.11,4.86 -6.86,3.91 -6.61,2.95 -6.12,2.41 -5.63,1.87 -4.75,1.32 -3.87,0.76 -2.99,0.80 -2.12,0.85 -1.58,1.17 -1.04,1.49 -0.52,2.34 -0.00,3.19 -0.02,4.41 -0.05,5.64 -0.09,5.47 -0.13,5.30 -0.15,5.50 -0.16,5.70 -0.22,5.90 -0.28,6.09 -0.39,6.26 -0.49,6.44 -0.63,6.58 -0.78,6.72 -0.95,6.83 -1.13,6.93 -1.32,6.99 -1.52,7.05 -1.72,7.07 -1.92,7.08 -2.12,7.04 -2.32,7.00 -2.51,6.92 -2.69,6.84 -2.85,6.71 -3.01,6.59 -3.13,6.42 -3.26,6.26 -3.34,6.08 -3.43,5.89 -3.46,5.69 -3.50,5.49 -3.64,4.77 -3.78,4.05 -3.77,3.48 -3.77,2.91 -3.68,2.27 -3.59,1.63 -3.48,1.66 -3.38,1.68 -3.35,1.48 -3.33,1.28 -3.26,1.09 -3.19,0.90 -3.07,0.73 -2.96,0.56 -2.81,0.43 -2.66,0.29 -2.48,0.20 -2.30,0.10 -2.11,0.05 -1.91,0.00 -1.71,0.00 -1.50,0.00 -1.31,0.05 -1.11,0.10 -0.93,0.19 -0.75,0.28 -0.60,0.41 -0.45,0.55 -0.33,0.71 -0.21,0.88 -0.14,1.07 -0.07,1.26 -0.04,1.46 -0.02,1.66 0.30,1.05 0.62,0.44 0.71,0.60 0.79,0.76 0.83,0.94 0.88,1.12 0.88,1.30 0.88,1.48 0.83,1.65 0.79,1.83 0.70,1.99 0.62,2.15 0.50,2.28 0.38,2.42 0.23,2.52 0.08,2.62 -0.08,2.69 -0.25,2.75 -0.43,2.77 -0.61,2.79 -0.78,2.77 -0.96,2.75 -1.13,2.68 -1.30,2.62 -1.45,2.52 -1.60,2.41 -1.72,2.28 -1.84,2.14 -1.76,1.20 -1.69,0.26 -1.49,0.11 -1.30,-0.03 -1.07,-0.10 -0.84,-0.18 -0.60,-0.18 -0.35,-0.18 -0.12,-0.10 0.10,-0.02 0.29,0.12 0.48,0.27 0.62,0.47 0.75,0.67 0.82,0.90 0.88,1.14 0.87,1.38 0.85,1.62 0.76,1.85 0.67,2.07 0.51,2.25 0.35,2.44 0.15,2.56 -0.05,2.69 -0.29,2.74 -0.53,2.79 -0.77,2.76 -1.01,2.74 -1.23,2.63 -1.45,2.53 -1.62,2.36 -1.80,2.19 -1.91,1.98 -2.02,1.77 -2.06,1.53 -2.10,1.29 -2.06,1.05 -2.02,0.81 -1.91,0.59 -1.79,0.38 -1.61,0.21 -1.44,0.05 -1.22,-0.04 -1.00,-0.14 -0.76,-0.17 -0.51,-0.19 -0.28,-0.14 -0.04,-0.09 0.16,0.03 0.36,0.15 0.52,0.34 0.68,0.52 0.77,0.75 0.85,0.98 0.87,1.22 0.88,1.46 0.81,1.69 0.75,1.93 0.69,1.19 0.62,0.44 0.71,0.60 0.79,0.76 0.83,0.94 0.88,1.11 0.88,1.30 0.88,1.48 0.83,1.65 0.79,1.83 0.70,1.99 0.62,2.15 0.50,2.28 0.38,2.42 0.23,2.52 0.08,2.62 -0.08,2.69 -0.25,2.75 -0.43,2.77 -0.60,2.79 -0.78,2.77 -0.96,2.75 -1.13,2.68 -1.30,2.62 -1.45,2.52 -1.60,2.41 -1.72,2.28 -1.84,2.14 -2.39,2.47 -2.94,2.80 -3.16,2.24 -3.38,1.68 -3.35,1.48 -3.33,1.28 -3.26,1.09 -3.19,0.90 -3.07,0.73 -2.96,0.56 -2.81,0.43 -2.66,0.29 -2.48,0.20 -2.30,0.10 -2.11,0.05 -1.91,0.00 -1.71,0.00 -1.50,0.00 -1.31,0.05 -1.11,0.10 -0.93,0.19 -0.75,0.28 -0.60,0.41 -0.45,0.55 -0.33,0.71 -0.21,0.88 -0.14,1.07 -0.07,1.26 -0.04,1.46 -0.02,1.66 -0.31,2.05 -0.61,2.44 -0.49,3.16 -0.38,3.89 -0.26,4.59 -0.13,5.30 -0.15,5.50 -0.16,5.70 -0.22,5.90 -0.28,6.09 -0.39,6.26 -0.49,6.44 -0.63,6.58 -0.78,6.72 -0.95,6.83 -1.13,6.93 -1.32,6.99 -1.51,7.05 -1.72,7.07 -1.92,7.08 -2.12,7.04 -2.32,7.00 -2.51,6.92 -2.69,6.84 -2.85,6.71 -3.01,6.59 -3.13,6.43 -3.26,6.26 -3.34,6.08 -3.43,5.89 -3.46,5.69 -3.50,5.49 -3.21,4.62 -2.92,3.75 -3.75,4.01 -4.58,4.27 -4.04,4.16 -3.50,4.05 -3.13,3.64 -2.77,3.22 -2.66,2.68 -2.56,2.14 -2.42,1.30 -2.29,0.46 -2.33,-0.16 -2.38,-0.79 -2.09,-1.54 -1.80,-2.29 -1.84,-1.51 -1.88,-0.73 -1.86,0.03 -1.85,0.80 -1.83,1.33 -1.82,1.86 -1.69,2.57 -1.56,3.28 -0.84,3.17 -0.12,3.06 -0.10,2.51 -0.08,1.96 -0.07,1.78 -0.05,1.60 -0.00,1.43 0.05,1.25 0.15,1.10 0.24,0.95 0.37,0.82 0.50,0.70 0.66,0.60 0.82,0.51 0.99,0.46 1.16,0.41 1.34,0.40 1.53,0.40 1.70,0.43 1.88,0.47 2.04,0.55 2.21,0.62 2.35,0.74 2.49,0.85 2.60,1.00 2.71,1.14 2.78,1.31 2.85,1.47 2.88,1.65 2.91,1.83 2.90,2.17 2.89,2.50 2.97,3.11 3.06,3.72 3.07,3.89 3.08,4.06 3.04,4.23 3.01,4.40 2.94,4.56 2.87,4.71 2.77,4.85 2.66,4.98 2.53,5.09 2.39,5.19 2.23,5.26 2.08,5.33 1.91,5.37 1.74,5.40 1.57,5.39 1.40,5.37 1.23,5.32 1.07,5.27 0.92,5.18 0.78,5.09 0.66,4.97 0.53,4.85 0.45,4.70 0.36,4.56 0.31,4.39 0.26,4.23 0.39,3.58 0.52,2.94 0.12,2.43 -0.27,1.93 -0.68,1.32 -1.09,0.72 -1.16,0.58 -1.23,0.44 -1.27,0.29 -1.30,0.13 -1.30,-0.02 -1.30,-0.17 -1.26,-0.33 -1.22,-0.48 -1.14,-0.62 -1.06,-0.76 -0.96,-0.88 -0.85,-0.99 -0.72,-1.08 -0.59,-1.17 -0.44,-1.22 -0.29,-1.28 -0.13,-1.29 0.02,-1.31 0.17,-1.29 0.33,-1.27 0.48,-1.21 0.62,-1.15 0.75,-1.06 0.88,-0.96 0.99,-0.84 1.09,-0.72 1.09,-0.72 L 1.09,-0.72 Z"/></g><g transform="translate(15.61767578125 85.83850567157452) rotate(0 0.70220947265625 8.426501934344941)" stroke="none"><path fill="#5c940d" d="M 1.23,-0.41 Q 1.23,-0.41 1.44,0.19 1.64,0.80 1.76,1.58 1.87,2.36 1.92,2.92 1.97,3.48 1.72,4.21 1.48,4.94 0.83,5.53 0.18,6.12 -0.41,6.74 -1.01,7.37 -1.32,7.44 -1.63,7.52 -1.80,7.58 -1.96,7.65 -2.14,7.67 -2.32,7.69 -2.49,7.67 -2.67,7.65 -2.84,7.59 -3.00,7.52 -3.15,7.42 -3.29,7.32 -3.41,7.19 -3.53,7.06 -3.61,6.90 -3.70,6.75 -3.74,6.57 -3.78,6.40 -3.78,6.23 -3.79,6.05 -3.74,5.88 -3.70,5.70 -3.62,5.55 -3.54,5.39 -3.42,5.25 -3.30,5.12 -3.16,5.02 -3.01,4.92 -2.33,4.93 -1.65,4.93 -0.86,4.95 -0.07,4.97 0.65,5.57 1.37,6.16 1.65,6.74 1.92,7.33 2.00,8.30 2.07,9.28 2.10,9.83 2.13,10.38 2.14,11.03 2.14,11.68 2.13,12.36 2.12,13.04 2.13,14.14 2.14,15.24 2.15,15.70 2.16,16.16 2.14,16.34 2.12,16.51 2.05,16.68 1.99,16.84 1.89,16.99 1.79,17.13 1.66,17.25 1.53,17.37 1.37,17.45 1.22,17.53 1.05,17.57 0.87,17.62 0.70,17.62 0.52,17.62 0.35,17.57 0.18,17.53 0.02,17.45 -0.12,17.37 -0.25,17.25 -0.39,17.14 -0.49,16.99 -0.59,16.85 -0.65,16.68 -0.71,16.52 -0.73,16.34 -0.75,16.17 -0.75,15.18 -0.76,14.19 -0.75,13.54 -0.74,12.89 -0.72,12.20 -0.71,11.52 -0.46,10.63 -0.21,9.75 0.12,9.10 0.47,8.45 0.87,7.94 1.26,7.42 1.81,7.06 2.36,6.70 2.87,6.54 3.39,6.39 4.12,6.47 4.85,6.54 5.39,6.93 5.93,7.33 6.11,8.36 6.29,9.38 6.33,10.54 6.37,11.70 6.35,12.40 6.34,13.09 6.10,13.83 5.85,14.58 5.48,15.48 5.12,16.39 4.74,16.86 4.36,17.32 3.79,17.66 3.22,18.01 2.37,18.03 1.52,18.05 0.81,17.55 0.09,17.05 -0.94,15.75 -1.97,14.45 -2.21,13.81 -2.45,13.18 -2.70,12.59 -2.96,12.01 -3.11,11.18 -3.27,10.35 -3.34,9.82 -3.41,9.29 -3.37,8.22 -3.33,7.15 -2.95,6.61 -2.56,6.07 -2.01,5.86 -1.46,5.65 -0.66,5.65 0.13,5.65 0.78,6.01 1.42,6.37 1.73,6.94 2.03,7.52 2.13,8.60 2.23,9.68 2.16,10.32 2.09,10.96 1.66,11.58 1.23,12.19 0.39,12.43 -0.43,12.68 -1.12,12.70 -1.82,12.73 -3.06,12.48 -4.30,12.22 -5.16,11.82 -6.02,11.42 -6.42,10.85 -6.82,10.28 -6.96,9.75 -7.10,9.22 -7.13,8.56 -7.16,7.90 -7.10,7.26 -7.03,6.61 -6.46,5.83 -5.89,5.04 -5.18,4.60 -4.48,4.16 -3.76,3.80 -3.05,3.44 -2.18,3.23 -1.31,3.03 -0.76,2.95 -0.21,2.86 0.46,2.83 1.13,2.81 2.06,2.78 2.99,2.75 3.73,3.07 4.47,3.39 4.89,3.93 5.32,4.47 5.47,5.00 5.62,5.53 5.66,6.18 5.70,6.84 5.45,8.04 5.19,9.25 4.73,10.14 4.27,11.02 3.43,11.41 2.60,11.81 1.36,11.82 0.12,11.84 -0.49,11.18 -1.12,10.51 -1.08,9.61 -1.03,8.71 -0.42,7.62 0.17,6.54 1.13,5.42 2.08,4.31 3.88,2.04 5.67,-0.23 5.81,-0.38 5.95,-0.52 6.12,-0.62 6.30,-0.72 6.50,-0.75 6.70,-0.78 6.90,-0.75 7.10,-0.72 7.28,-0.63 7.46,-0.54 7.60,-0.39 7.74,-0.24 7.82,-0.06 7.91,0.11 7.93,0.31 7.96,0.51 7.92,0.71 7.87,0.91 7.77,1.08 7.67,1.26 7.52,1.39 7.36,1.52 7.18,1.60 6.99,1.67 6.79,1.68 6.59,1.70 6.39,1.64 6.20,1.59 6.03,1.48 5.86,1.37 5.74,1.21 5.61,1.05 5.55,0.86 5.48,0.67 5.48,0.46 5.48,0.26 5.54,0.07 5.60,-0.11 5.72,-0.27 5.84,-0.43 6.01,-0.55 6.18,-0.66 6.37,-0.72 6.57,-0.78 6.77,-0.77 6.97,-0.76 7.16,-0.68 7.35,-0.61 7.50,-0.48 7.66,-0.35 7.76,-0.18 7.87,-0.01 7.91,0.18 7.96,0.38 7.94,0.58 7.92,0.78 7.83,0.96 7.75,1.15 7.75,1.15 7.75,1.15 5.86,3.46 3.97,5.77 3.32,6.73 2.67,7.69 2.35,8.63 2.04,9.57 1.51,9.35 0.99,9.13 1.55,9.02 2.11,8.90 2.37,7.95 2.63,7.00 2.74,6.34 2.85,5.68 2.05,5.68 1.26,5.69 0.71,5.72 0.16,5.74 -0.74,5.89 -1.66,6.03 -2.24,6.39 -2.83,6.74 -3.40,7.24 -3.98,7.74 -3.98,8.43 -3.98,9.13 -2.98,9.38 -1.98,9.63 -1.34,9.93 -0.70,10.22 -0.67,9.61 -0.64,9.00 -0.53,9.95 -0.42,10.90 0.01,11.98 0.45,13.06 0.72,13.57 0.99,14.07 1.57,14.69 2.15,15.31 2.52,14.91 2.90,14.51 3.18,13.77 3.47,13.02 3.44,12.39 3.42,11.76 3.40,11.17 3.39,10.58 3.70,9.92 4.00,9.26 3.44,9.56 2.88,9.86 2.50,10.70 2.11,11.55 2.13,12.22 2.14,12.89 2.15,13.54 2.16,14.19 2.16,15.18 2.16,16.16 2.14,16.34 2.12,16.51 2.05,16.68 1.99,16.84 1.89,16.99 1.79,17.13 1.66,17.25 1.53,17.37 1.37,17.45 1.22,17.53 1.05,17.57 0.87,17.62 0.70,17.62 0.52,17.62 0.35,17.57 0.18,17.53 0.02,17.45 -0.12,17.37 -0.25,17.25 -0.39,17.14 -0.49,16.99 -0.59,16.85 -0.65,16.68 -0.71,16.52 -0.73,16.34 -0.75,16.17 -0.74,15.71 -0.74,15.25 -0.73,14.15 -0.73,13.06 -0.75,12.40 -0.77,11.73 -0.81,10.62 -0.85,9.52 -1.01,8.67 -1.16,7.82 -1.95,7.72 -2.74,7.62 -2.19,7.57 -1.63,7.52 -1.80,7.58 -1.96,7.65 -2.14,7.67 -2.32,7.69 -2.49,7.67 -2.67,7.65 -2.84,7.59 -3.00,7.52 -3.15,7.42 -3.29,7.32 -3.41,7.19 -3.53,7.06 -3.61,6.90 -3.70,6.75 -3.74,6.57 -3.78,6.40 -3.78,6.23 -3.79,6.05 -3.74,5.88 -3.70,5.70 -3.62,5.55 -3.54,5.39 -3.42,5.25 -3.30,5.12 -3.16,5.02 -3.01,4.92 -2.62,4.96 -2.23,5.00 -1.90,4.50 -1.56,4.00 -1.14,3.35 -0.72,2.70 -0.78,2.16 -0.84,1.62 -1.03,1.01 -1.23,0.41 -1.26,0.25 -1.29,0.10 -1.29,-0.05 -1.28,-0.20 -1.24,-0.36 -1.19,-0.51 -1.11,-0.64 -1.03,-0.78 -0.93,-0.89 -0.82,-1.00 -0.68,-1.09 -0.55,-1.17 -0.40,-1.22 -0.25,-1.27 -0.10,-1.28 0.05,-1.30 0.20,-1.27 0.36,-1.24 0.50,-1.18 0.65,-1.12 0.77,-1.03 0.90,-0.93 1.00,-0.81 1.10,-0.69 1.16,-0.55 1.23,-0.41 1.23,-0.41 L 1.23,-0.41 Z"/></g><g transform="translate(118.8423039362981 16.31988525390625) rotate(0 -3.51104736328125 3.15993088942308)" stroke="none"><path fill="#5c940d" d="M -0.93,0.93 Q -0.93,0.93 -1.35,0.52 -1.77,0.11 -2.08,-0.44 -2.40,-0.99 -2.53,-1.79 -2.66,-2.58 -2.46,-3.33 -2.26,-4.08 -1.92,-4.62 -1.57,-5.16 -1.27,-5.68 -0.96,-6.21 -0.43,-6.67 0.08,-7.14 0.63,-7.36 1.17,-7.57 1.96,-7.52 2.74,-7.48 3.27,-7.13 3.80,-6.77 4.01,-6.22 4.22,-5.66 4.25,-4.44 4.28,-3.22 4.28,-2.04 4.27,-0.86 3.74,0.25 3.21,1.38 2.78,2.03 2.36,2.69 1.72,3.38 1.07,4.08 0.32,4.64 -0.42,5.19 -1.16,5.63 -1.91,6.06 -2.99,6.27 -4.08,6.48 -4.91,6.56 -5.75,6.64 -6.52,6.68 -7.28,6.72 -8.59,6.56 -9.89,6.41 -10.32,5.87 -10.75,5.33 -10.95,4.17 -11.14,3.01 -11.15,2.33 -11.16,1.66 -10.93,0.78 -10.69,-0.09 -10.08,-0.96 -9.47,-1.82 -8.74,-2.43 -8.00,-3.04 -7.33,-3.61 -6.66,-4.18 -5.80,-4.55 -4.94,-4.93 -3.81,-5.40 -2.67,-5.88 -1.67,-6.17 -0.67,-6.46 -0.01,-6.01 0.64,-5.56 1.06,-4.63 1.48,-3.70 1.65,-2.84 1.81,-1.99 1.87,-1.21 1.93,-0.44 1.95,0.28 1.97,1.02 1.97,1.75 1.97,2.49 1.74,3.23 1.51,3.97 0.92,4.73 0.33,5.49 -0.46,6.48 -1.25,7.47 -1.82,7.75 -2.39,8.03 -3.14,8.15 -3.89,8.27 -5.00,8.34 -6.11,8.40 -6.73,8.35 -7.36,8.30 -7.92,7.96 -8.48,7.63 -8.95,7.13 -9.42,6.64 -9.86,6.18 -10.29,5.71 -10.60,4.63 -10.90,3.55 -11.00,2.96 -11.09,2.38 -11.12,1.69 -11.16,1.00 -10.89,-0.26 -10.61,-1.53 -10.09,-1.97 -9.57,-2.41 -8.30,-2.17 -7.03,-1.93 -6.71,-0.56 -6.39,0.80 -6.08,1.27 -5.78,1.74 -5.40,2.49 -5.03,3.24 -4.69,4.23 -4.35,5.23 -3.88,6.19 -3.42,7.14 -2.07,9.35 -0.72,11.56 -0.66,11.73 -0.60,11.90 -0.59,12.08 -0.59,12.26 -0.64,12.43 -0.69,12.61 -0.80,12.75 -0.91,12.90 -1.05,13.01 -1.20,13.11 -1.37,13.16 -1.55,13.22 -1.73,13.21 -1.91,13.21 -2.08,13.15 -2.25,13.08 -2.39,12.97 -2.53,12.86 -2.63,12.70 -2.73,12.55 -2.77,12.37 -2.82,12.20 -2.80,12.02 -2.79,11.84 -2.71,11.67 -2.64,11.50 -2.52,11.37 -2.40,11.23 -2.24,11.14 -2.08,11.05 -1.91,11.02 -1.73,10.99 -1.55,11.01 -1.37,11.04 -1.21,11.12 -1.04,11.20 -0.91,11.32 -0.79,11.45 -0.71,11.62 -0.63,11.78 -0.60,11.96 -0.58,12.14 -0.61,12.32 -0.65,12.49 -0.73,12.65 -0.82,12.81 -0.96,12.93 -1.09,13.05 -1.26,13.12 -1.43,13.20 -1.61,13.21 -1.79,13.22 -1.97,13.18 -2.14,13.14 -2.29,13.04 -2.45,12.94 -2.56,12.80 -2.67,12.66 -2.67,12.66 -2.67,12.66 -3.96,10.42 -5.25,8.17 -5.90,7.14 -6.55,6.12 -6.94,5.30 -7.33,4.47 -7.73,3.80 -8.12,3.12 -8.67,2.13 -9.23,1.15 -9.30,0.24 -9.37,-0.65 -8.88,0.10 -8.40,0.86 -8.32,1.91 -8.23,2.96 -7.81,3.79 -7.39,4.63 -6.78,5.11 -6.17,5.59 -5.61,5.58 -5.05,5.57 -4.23,5.54 -3.41,5.50 -2.83,5.27 -2.26,5.04 -1.98,4.47 -1.69,3.91 -1.15,3.18 -0.60,2.45 -0.62,1.78 -0.63,1.11 -0.66,0.43 -0.69,-0.23 -0.74,-0.87 -0.80,-1.50 -0.90,-2.07 -1.00,-2.63 -0.96,-3.46 -0.92,-4.28 -1.91,-3.84 -2.90,-3.41 -3.50,-3.06 -4.09,-2.72 -4.61,-2.57 -5.12,-2.42 -5.78,-1.76 -6.43,-1.10 -6.92,-0.72 -7.40,-0.33 -7.93,0.65 -8.45,1.64 -8.43,2.25 -8.42,2.85 -8.47,3.83 -8.51,4.80 -7.95,4.61 -7.38,4.42 -6.67,4.39 -5.96,4.37 -5.24,4.30 -4.51,4.24 -3.80,4.10 -3.10,3.97 -2.49,3.59 -1.88,3.22 -1.35,2.82 -0.81,2.42 -0.33,1.83 0.14,1.23 0.46,0.74 0.78,0.25 1.06,-0.35 1.33,-0.97 1.31,-2.07 1.29,-3.18 1.36,-3.96 1.42,-4.74 0.89,-3.89 0.35,-3.04 0.25,-2.38 0.15,-1.72 0.54,-1.33 0.93,-0.93 1.02,-0.80 1.12,-0.68 1.19,-0.53 1.25,-0.39 1.28,-0.23 1.31,-0.07 1.30,0.07 1.29,0.23 1.24,0.38 1.20,0.54 1.11,0.67 1.03,0.81 0.92,0.92 0.81,1.03 0.67,1.11 0.54,1.20 0.38,1.24 0.23,1.29 0.07,1.30 -0.07,1.31 -0.23,1.28 -0.39,1.25 -0.53,1.19 -0.68,1.12 -0.80,1.02 -0.93,0.93 -0.93,0.93 L -0.93,0.93 Z"/></g><g transform="translate(222.76911808894232 105.5003474308894) rotate(0 -4.21323336087741 0)" stroke="none"><path fill="#5c940d" d="M 0.70,1.05 Q 0.70,1.05 0.09,1.45 -0.51,1.85 -0.91,2.20 -1.31,2.55 -1.91,3.07 -2.51,3.60 -3.36,3.96 -4.21,4.32 -5.11,4.79 -6.00,5.27 -6.61,5.47 -7.23,5.68 -7.79,5.50 -8.36,5.31 -8.67,4.77 -8.99,4.24 -9.02,3.35 -9.06,2.46 -8.83,1.70 -8.61,0.94 -8.30,0.29 -7.99,-0.36 -7.55,-0.98 -7.11,-1.60 -6.35,-1.98 -5.58,-2.36 -4.46,-2.68 -3.35,-3.00 -2.73,-2.19 -2.10,-1.39 -2.03,-0.61 -1.97,0.16 -1.94,0.87 -1.92,1.58 -2.05,2.19 -2.17,2.81 -2.59,3.36 -3.00,3.91 -3.57,4.11 -4.14,4.30 -5.43,4.00 -6.73,3.70 -7.15,3.13 -7.58,2.55 -7.72,2.02 -7.86,1.49 -8.15,0.28 -8.44,-0.93 -8.49,-2.13 -8.54,-3.33 -8.16,-4.21 -7.78,-5.09 -7.00,-5.57 -6.21,-6.06 -5.37,-6.49 -4.53,-6.92 -3.76,-7.00 -2.99,-7.07 -2.15,-6.77 -1.30,-6.47 -0.65,-5.51 0.00,-4.54 0.35,-3.81 0.70,-3.08 0.91,-2.47 1.12,-1.85 1.18,-0.88 1.25,0.08 1.26,0.86 1.27,1.64 1.31,2.81 1.34,3.98 1.30,4.59 1.25,5.21 0.88,5.79 0.52,6.37 -0.29,6.57 -1.11,6.77 -2.17,6.09 -3.23,5.41 -3.75,5.25 -4.28,5.09 -6.42,3.97 -8.55,2.85 -8.73,2.72 -8.90,2.59 -9.02,2.41 -9.14,2.23 -9.20,2.02 -9.26,1.81 -9.25,1.59 -9.24,1.37 -9.16,1.17 -9.08,0.97 -8.94,0.81 -8.80,0.64 -8.61,0.53 -8.42,0.41 -8.21,0.37 -8.00,0.32 -7.78,0.34 -7.57,0.37 -7.37,0.46 -7.17,0.55 -7.02,0.70 -6.86,0.85 -6.76,1.04 -6.65,1.23 -6.62,1.45 -6.58,1.66 -6.62,1.87 -6.65,2.09 -6.75,2.28 -6.85,2.47 -7.01,2.62 -7.17,2.77 -7.37,2.86 -7.56,2.96 -7.78,2.98 -8.00,3.00 -8.21,2.96 -8.42,2.91 -8.61,2.80 -8.79,2.69 -8.93,2.52 -9.07,2.36 -9.16,2.15 -9.24,1.95 -9.25,1.74 -9.26,1.52 -9.20,1.31 -9.14,1.10 -9.02,0.92 -8.90,0.74 -8.73,0.61 -8.56,0.48 -8.35,0.41 -8.14,0.34 -7.93,0.34 -7.71,0.34 -7.50,0.41 -7.30,0.47 -7.30,0.47 -7.30,0.47 -5.37,1.55 -3.43,2.63 -2.39,3.32 -1.35,4.00 -1.36,2.87 -1.36,1.74 -1.40,1.02 -1.44,0.30 -1.61,-0.73 -1.78,-1.77 -2.33,-2.89 -2.88,-4.01 -3.41,-3.96 -3.94,-3.91 -4.68,-3.64 -5.42,-3.38 -5.40,-2.81 -5.38,-2.25 -5.28,-1.38 -5.17,-0.52 -5.13,0.19 -5.08,0.91 -4.98,0.08 -4.87,-0.74 -4.19,-0.73 -3.50,-0.73 -3.97,-0.29 -4.44,0.14 -4.96,0.46 -5.47,0.79 -5.88,1.61 -6.30,2.43 -6.70,2.91 -7.10,3.38 -6.69,3.03 -6.27,2.68 -5.21,2.21 -4.14,1.75 -3.54,1.15 -2.94,0.55 -2.42,0.15 -1.91,-0.24 -1.30,-0.64 -0.70,-1.05 -0.56,-1.12 -0.43,-1.19 -0.28,-1.22 -0.13,-1.26 0.02,-1.25 0.17,-1.25 0.32,-1.21 0.46,-1.17 0.60,-1.10 0.73,-1.03 0.85,-0.92 0.96,-0.82 1.04,-0.69 1.13,-0.57 1.18,-0.42 1.23,-0.28 1.25,-0.13 1.26,0.02 1.24,0.17 1.22,0.32 1.17,0.46 1.11,0.60 1.02,0.73 0.93,0.85 0.82,0.95 0.70,1.05 0.70,1.05 L 0.70,1.05 Z"/></g><g transform="translate(25.105802220727412 29.395335200468395) rotate(0 -2.802171222947834 10.508126473159109)" stroke="none"><path fill="#000000" d="M -0.17,1.03 Q -0.17,1.03 -0.95,0.90 -1.74,0.77 -2.27,0.97 -2.80,1.18 -3.43,1.51 -4.05,1.83 -4.54,2.22 -5.02,2.60 -5.45,3.10 -5.87,3.61 -6.32,4.31 -6.78,5.00 -7.26,5.74 -7.75,6.48 -8.05,7.23 -8.36,7.98 -8.48,8.77 -8.61,9.56 -8.71,10.57 -8.81,11.57 -8.82,12.41 -8.83,13.24 -8.82,14.00 -8.81,14.76 -8.79,15.47 -8.77,16.18 -8.52,16.72 -8.27,17.25 -8.01,17.79 -7.75,18.32 -7.14,19.01 -6.53,19.70 -5.81,19.87 -5.09,20.05 -3.82,20.12 -2.54,20.18 -1.93,20.08 -1.31,19.97 -0.73,19.70 -0.16,19.44 0.30,19.09 0.77,18.74 1.18,18.27 1.60,17.79 1.87,17.25 2.15,16.72 2.40,16.10 2.66,15.48 2.75,14.58 2.84,13.69 2.87,12.88 2.89,12.07 1.94,11.37 0.99,10.66 0.80,10.54 0.62,10.42 0.48,10.25 0.34,10.07 0.26,9.86 0.19,9.65 0.18,9.43 0.18,9.21 0.24,8.99 0.31,8.78 0.44,8.60 0.57,8.42 0.76,8.29 0.94,8.16 1.15,8.10 1.37,8.03 1.59,8.04 1.81,8.05 2.02,8.12 2.23,8.20 2.40,8.34 2.58,8.49 2.70,8.67 2.81,8.86 2.87,9.08 2.92,9.30 2.90,9.52 2.88,9.74 2.79,9.95 2.70,10.15 2.55,10.32 2.40,10.48 2.21,10.59 2.01,10.70 1.79,10.74 1.57,10.78 1.35,10.75 1.13,10.72 0.93,10.62 0.73,10.52 0.57,10.36 0.42,10.20 0.32,10.00 0.22,9.80 0.19,9.58 0.16,9.35 0.21,9.14 0.25,8.92 0.36,8.72 0.47,8.53 0.64,8.38 0.81,8.23 1.01,8.15 1.22,8.06 1.44,8.04 1.66,8.03 1.88,8.08 2.10,8.14 2.10,8.14 2.10,8.14 3.79,9.93 5.48,11.73 5.44,12.84 5.40,13.95 5.32,14.52 5.24,15.09 5.07,15.75 4.90,16.41 4.59,17.14 4.28,17.88 3.85,18.64 3.42,19.39 2.81,20.07 2.20,20.74 1.52,21.20 0.84,21.67 -0.01,22.04 -0.87,22.42 -1.74,22.56 -2.60,22.71 -3.44,22.70 -4.28,22.70 -4.99,22.62 -5.70,22.55 -6.33,22.35 -6.96,22.16 -7.95,21.31 -8.95,20.47 -9.37,19.84 -9.78,19.21 -10.02,18.60 -10.25,17.99 -10.53,17.11 -10.82,16.22 -10.79,15.47 -10.77,14.73 -10.73,13.96 -10.70,13.19 -10.66,12.33 -10.62,11.46 -10.60,10.36 -10.57,9.25 -10.41,8.25 -10.25,7.24 -9.88,6.30 -9.51,5.35 -9.05,4.61 -8.59,3.88 -8.07,3.01 -7.55,2.13 -6.95,1.48 -6.34,0.82 -5.68,0.36 -5.02,-0.09 -4.21,-0.48 -3.39,-0.87 -2.44,-1.09 -1.48,-1.30 -0.65,-1.17 0.17,-1.03 0.29,-0.99 0.41,-0.96 0.52,-0.90 0.63,-0.83 0.72,-0.74 0.81,-0.66 0.88,-0.55 0.94,-0.44 0.98,-0.32 1.02,-0.20 1.03,-0.07 1.04,0.04 1.02,0.17 1.00,0.29 0.95,0.41 0.90,0.52 0.83,0.62 0.75,0.73 0.65,0.80 0.55,0.88 0.44,0.94 0.32,0.99 0.20,1.02 0.08,1.04 -0.04,1.04 -0.17,1.03 -0.17,1.03 L -0.17,1.03 Z"/></g><g transform="translate(186.23038212100846 20.521808607362175) rotate(0 -11.909204278185399 14.010832695396275)" stroke="none"><path fill="#000000" d="M 0.73,0.27 Q 0.73,0.27 0.31,1.34 -0.10,2.41 -0.55,3.53 -1.01,4.66 -1.61,5.96 -2.22,7.26 -2.88,8.62 -3.54,9.97 -4.38,11.38 -5.21,12.78 -5.95,14.16 -6.70,15.54 -7.72,16.85 -8.75,18.16 -9.84,19.50 -10.94,20.85 -12.10,21.98 -13.27,23.12 -14.47,23.90 -15.68,24.68 -16.85,25.40 -18.01,26.12 -19.21,26.71 -20.40,27.29 -21.31,27.70 -22.22,28.10 -23.06,28.33 -23.90,28.55 -24.66,28.63 -25.42,28.71 -26.08,28.27 -26.75,27.82 -27.07,27.08 -27.38,26.34 -27.42,25.18 -27.47,24.02 -27.46,22.88 -27.45,21.74 -27.15,20.62 -26.86,19.50 -26.46,18.25 -26.05,17.00 -25.29,15.85 -24.53,14.70 -23.97,13.94 -23.40,13.18 -22.57,12.44 -21.74,11.69 -20.99,11.09 -20.24,10.49 -19.84,10.08 -19.43,9.66 -18.85,9.38 -18.28,9.11 -17.40,8.98 -16.52,8.85 -15.83,9.32 -15.13,9.80 -14.58,10.37 -14.02,10.94 -13.39,11.61 -12.77,12.27 -12.11,13.15 -11.44,14.04 -10.67,14.93 -9.89,15.82 -9.15,16.78 -8.40,17.73 -7.81,18.54 -7.21,19.35 -6.58,20.06 -5.95,20.78 -5.30,21.31 -4.65,21.84 -4.11,22.16 -3.56,22.48 -2.67,22.93 -1.77,23.38 -1.05,23.63 -0.34,23.89 0.22,23.30 0.78,22.71 1.03,20.67 1.28,18.63 1.38,18.42 1.48,18.20 1.64,18.02 1.80,17.85 2.01,17.73 2.22,17.62 2.45,17.58 2.69,17.54 2.93,17.57 3.16,17.61 3.38,17.72 3.59,17.83 3.75,18.00 3.92,18.17 4.02,18.38 4.13,18.60 4.16,18.84 4.18,19.07 4.14,19.31 4.09,19.54 3.97,19.75 3.85,19.95 3.67,20.11 3.48,20.27 3.26,20.36 3.04,20.45 2.80,20.47 2.57,20.48 2.34,20.42 2.10,20.36 1.90,20.23 1.71,20.10 1.56,19.91 1.41,19.72 1.33,19.49 1.25,19.27 1.25,19.03 1.25,18.79 1.32,18.56 1.40,18.34 1.54,18.14 1.68,17.95 1.88,17.82 2.07,17.68 2.30,17.61 2.53,17.55 2.77,17.56 3.01,17.57 3.23,17.65 3.45,17.74 3.64,17.89 3.82,18.04 3.95,18.25 4.07,18.45 4.13,18.68 4.18,18.91 4.16,19.15 4.14,19.39 4.14,19.39 4.14,19.39 3.68,21.77 3.22,24.15 2.75,24.78 2.27,25.41 1.79,25.81 1.31,26.20 0.19,26.22 -0.91,26.24 -1.80,25.79 -2.68,25.34 -3.65,24.68 -4.61,24.02 -5.18,23.57 -5.75,23.13 -6.47,22.50 -7.18,21.86 -7.85,21.10 -8.53,20.34 -9.11,19.57 -9.69,18.80 -10.45,17.93 -11.21,17.06 -12.09,16.18 -12.97,15.31 -13.65,14.57 -14.34,13.84 -15.01,13.21 -15.67,12.59 -16.37,11.77 -17.08,10.95 -17.69,11.00 -18.31,11.05 -18.79,11.39 -19.28,11.74 -20.00,12.27 -20.72,12.81 -21.44,13.48 -22.16,14.16 -22.72,14.84 -23.29,15.52 -23.92,16.49 -24.56,17.47 -24.91,18.69 -25.26,19.91 -25.48,20.81 -25.70,21.71 -25.63,22.80 -25.56,23.89 -25.44,25.20 -25.32,26.52 -24.77,26.76 -24.21,27.01 -23.48,26.91 -22.75,26.81 -21.87,26.46 -20.98,26.11 -19.84,25.55 -18.71,24.99 -17.55,24.28 -16.39,23.56 -15.29,22.87 -14.19,22.17 -13.08,21.09 -11.97,20.01 -10.89,18.67 -9.80,17.33 -8.84,16.11 -7.89,14.90 -7.14,13.49 -6.38,12.09 -5.59,10.73 -4.79,9.37 -4.14,8.02 -3.50,6.68 -2.93,5.41 -2.35,4.14 -1.93,3.01 -1.50,1.88 -1.11,0.80 -0.73,-0.27 -0.68,-0.35 -0.64,-0.44 -0.58,-0.51 -0.52,-0.58 -0.44,-0.63 -0.36,-0.69 -0.27,-0.72 -0.18,-0.75 -0.09,-0.76 -0.00,-0.78 0.09,-0.77 0.18,-0.75 0.27,-0.72 0.36,-0.69 0.43,-0.63 0.51,-0.58 0.57,-0.51 0.64,-0.44 0.68,-0.36 0.72,-0.27 0.75,-0.18 0.77,-0.09 0.77,-0.00 0.77,0.09 0.75,0.18 0.73,0.27 0.73,0.27 L 0.73,0.27 Z"/></g><g transform="translate(200.70825116001038 19.12072299588823) rotate(0 -3.9697035336045303 13.310297696106971)" stroke="none"><path fill="#000000" d="M 0.44,0.77 Q 0.44,0.77 -0.51,1.28 -1.46,1.79 -1.89,2.26 -2.32,2.72 -2.76,3.31 -3.19,3.89 -3.64,4.63 -4.09,5.37 -4.57,6.22 -5.05,7.06 -5.53,7.96 -6.02,8.85 -6.35,9.83 -6.68,10.81 -6.96,11.79 -7.24,12.76 -7.49,13.71 -7.74,14.66 -7.85,15.67 -7.97,16.69 -7.98,17.53 -8.00,18.38 -7.98,19.14 -7.96,19.90 -7.94,20.62 -7.91,21.34 -7.89,22.03 -7.87,22.72 -7.38,23.38 -6.89,24.03 -6.39,24.39 -5.90,24.74 -5.15,24.97 -4.40,25.19 -3.49,25.21 -2.58,25.22 -1.32,24.46 -0.06,23.70 0.15,23.62 0.36,23.54 0.58,23.54 0.81,23.53 1.03,23.59 1.25,23.66 1.43,23.79 1.62,23.92 1.75,24.10 1.88,24.28 1.95,24.50 2.02,24.72 2.02,24.94 2.01,25.17 1.93,25.38 1.86,25.60 1.72,25.77 1.58,25.95 1.39,26.08 1.20,26.20 0.98,26.26 0.76,26.31 0.53,26.30 0.31,26.28 0.10,26.19 -0.10,26.10 -0.27,25.95 -0.44,25.80 -0.55,25.61 -0.67,25.41 -0.71,25.19 -0.76,24.97 -0.73,24.74 -0.70,24.52 -0.60,24.31 -0.50,24.11 -0.34,23.95 -0.18,23.79 0.01,23.69 0.21,23.58 0.44,23.55 0.66,23.52 0.88,23.56 1.11,23.60 1.30,23.71 1.50,23.82 1.65,23.99 1.81,24.15 1.90,24.36 1.99,24.57 2.01,24.79 2.03,25.02 1.98,25.24 1.92,25.46 1.80,25.65 1.68,25.84 1.51,25.99 1.33,26.13 1.33,26.13 1.33,26.13 -0.65,27.04 -2.65,27.95 -3.19,27.92 -3.73,27.89 -4.87,27.65 -6.00,27.42 -6.66,27.11 -7.33,26.79 -7.80,26.40 -8.27,26.01 -8.78,25.18 -9.29,24.35 -9.57,23.58 -9.86,22.80 -9.83,22.06 -9.80,21.32 -9.76,20.59 -9.72,19.85 -9.66,19.07 -9.61,18.30 -9.53,17.42 -9.45,16.54 -9.35,15.40 -9.25,14.26 -9.00,13.30 -8.74,12.34 -8.47,11.34 -8.20,10.33 -7.87,9.20 -7.53,8.07 -7.08,7.14 -6.62,6.21 -6.16,5.31 -5.69,4.40 -5.18,3.55 -4.67,2.69 -4.12,2.05 -3.56,1.40 -2.93,0.88 -2.29,0.35 -1.36,-0.20 -0.44,-0.77 -0.34,-0.81 -0.24,-0.85 -0.13,-0.87 -0.03,-0.89 0.07,-0.88 0.18,-0.87 0.28,-0.84 0.38,-0.80 0.47,-0.74 0.56,-0.68 0.64,-0.61 0.71,-0.53 0.77,-0.44 0.82,-0.34 0.85,-0.24 0.88,-0.13 0.88,-0.03 0.89,0.07 0.86,0.18 0.84,0.28 0.79,0.38 0.75,0.48 0.68,0.56 0.61,0.64 0.52,0.71 0.44,0.77 0.44,0.77 L 0.44,0.77 Z"/></g><g transform="translate(218.45530434622276 21.45586568167812) rotate(0 -6.071355370158358 12.142726353212026)" stroke="none"><path fill="#000000" d="M 0.54,0.67 Q 0.54,0.67 -0.11,1.22 -0.77,1.77 -1.10,2.23 -1.43,2.69 -2.02,3.33 -2.62,3.97 -3.27,4.72 -3.93,5.47 -4.64,6.21 -5.35,6.96 -6.05,7.78 -6.74,8.59 -7.30,9.44 -7.85,10.28 -8.36,11.18 -8.86,12.07 -9.35,12.99 -9.84,13.91 -10.15,14.80 -10.47,15.68 -10.56,16.43 -10.65,17.18 -10.82,17.85 -10.98,18.52 -11.00,19.56 -11.02,20.60 -10.72,21.20 -10.42,21.80 -9.90,22.35 -9.37,22.89 -8.59,22.89 -7.80,22.88 -6.69,22.90 -5.59,22.92 -4.94,22.56 -4.29,22.21 -3.94,21.80 -3.59,21.39 -3.33,20.90 -3.07,20.40 -2.97,19.79 -2.87,19.18 -2.80,18.49 -2.74,17.81 -2.71,17.14 -2.68,16.48 -3.77,14.64 -4.86,12.80 -5.01,12.64 -5.15,12.49 -5.24,12.30 -5.32,12.11 -5.35,11.90 -5.37,11.69 -5.32,11.48 -5.27,11.28 -5.16,11.10 -5.06,10.92 -4.89,10.79 -4.73,10.65 -4.54,10.58 -4.34,10.50 -4.13,10.49 -3.92,10.48 -3.72,10.54 -3.52,10.59 -3.35,10.71 -3.17,10.83 -3.05,11.00 -2.92,11.17 -2.86,11.37 -2.79,11.57 -2.79,11.78 -2.79,11.99 -2.86,12.19 -2.93,12.38 -3.06,12.55 -3.19,12.72 -3.36,12.83 -3.53,12.95 -3.74,13.00 -3.94,13.06 -4.15,13.05 -4.36,13.03 -4.55,12.96 -4.75,12.88 -4.91,12.74 -5.07,12.60 -5.17,12.42 -5.28,12.24 -5.32,12.04 -5.37,11.83 -5.34,11.62 -5.32,11.41 -5.23,11.22 -5.14,11.03 -5.00,10.88 -4.85,10.73 -4.66,10.63 -4.48,10.54 -4.27,10.50 -4.06,10.47 -3.86,10.51 -3.65,10.54 -3.46,10.64 -3.28,10.74 -3.28,10.74 -3.28,10.74 -2.03,12.77 -0.79,14.80 -0.49,15.63 -0.19,16.46 -0.21,17.24 -0.23,18.01 -0.29,18.82 -0.35,19.62 -0.53,20.62 -0.72,21.62 -1.14,22.39 -1.56,23.17 -2.16,23.83 -2.77,24.50 -3.47,24.91 -4.18,25.33 -4.89,25.47 -5.61,25.62 -6.26,25.60 -6.92,25.59 -7.48,25.55 -8.04,25.51 -8.77,25.44 -9.50,25.36 -10.62,24.67 -11.74,23.97 -12.14,23.43 -12.53,22.89 -12.74,22.38 -12.95,21.88 -13.05,21.19 -13.15,20.50 -13.08,19.82 -13.00,19.14 -12.86,18.55 -12.72,17.97 -12.49,17.42 -12.26,16.88 -12.07,16.03 -11.87,15.18 -11.50,14.20 -11.14,13.23 -10.66,12.29 -10.17,11.35 -9.67,10.41 -9.16,9.46 -8.59,8.51 -8.01,7.56 -7.33,6.67 -6.64,5.78 -6.00,5.04 -5.35,4.31 -4.70,3.46 -4.06,2.61 -3.49,2.02 -2.92,1.43 -2.41,0.90 -1.90,0.37 -1.22,-0.15 -0.54,-0.67 -0.45,-0.73 -0.36,-0.78 -0.26,-0.82 -0.16,-0.85 -0.06,-0.86 0.04,-0.86 0.14,-0.85 0.25,-0.83 0.34,-0.79 0.44,-0.74 0.52,-0.68 0.60,-0.62 0.67,-0.53 0.73,-0.45 0.78,-0.36 0.82,-0.26 0.84,-0.16 0.86,-0.06 0.86,0.04 0.85,0.14 0.82,0.24 0.79,0.34 0.74,0.43 0.69,0.52 0.61,0.60 0.54,0.67 0.54,0.67 L 0.54,0.67 Z"/></g><g transform="translate(228.26288801364495 18.186665921572285) rotate(0 -1.1675635364472896 13.543811964685958)" stroke="none"><path fill="#000000" d="M 0.90,0 Q 0.90,0 0.93,0.67 0.97,1.34 1.00,2.02 1.03,2.71 1.17,3.31 1.32,3.90 1.50,4.72 1.68,5.53 1.85,6.58 2.02,7.62 2.33,8.54 2.64,9.46 2.91,10.74 3.18,12.01 3.29,13.26 3.39,14.50 3.56,15.52 3.73,16.54 3.82,17.55 3.91,18.57 3.98,19.40 4.04,20.24 3.95,21.07 3.86,21.91 3.70,22.58 3.54,23.25 3.16,23.91 2.78,24.56 2.53,25.15 2.29,25.74 1.75,26.23 1.22,26.71 0.76,27.01 0.30,27.30 -0.72,27.76 -1.76,28.21 -4.11,27.92 -6.45,27.63 -6.57,27.45 -6.70,27.28 -6.76,27.08 -6.82,26.87 -6.81,26.66 -6.81,26.45 -6.73,26.25 -6.66,26.05 -6.53,25.88 -6.39,25.72 -6.21,25.60 -6.03,25.49 -5.83,25.44 -5.62,25.39 -5.41,25.41 -5.20,25.42 -5.00,25.51 -4.80,25.59 -4.65,25.74 -4.49,25.88 -4.38,26.06 -4.28,26.25 -4.24,26.46 -4.20,26.67 -4.23,26.88 -4.26,27.09 -4.36,27.28 -4.45,27.47 -4.60,27.62 -4.75,27.77 -4.94,27.86 -5.13,27.96 -5.35,27.99 -5.56,28.01 -5.76,27.97 -5.97,27.93 -6.16,27.83 -6.34,27.72 -6.49,27.56 -6.63,27.40 -6.71,27.21 -6.79,27.01 -6.81,26.80 -6.83,26.59 -6.78,26.38 -6.72,26.18 -6.61,26.00 -6.49,25.82 -6.33,25.68 -6.16,25.55 -5.96,25.48 -5.76,25.41 -5.55,25.40 -5.33,25.40 -5.13,25.46 -4.93,25.52 -4.76,25.65 -4.58,25.77 -4.58,25.77 -4.58,25.77 -3.41,25.71 -2.24,25.66 -1.57,25.43 -0.89,25.20 -0.24,24.95 0.41,24.71 1.04,23.68 1.67,22.64 1.88,22.13 2.09,21.63 2.24,20.96 2.39,20.30 2.39,19.49 2.39,18.69 2.32,17.74 2.25,16.80 2.04,15.73 1.84,14.66 1.70,13.53 1.57,12.39 1.26,11.23 0.96,10.07 0.55,9.05 0.14,8.02 -0.12,7.01 -0.38,6.01 -0.58,5.16 -0.78,4.31 -0.90,3.51 -1.03,2.72 -1.00,2.03 -0.97,1.34 -0.93,0.67 -0.90,0 -0.88,-0.10 -0.87,-0.21 -0.83,-0.31 -0.79,-0.41 -0.73,-0.50 -0.67,-0.59 -0.59,-0.66 -0.51,-0.74 -0.41,-0.79 -0.31,-0.84 -0.21,-0.86 -0.10,-0.89 0.00,-0.89 0.10,-0.89 0.21,-0.86 0.31,-0.84 0.41,-0.79 0.51,-0.74 0.59,-0.66 0.67,-0.59 0.73,-0.50 0.79,-0.41 0.83,-0.31 0.87,-0.21 0.88,-0.10 0.90,0.00 0.90,0.00 L 0.90,0 Z"/></g><g transform="translate(243.67481412696281 25.192093978941926) rotate(0 4.2032412215264685 0.4670285371579723)" stroke="none"><path fill="#000000" d="M 0.39,-1.19 Q 0.39,-1.19 1.19,-0.90 1.99,-0.61 2.52,-0.53 3.05,-0.45 3.65,-0.41 4.24,-0.38 6.22,-0.36 8.19,-0.35 8.40,-0.31 8.60,-0.28 8.79,-0.18 8.97,-0.08 9.11,0.06 9.25,0.21 9.34,0.40 9.43,0.59 9.45,0.80 9.47,1.00 9.42,1.21 9.38,1.41 9.27,1.59 9.16,1.76 9.00,1.90 8.85,2.03 8.65,2.11 8.46,2.18 8.25,2.19 8.04,2.20 7.84,2.15 7.64,2.09 7.47,1.97 7.30,1.86 7.18,1.69 7.05,1.52 6.99,1.33 6.92,1.13 6.92,0.92 6.92,0.71 6.99,0.52 7.06,0.32 7.18,0.16 7.31,-0.00 7.48,-0.11 7.66,-0.23 7.86,-0.28 8.06,-0.34 8.26,-0.33 8.47,-0.31 8.66,-0.24 8.86,-0.16 9.01,-0.02 9.17,0.10 9.28,0.28 9.38,0.46 9.43,0.66 9.47,0.86 9.45,1.07 9.42,1.28 9.34,1.47 9.25,1.65 9.10,1.80 8.96,1.95 8.78,2.05 8.59,2.15 8.39,2.18 8.18,2.21 8.18,2.21 8.18,2.21 6.12,2.16 4.06,2.11 3.33,2.04 2.60,1.98 1.91,1.83 1.22,1.68 0.41,1.44 -0.39,1.19 -0.53,1.13 -0.67,1.06 -0.79,0.97 -0.90,0.87 -1.00,0.75 -1.09,0.63 -1.15,0.49 -1.21,0.35 -1.23,0.20 -1.26,0.05 -1.24,-0.10 -1.23,-0.25 -1.18,-0.39 -1.13,-0.54 -1.05,-0.66 -0.97,-0.79 -0.86,-0.90 -0.75,-1.00 -0.62,-1.08 -0.49,-1.15 -0.34,-1.20 -0.20,-1.24 -0.05,-1.25 0.10,-1.25 0.24,-1.22 0.39,-1.19 0.39,-1.19 L 0.39,-1.19 Z"/></g><g transform="translate(237.60345875680446 34.53264910920609) rotate(0 8.873526593106192 -0.4670285371579723)" stroke="none"><path fill="#000000" d="M 0,-1.07 Q 0,-1.07 0.67,-1.09 1.34,-1.11 2.03,-1.12 2.71,-1.14 3.68,-1.10 4.64,-1.06 5.59,-1.04 6.53,-1.01 7.47,-1.00 8.41,-0.98 9.22,-0.99 10.02,-1.00 10.90,-1.00 11.77,-1.00 12.55,-1.01 13.33,-1.03 14.06,-1.04 14.79,-1.06 15.85,-1.36 16.91,-1.66 17.07,-1.76 17.22,-1.85 17.39,-1.89 17.56,-1.93 17.74,-1.91 17.92,-1.89 18.08,-1.81 18.24,-1.74 18.37,-1.62 18.50,-1.49 18.58,-1.34 18.66,-1.18 18.69,-1.01 18.72,-0.83 18.69,-0.66 18.67,-0.48 18.58,-0.32 18.50,-0.17 18.37,-0.04 18.24,0.07 18.08,0.14 17.92,0.22 17.74,0.24 17.57,0.26 17.39,0.22 17.22,0.18 17.07,0.09 16.92,0.00 16.80,-0.13 16.69,-0.26 16.62,-0.43 16.55,-0.59 16.54,-0.77 16.53,-0.95 16.58,-1.12 16.63,-1.29 16.73,-1.44 16.83,-1.58 16.97,-1.69 17.11,-1.80 17.28,-1.86 17.45,-1.91 17.62,-1.91 17.80,-1.91 17.97,-1.86 18.14,-1.80 18.28,-1.69 18.42,-1.59 18.52,-1.44 18.62,-1.29 18.67,-1.12 18.72,-0.95 18.71,-0.77 18.70,-0.59 18.63,-0.43 18.57,-0.26 18.45,-0.13 18.34,0.00 18.34,0.00 18.34,0.00 16.57,0.53 14.79,1.06 14.06,1.04 13.33,1.03 12.55,1.01 11.77,1.00 10.90,1.00 10.02,1.00 9.22,0.99 8.41,0.98 7.47,1.00 6.53,1.01 5.59,1.04 4.64,1.06 3.68,1.10 2.71,1.14 2.03,1.12 1.34,1.11 0.67,1.09 0,1.07 -0.12,1.05 -0.25,1.04 -0.37,0.99 -0.49,0.94 -0.60,0.87 -0.71,0.80 -0.79,0.70 -0.88,0.60 -0.94,0.49 -1.00,0.38 -1.03,0.25 -1.06,0.12 -1.06,-0.00 -1.06,-0.12 -1.03,-0.25 -1.00,-0.38 -0.94,-0.49 -0.88,-0.60 -0.79,-0.70 -0.71,-0.80 -0.60,-0.87 -0.49,-0.94 -0.37,-0.99 -0.25,-1.04 -0.12,-1.05 0.00,-1.07 0.00,-1.07 L 0,-1.07 Z"/></g><g transform="translate(260.4878414646499 19.58775153304623) rotate(0 5.13726707005182 11.675697816054054)" stroke="none"><path fill="#000000" d="M 0,-1.16 Q 0,-1.16 1.07,-1.09 2.14,-1.03 3.00,-1.02 3.86,-1.02 4.76,-1.01 5.67,-1.00 6.45,-1.01 7.24,-1.03 7.98,-1.04 8.71,-1.06 9.48,-0.88 10.25,-0.70 10.51,-0.23 10.78,0.22 10.35,1.26 9.92,2.30 9.31,2.97 8.71,3.64 8.04,4.29 7.36,4.95 6.78,5.42 6.20,5.90 5.72,6.83 5.24,7.77 4.97,8.61 4.71,9.45 5.60,9.97 6.49,10.49 7.50,10.94 8.50,11.38 9.06,11.63 9.61,11.88 10.21,12.11 10.80,12.35 11.30,12.71 11.79,13.08 12.08,13.53 12.37,13.97 12.44,14.75 12.51,15.52 12.15,16.21 11.79,16.90 11.44,17.37 11.10,17.84 10.54,18.33 9.99,18.82 9.35,19.26 8.71,19.69 8.08,20.19 7.45,20.69 6.65,21.14 5.84,21.59 5.16,21.98 4.48,22.38 3.81,22.63 3.14,22.87 1.28,23.75 -0.57,24.64 -0.78,24.62 -1.00,24.61 -1.19,24.53 -1.39,24.44 -1.55,24.30 -1.71,24.16 -1.82,23.98 -1.93,23.80 -1.97,23.59 -2.01,23.38 -1.99,23.17 -1.96,22.95 -1.87,22.76 -1.78,22.57 -1.63,22.42 -1.48,22.26 -1.29,22.17 -1.10,22.07 -0.89,22.04 -0.68,22.01 -0.47,22.04 -0.26,22.08 -0.07,22.18 0.11,22.29 0.25,22.44 0.40,22.60 0.48,22.79 0.57,22.99 0.59,23.20 0.61,23.41 0.56,23.62 0.51,23.83 0.40,24.01 0.29,24.19 0.12,24.33 -0.03,24.46 -0.23,24.54 -0.43,24.61 -0.64,24.62 -0.86,24.63 -1.06,24.57 -1.26,24.51 -1.44,24.39 -1.61,24.27 -1.74,24.10 -1.87,23.93 -1.93,23.72 -2.00,23.52 -2.00,23.31 -1.99,23.09 -1.92,22.89 -1.85,22.69 -1.72,22.52 -1.59,22.36 -1.41,22.24 -1.23,22.12 -1.03,22.07 -0.82,22.01 -0.82,22.01 -0.82,22.01 1.17,21.12 3.16,20.23 3.86,19.77 4.56,19.31 5.12,18.99 5.67,18.68 6.35,18.01 7.02,17.35 7.85,16.72 8.68,16.09 9.22,15.53 9.75,14.97 9.10,14.74 8.44,14.51 7.95,14.29 7.46,14.07 6.32,13.57 5.18,13.08 4.71,12.83 4.23,12.58 3.52,12.12 2.81,11.66 2.54,11.19 2.26,10.72 2.16,10.10 2.05,9.49 2.37,8.66 2.68,7.83 2.88,7.20 3.08,6.58 3.40,6.05 3.72,5.51 4.22,4.79 4.72,4.07 5.21,3.72 5.70,3.36 6.29,2.69 6.88,2.02 7.80,1.54 8.71,1.06 7.98,1.04 7.24,1.03 6.45,1.01 5.67,1.00 4.76,1.01 3.86,1.02 3.00,1.02 2.14,1.03 1.07,1.09 0,1.16 -0.13,1.14 -0.27,1.13 -0.41,1.08 -0.54,1.03 -0.65,0.95 -0.77,0.87 -0.86,0.76 -0.95,0.66 -1.02,0.53 -1.08,0.41 -1.12,0.27 -1.15,0.14 -1.15,-0.00 -1.15,-0.14 -1.12,-0.27 -1.08,-0.41 -1.02,-0.53 -0.95,-0.66 -0.86,-0.76 -0.77,-0.87 -0.65,-0.95 -0.54,-1.03 -0.40,-1.08 -0.27,-1.13 -0.13,-1.14 0.00,-1.16 0.00,-1.16 L 0,-1.16 Z"/></g></svg>