<svg version="1.1" xmlns="http://www.w3.org/2000/svg" viewBox="0 0 163.58368640993132 141.088249674626" width="163.58368640993132" height="141.088249674626">
  <!-- svg-source:excalidraw -->
  
  <defs>
    <style class="style-fonts">
      @font-face {
        font-family: "Virgil";
        src: url("https://excalidraw.com/Virgil.woff2");
      }
      @font-face {
        font-family: "Cascadia";
        src: url("https://excalidraw.com/Cascadia.woff2");
      }
    </style>
  </defs>
  <rect x="0" y="0" width="163.58368640993132" height="141.088249674626" fill="#ffffff"/><g stroke-linecap="round"><g transform="translate(10 74.71236671233021) rotate(0 34.94569885624338 0)"><path d="M0 0 C11.65 0, 58.24 0, 69.89 0 M0 0 C11.65 0, 58.24 0, 69.89 0" stroke="#000000" stroke-width="0.5" fill="none"/></g></g><mask/><g stroke-linecap="round"><g transform="translate(46.343518502964116 91.02038374220353) rotate(0 31.68409804637156 0)"><path d="M0 0 C10.56 0, 52.81 0, 63.37 0 M0 0 C10.56 0, 52.81 0, 63.37 0" stroke="#000000" stroke-width="0.5" fill="none"/></g></g><mask/><g stroke-linecap="round"><g transform="translate(60.78774138917208 104.06676102066257) rotate(0 42.63375883526376 0.4659485359163398)"><path d="M0 0 C14.21 0.16, 71.06 0.78, 85.27 0.93 M0 0 C14.21 0.16, 71.06 0.78, 85.27 0.93" stroke="#000000" stroke-width="0.5" fill="none"/></g></g><mask/><g stroke-linecap="round"><g transform="translate(70.64588545795709 118.18287115927563) rotate(0 41.46890047598711 0.23297426795815568)"><path d="M0 0 C13.82 0.08, 69.11 0.39, 82.94 0.47 M0 0 C13.82 0.08, 69.11 0.39, 82.94 0.47" stroke="#000000" stroke-width="0.5" fill="none"/></g></g><mask/><g transform="translate(21.6485576317383 36.505080026729104) rotate(0 0.00004999999998744897 0.00004999999998744897)" stroke="none"><path fill="#000000" d="M 0.78,-0.78 Q 0.78,-0.78 0.88,-0.63 0.99,-0.49 1.04,-0.32 1.10,-0.14 1.09,0.02 1.09,0.20 1.02,0.37 0.96,0.54 0.85,0.68 0.74,0.82 0.59,0.92 0.43,1.02 0.26,1.06 0.09,1.10 -0.08,1.09 -0.26,1.07 -0.43,1.00 -0.59,0.93 -0.73,0.81 -0.86,0.69 -0.95,0.53 -1.04,0.38 -1.07,0.20 -1.10,0.02 -1.08,-0.14 -1.06,-0.32 -0.98,-0.48 -0.90,-0.64 -0.77,-0.77 -0.64,-0.90 -0.48,-0.98 -0.32,-1.06 -0.14,-1.08 0.03,-1.10 0.20,-1.07 0.38,-1.04 0.53,-0.95 0.69,-0.86 0.81,-0.73 0.93,-0.59 1.00,-0.43 1.07,-0.26 1.09,-0.08 1.10,0.09 1.06,0.26 1.01,0.43 0.92,0.59 0.82,0.74 0.68,0.85 0.54,0.96 0.37,1.02 0.20,1.09 0.02,1.09 -0.15,1.10 -0.32,1.04 -0.49,0.99 -0.63,0.88 -0.78,0.78 -0.78,0.78 -0.78,0.78 -0.86,0.67 -0.95,0.57 -1.00,0.45 -1.06,0.33 -1.08,0.19 -1.10,0.06 -1.10,-0.06 -1.09,-0.20 -1.05,-0.32 -1.01,-0.45 -0.94,-0.57 -0.87,-0.68 -0.77,-0.77 -0.68,-0.87 -0.57,-0.94 -0.45,-1.01 -0.32,-1.05 -0.20,-1.09 -0.06,-1.10 0.06,-1.10 0.19,-1.08 0.33,-1.06 0.45,-1.00 0.57,-0.95 0.67,-0.86 0.78,-0.78 0.78,-0.78 L 0.78,-0.78 Z"/></g><g transform="translate(78.02762952984972 33.70942775277359) rotate(0 0.00004999999998744897 0.00004999999998744897)" stroke="none"><path fill="#000000" d="M 0.78,-0.78 Q 0.78,-0.78 0.88,-0.63 0.99,-0.49 1.04,-0.32 1.10,-0.14 1.09,0.02 1.09,0.20 1.02,0.37 0.96,0.54 0.85,0.68 0.74,0.82 0.59,0.92 0.43,1.02 0.26,1.06 0.09,1.10 -0.08,1.09 -0.26,1.07 -0.43,1.00 -0.59,0.93 -0.73,0.81 -0.86,0.69 -0.95,0.53 -1.04,0.38 -1.07,0.20 -1.10,0.02 -1.08,-0.14 -1.06,-0.32 -0.98,-0.48 -0.90,-0.64 -0.77,-0.77 -0.64,-0.90 -0.48,-0.98 -0.32,-1.06 -0.14,-1.08 0.03,-1.10 0.20,-1.07 0.38,-1.04 0.53,-0.95 0.69,-0.86 0.81,-0.73 0.93,-0.59 1.00,-0.43 1.07,-0.26 1.09,-0.08 1.10,0.09 1.06,0.26 1.01,0.43 0.92,0.59 0.82,0.74 0.68,0.85 0.54,0.96 0.37,1.02 0.20,1.09 0.02,1.09 -0.15,1.10 -0.32,1.04 -0.49,0.99 -0.63,0.88 -0.78,0.78 -0.78,0.78 -0.78,0.78 -0.86,0.67 -0.95,0.57 -1.00,0.45 -1.06,0.33 -1.08,0.19 -1.10,0.06 -1.10,-0.06 -1.09,-0.20 -1.05,-0.32 -1.01,-0.45 -0.94,-0.57 -0.87,-0.68 -0.77,-0.77 -0.68,-0.87 -0.57,-0.94 -0.45,-1.01 -0.32,-1.05 -0.20,-1.09 -0.06,-1.10 0.06,-1.10 0.19,-1.08 0.33,-1.06 0.45,-1.00 0.57,-0.95 0.67,-0.86 0.78,-0.78 0.78,-0.78 L 0.78,-0.78 Z"/></g><g transform="translate(106.45012676634951 35.10724739949427) rotate(0 0.00004999999998744897 0.00004999999998744897)" stroke="none"><path fill="#000000" d="M 0.78,-0.78 Q 0.78,-0.78 0.88,-0.63 0.99,-0.49 1.04,-0.32 1.10,-0.14 1.09,0.02 1.09,0.20 1.02,0.37 0.96,0.54 0.85,0.68 0.74,0.82 0.59,0.92 0.43,1.02 0.26,1.06 0.09,1.10 -0.08,1.09 -0.26,1.07 -0.43,1.00 -0.59,0.93 -0.73,0.81 -0.86,0.69 -0.95,0.53 -1.04,0.38 -1.07,0.20 -1.10,0.02 -1.08,-0.14 -1.06,-0.32 -0.98,-0.48 -0.90,-0.64 -0.77,-0.77 -0.64,-0.90 -0.48,-0.98 -0.32,-1.06 -0.14,-1.08 0.03,-1.10 0.20,-1.07 0.38,-1.04 0.53,-0.95 0.69,-0.86 0.81,-0.73 0.93,-0.59 1.00,-0.43 1.07,-0.26 1.09,-0.08 1.10,0.09 1.06,0.26 1.01,0.43 0.92,0.59 0.82,0.74 0.68,0.85 0.54,0.96 0.37,1.02 0.20,1.09 0.02,1.09 -0.15,1.10 -0.32,1.04 -0.49,0.99 -0.63,0.88 -0.78,0.78 -0.78,0.78 -0.78,0.78 -0.86,0.67 -0.95,0.57 -1.00,0.45 -1.06,0.33 -1.08,0.19 -1.10,0.06 -1.10,-0.06 -1.09,-0.20 -1.05,-0.32 -1.01,-0.45 -0.94,-0.57 -0.87,-0.68 -0.77,-0.77 -0.68,-0.87 -0.57,-0.94 -0.45,-1.01 -0.32,-1.05 -0.20,-1.09 -0.06,-1.10 0.06,-1.10 0.19,-1.08 0.33,-1.06 0.45,-1.00 0.57,-0.95 0.67,-0.86 0.78,-0.78 0.78,-0.78 L 0.78,-0.78 Z"/></g><g transform="translate(146.0552590596996 36.03914447132689) rotate(0 0.00004999999998744897 0.00004999999998744897)" stroke="none"><path fill="#000000" d="M 0.78,-0.78 Q 0.78,-0.78 0.88,-0.63 0.99,-0.49 1.04,-0.32 1.10,-0.14 1.09,0.02 1.09,0.20 1.02,0.37 0.96,0.54 0.85,0.68 0.74,0.82 0.59,0.92 0.43,1.02 0.26,1.06 0.09,1.10 -0.08,1.09 -0.26,1.07 -0.43,1.00 -0.59,0.93 -0.73,0.81 -0.86,0.69 -0.95,0.53 -1.04,0.38 -1.07,0.20 -1.10,0.02 -1.08,-0.14 -1.06,-0.32 -0.98,-0.48 -0.90,-0.64 -0.77,-0.77 -0.64,-0.90 -0.48,-0.98 -0.32,-1.06 -0.14,-1.08 0.03,-1.10 0.20,-1.07 0.38,-1.04 0.53,-0.95 0.69,-0.86 0.81,-0.73 0.93,-0.59 1.00,-0.43 1.07,-0.26 1.09,-0.08 1.10,0.09 1.06,0.26 1.01,0.43 0.92,0.59 0.82,0.74 0.68,0.85 0.54,0.96 0.37,1.02 0.20,1.09 0.02,1.09 -0.15,1.10 -0.32,1.04 -0.49,0.99 -0.63,0.88 -0.78,0.78 -0.78,0.78 -0.78,0.78 -0.86,0.67 -0.95,0.57 -1.00,0.45 -1.06,0.33 -1.08,0.19 -1.10,0.06 -1.10,-0.06 -1.09,-0.20 -1.05,-0.32 -1.01,-0.45 -0.94,-0.57 -0.87,-0.68 -0.77,-0.77 -0.68,-0.87 -0.57,-0.94 -0.45,-1.01 -0.32,-1.05 -0.20,-1.09 -0.06,-1.10 0.06,-1.10 0.19,-1.08 0.33,-1.06 0.45,-1.00 0.57,-0.95 0.67,-0.86 0.78,-0.78 0.78,-0.78 L 0.78,-0.78 Z"/></g><g stroke-linecap="round"><g transform="translate(18.7131362539443 36.592966651660845) rotate(0 29.52977251693312 -13.288401745912097)"><path d="M0 0 C4.48 -4.43, 17.06 -25.92, 26.9 -26.58 C36.75 -27.23, 53.7 -7.71, 59.06 -3.94 M0 0 C4.48 -4.43, 17.06 -25.92, 26.9 -26.58 C36.75 -27.23, 53.7 -7.71, 59.06 -3.94" stroke="#000000" stroke-width="0.5" fill="none"/></g></g><mask/><g stroke-linecap="round"><g transform="translate(106.64623745020288 33.63998848590262) rotate(0 19.522479965672915 -10.663527187099646)"><path d="M0 0 C2.62 -3.83, 9.24 -23.24, 15.75 -22.97 C22.26 -22.69, 35.16 -2.46, 39.04 1.64 M0 0 C2.62 -3.83, 9.24 -23.24, 15.75 -22.97 C22.26 -22.69, 35.16 -2.46, 39.04 1.64" stroke="#000000" stroke-width="0.5" fill="none"/></g></g><mask/><g stroke-linecap="round"><g transform="translate(77.44456854021541 32.655650243117464) rotate(0 14.108665333601124 -8.366765375882125)"><path d="M0 0 C2.13 -3.17, 8.09 -19.41, 12.8 -19.03 C17.5 -18.65, 25.65 -1.26, 28.22 2.3 M0 0 C2.13 -3.17, 8.09 -19.41, 12.8 -19.03 C17.5 -18.65, 25.65 -1.26, 28.22 2.3" stroke="#000000" stroke-width="0.5" fill="none"/></g></g><mask/><g stroke-linecap="round"><g transform="translate(21.009907205811146 34.29619569979394) rotate(0 61.68441959267875 0.49215998074328127)"><path d="M0 0 C9.73 0, 37.84 -0.16, 58.4 0 C78.96 0.16, 112.54 0.82, 123.37 0.98 M0 0 C9.73 0, 37.84 -0.16, 58.4 0 C78.96 0.16, 112.54 0.82, 123.37 0.98" stroke="#000000" stroke-width="0.5" fill="none"/></g></g><mask/><g stroke-linecap="round"><g transform="translate(75.14781586964739 61.52922468680839) rotate(0 0.4921599807432244 34.77951249390881)"><path d="M0 0 C0.16 11.59, 0.82 57.97, 0.98 69.56 M0 0 C0.16 11.59, 0.82 57.97, 0.98 69.56" stroke="#000000" stroke-width="0.5" fill="none"/></g></g><mask/></svg>