<svg version="1.1" xmlns="http://www.w3.org/2000/svg" viewBox="0 0 281.117747943641 148.50412222055292" width="281.117747943641" height="148.50412222055292">
  <!-- svg-source:excalidraw -->
  
  <defs>
    <style class="style-fonts">
      @font-face {
        font-family: "Virgil";
        src: url("https://excalidraw.com/Virgil.woff2");
      }
      @font-face {
        font-family: "Cascadia";
        src: url("https://excalidraw.com/Cascadia.woff2");
      }
    </style>
  </defs>
  <rect x="0" y="0" width="281.117747943641" height="148.50412222055292" fill="#ffffff"/><g transform="translate(64.19352900572818 80.92306283804089) rotate(0 45.29245229867789 21.768446702223542)" stroke="none"><path fill="#000000" d="M 0.58,-0.58 Q 0.58,-0.58 1.02,-0.20 1.47,0.16 1.94,1.05 2.40,1.95 2.75,3.16 3.10,4.37 3.24,5.75 3.38,7.12 3.63,8.87 3.87,10.62 3.97,12.00 4.07,13.38 4.11,15.39 4.15,17.40 4.36,19.43 4.58,21.46 4.67,23.56 4.76,25.67 4.79,27.78 4.83,29.89 4.84,31.79 4.86,33.69 4.66,35.16 4.46,36.62 4.37,38.20 4.29,39.78 4.26,41.26 4.22,42.75 4.21,44.18 4.19,45.62 4.19,46.64 4.20,47.65 4.20,48.69 4.20,49.72 4.20,50.77 4.19,51.82 4.23,52.66 4.27,53.51 4.77,53.91 5.28,54.31 6.10,54.27 6.93,54.24 7.76,54.26 8.59,54.28 9.95,54.35 11.32,54.42 12.71,54.48 14.09,54.53 15.90,54.57 17.70,54.60 19.67,54.63 21.65,54.66 23.70,54.68 25.75,54.70 28.27,54.92 30.79,55.14 33.04,55.23 35.29,55.33 38.26,55.37 41.24,55.42 44.12,55.44 47.00,55.46 49.66,55.68 52.32,55.89 55.25,55.98 58.17,56.07 61.03,56.11 63.88,56.15 66.51,56.17 69.14,56.19 71.27,56.19 73.39,56.20 75.51,56.20 77.62,56.21 79.33,56.21 81.04,56.21 82.57,56.21 84.10,56.21 85.56,56.21 87.02,56.22 88.04,56.21 89.07,56.20 89.91,56.16 90.74,56.12 91.50,56.07 92.26,56.03 92.87,56.01 93.48,55.99 93.62,56.13 93.76,56.26 93.88,56.27 94.01,56.29 94.12,56.33 94.24,56.37 94.34,56.44 94.44,56.51 94.52,56.61 94.60,56.70 94.66,56.81 94.72,56.92 94.74,57.04 94.77,57.15 94.77,57.28 94.77,57.40 94.74,57.52 94.72,57.64 94.66,57.75 94.60,57.86 94.52,57.95 94.44,58.04 94.34,58.11 94.24,58.18 94.12,58.22 94.01,58.27 93.88,58.28 93.76,58.30 93.36,57.32 92.97,56.35 92.96,55.40 92.95,54.44 92.98,53.53 93.02,52.61 93.06,51.62 93.10,50.62 93.13,49.59 93.17,48.56 93.21,47.32 93.24,46.07 93.27,44.74 93.29,43.40 93.31,42.03 93.33,40.65 93.15,39.10 92.96,37.55 92.88,36.04 92.81,34.53 92.78,33.08 92.75,31.63 92.54,30.26 92.33,28.88 92.24,27.44 92.15,26.00 92.11,24.78 92.07,23.57 92.06,22.04 92.04,20.51 92.04,19.25 92.03,18.00 92.03,16.66 92.03,15.32 92.03,14.14 92.03,12.97 92.03,11.86 92.03,10.76 92.03,9.68 92.03,8.61 92.03,7.54 92.03,6.48 91.99,5.63 91.95,4.77 91.89,4.21 91.83,3.64 91.81,2.79 91.79,1.95 91.75,1.39 91.70,0.82 91.67,0.18 91.64,-0.45 91.57,-1.33 91.50,-2.21 91.45,-2.94 91.40,-3.68 91.07,-4.83 90.74,-5.99 90.35,-6.49 89.97,-6.99 89.67,-7.54 89.38,-8.09 88.94,-8.55 88.50,-9.00 88.01,-9.37 87.51,-9.73 86.78,-10.02 86.06,-10.30 85.31,-10.58 84.56,-10.86 83.26,-11.23 81.96,-11.60 81.10,-11.97 80.24,-12.33 79.39,-12.49 78.54,-12.66 77.76,-12.73 76.97,-12.79 75.84,-12.88 74.71,-12.97 73.62,-13.03 72.53,-13.09 71.26,-13.13 69.99,-13.17 68.64,-13.20 67.29,-13.23 65.91,-13.25 64.53,-13.27 63.14,-13.29 61.74,-13.30 60.14,-13.31 58.54,-13.33 57.25,-13.33 55.97,-13.34 54.41,-13.35 52.85,-13.35 51.39,-13.36 49.92,-13.36 48.28,-13.36 46.65,-13.37 45.15,-13.37 43.65,-13.37 42.00,-13.37 40.35,-13.37 38.44,-13.38 36.53,-13.38 34.95,-13.18 33.37,-12.98 31.48,-12.69 29.59,-12.41 28.15,-12.28 26.72,-12.16 24.92,-11.91 23.13,-11.66 21.73,-11.55 20.34,-11.44 18.77,-11.19 17.20,-10.95 15.69,-10.84 14.17,-10.73 12.98,-10.49 11.78,-10.25 10.46,-9.94 9.13,-9.64 8.14,-9.48 7.14,-9.33 6.09,-9.27 5.05,-9.20 4.00,-9.18 2.95,-9.16 2.31,-9.09 1.67,-9.02 1.11,-8.79 0.56,-8.57 0.02,-8.42 -0.50,-8.27 -1.15,-8.20 -1.81,-8.13 -1.71,-7.35 -1.61,-6.57 -1.19,-6.09 -0.77,-5.60 -0.16,-4.43 0.43,-3.27 0.65,-2.71 0.88,-2.16 1.16,-1.51 1.44,-0.86 1.95,0.31 2.45,1.49 2.99,2.11 3.53,2.72 3.87,3.14 4.21,3.56 4.28,3.71 4.35,3.87 4.38,4.03 4.41,4.20 4.40,4.37 4.39,4.54 4.34,4.70 4.29,4.86 4.21,5.01 4.12,5.15 4.00,5.27 3.88,5.39 3.74,5.48 3.59,5.57 3.43,5.62 3.27,5.67 3.10,5.68 2.93,5.69 2.76,5.66 2.60,5.63 2.44,5.56 2.29,5.49 2.15,5.39 2.02,5.29 1.92,5.15 1.81,5.02 1.05,3.77 0.29,2.51 0.20,2.34 0.12,2.16 0.10,1.97 0.07,1.77 0.11,1.58 0.15,1.39 0.25,1.22 0.34,1.05 0.49,0.93 0.64,0.80 0.82,0.72 1.00,0.65 1.19,0.63 1.39,0.62 1.58,0.67 1.77,0.72 1.93,0.82 2.09,0.93 2.21,1.08 2.33,1.24 2.40,1.42 2.46,1.61 2.47,1.80 2.47,2.00 2.41,2.18 2.35,2.37 2.24,2.52 2.12,2.68 1.96,2.79 1.80,2.91 1.61,2.96 1.43,3.02 1.23,3.01 1.04,3.00 0.85,2.93 0.67,2.86 0.52,2.74 0.37,2.62 0.27,2.45 0.16,2.28 0.12,2.09 0.07,1.90 0.09,1.71 0.11,1.52 0.19,1.34 0.27,1.16 0.40,1.02 0.53,0.87 0.70,0.78 0.87,0.68 1.07,0.65 1.26,0.61 1.45,0.64 1.64,0.67 1.82,0.76 1.99,0.85 2.13,0.99 2.26,1.13 2.26,1.13 2.26,1.13 3.24,2.34 4.21,3.56 4.28,3.71 4.35,3.87 4.38,4.03 4.41,4.20 4.40,4.37 4.39,4.54 4.34,4.70 4.29,4.86 4.21,5.01 4.12,5.15 4.00,5.27 3.88,5.39 3.74,5.48 3.59,5.57 3.43,5.62 3.27,5.67 3.10,5.68 2.93,5.69 2.76,5.66 2.60,5.63 2.44,5.56 2.29,5.49 2.15,5.39 2.02,5.29 1.92,5.15 1.81,5.02 1.27,4.21 0.73,3.40 0.25,2.40 -0.21,1.41 -0.59,0.83 -0.97,0.26 -1.31,-0.43 -1.65,-1.13 -1.95,-1.86 -2.25,-2.59 -2.58,-3.27 -2.91,-3.95 -3.26,-4.45 -3.60,-4.94 -3.88,-6.01 -4.15,-7.09 -4.21,-7.73 -4.26,-8.38 -3.81,-9.04 -3.37,-9.71 -2.68,-9.97 -1.99,-10.23 -0.97,-10.26 0.03,-10.29 0.83,-10.47 1.63,-10.66 2.27,-10.61 2.92,-10.56 3.95,-10.59 4.97,-10.61 5.96,-10.66 6.95,-10.71 7.90,-10.81 8.84,-10.92 10.18,-11.23 11.53,-11.54 12.80,-11.79 14.08,-12.04 15.54,-12.14 17.00,-12.25 18.62,-12.50 20.23,-12.75 21.59,-12.85 22.95,-12.96 24.78,-13.22 26.60,-13.47 28.00,-13.59 29.39,-13.71 31.30,-14.00 33.21,-14.29 34.87,-14.50 36.53,-14.70 38.44,-14.70 40.35,-14.70 42.00,-14.71 43.65,-14.71 45.15,-14.71 46.65,-14.71 48.28,-14.71 49.92,-14.72 51.39,-14.72 52.85,-14.73 54.41,-14.73 55.97,-14.74 57.25,-14.74 58.54,-14.75 60.14,-14.76 61.74,-14.77 63.14,-14.79 64.53,-14.80 65.91,-14.82 67.30,-14.84 68.65,-14.87 70.00,-14.89 71.27,-14.93 72.55,-14.96 73.65,-15.00 74.76,-15.04 75.94,-15.08 77.13,-15.12 77.99,-15.08 78.85,-15.03 79.97,-14.94 81.09,-14.85 82.02,-14.60 82.95,-14.36 83.49,-14.17 84.04,-13.99 84.85,-13.87 85.66,-13.75 86.54,-13.52 87.42,-13.29 88.23,-12.79 89.05,-12.29 89.54,-12.04 90.03,-11.80 90.75,-11.02 91.46,-10.24 92.00,-9.39 92.54,-8.54 92.92,-8.01 93.31,-7.47 93.39,-6.60 93.48,-5.74 93.73,-4.71 93.98,-3.68 93.92,-2.94 93.87,-2.21 93.80,-1.33 93.73,-0.45 93.70,0.18 93.67,0.82 93.63,1.39 93.58,1.95 93.56,2.79 93.54,3.64 93.48,4.21 93.43,4.77 93.39,5.63 93.34,6.48 93.35,7.54 93.35,8.61 93.35,9.68 93.35,10.76 93.35,11.86 93.35,12.97 93.35,14.14 93.35,15.32 93.36,16.65 93.36,17.99 93.37,19.24 93.38,20.49 93.40,22.01 93.42,23.52 93.46,24.72 93.50,25.91 93.59,27.29 93.68,28.67 93.91,30.13 94.14,31.60 94.18,33.02 94.22,34.45 94.32,35.91 94.41,37.37 94.63,39.01 94.85,40.65 94.87,42.03 94.89,43.40 94.91,44.74 94.94,46.08 94.97,47.32 95.01,48.57 95.04,49.60 95.08,50.63 95.11,51.63 95.14,52.63 95.16,53.56 95.18,54.50 95.06,55.71 94.93,56.93 94.35,56.59 93.76,56.26 93.88,56.27 94.01,56.29 94.12,56.33 94.24,56.37 94.34,56.44 94.44,56.51 94.52,56.61 94.60,56.70 94.66,56.81 94.72,56.92 94.74,57.04 94.77,57.15 94.77,57.28 94.77,57.40 94.74,57.52 94.72,57.64 94.66,57.75 94.60,57.86 94.52,57.95 94.44,58.04 94.34,58.11 94.24,58.18 94.12,58.22 94.01,58.27 93.88,58.28 93.76,58.30 93.01,58.01 92.26,57.72 91.50,57.67 90.74,57.63 89.91,57.59 89.07,57.55 88.04,57.54 87.02,57.53 85.56,57.53 84.10,57.53 82.57,57.53 81.03,57.53 79.33,57.53 77.62,57.53 75.50,57.53 73.39,57.53 71.26,57.52 69.13,57.52 66.50,57.50 63.87,57.49 61.00,57.45 58.13,57.42 55.17,57.33 52.22,57.24 49.60,57.04 46.99,56.84 44.11,56.83 41.22,56.82 38.23,56.79 35.24,56.76 32.95,56.68 30.67,56.61 28.21,56.42 25.75,56.24 23.70,56.26 21.65,56.28 19.67,56.31 17.70,56.33 15.89,56.37 14.09,56.41 12.71,56.46 11.32,56.51 9.95,56.58 8.58,56.65 7.74,56.66 6.89,56.68 5.94,56.59 4.99,56.50 4.11,56.14 3.23,55.77 2.96,55.27 2.68,54.77 2.71,54.14 2.74,53.51 2.78,52.66 2.82,51.81 2.82,50.77 2.82,49.72 2.83,48.68 2.83,47.64 2.85,46.63 2.87,45.61 2.88,44.16 2.90,42.72 2.93,41.21 2.96,39.71 3.05,38.07 3.13,36.44 3.32,35.07 3.51,33.70 3.49,31.81 3.47,29.91 3.43,27.82 3.38,25.73 3.28,23.67 3.18,21.61 2.95,19.52 2.72,17.44 2.66,15.47 2.60,13.50 2.48,12.18 2.35,10.85 2.06,9.08 1.77,7.31 1.61,6.10 1.44,4.89 1.07,3.83 0.70,2.77 0.42,2.10 0.14,1.44 -0.22,1.01 -0.58,0.58 -0.64,0.50 -0.70,0.42 -0.74,0.33 -0.79,0.24 -0.80,0.14 -0.82,0.04 -0.82,-0.04 -0.81,-0.14 -0.78,-0.24 -0.75,-0.33 -0.70,-0.42 -0.65,-0.51 -0.58,-0.58 -0.51,-0.65 -0.42,-0.70 -0.33,-0.75 -0.24,-0.78 -0.14,-0.81 -0.04,-0.82 0.05,-0.82 0.14,-0.80 0.24,-0.79 0.33,-0.74 0.42,-0.70 0.50,-0.64 0.58,-0.58 0.58,-0.58 L 0.58,-0.58 Z"/></g><g transform="translate(65.59794795104068 134.2909123347356) rotate(0 53.01673302283652 -35.81263615534857)" stroke="none"><path fill="#000000" d="M 0,-0.81 Q 0,-0.81 0.58,-0.86 1.17,-0.90 1.86,-1.26 2.55,-1.62 3.73,-2.16 4.91,-2.70 6.45,-3.34 7.99,-3.97 9.40,-4.81 10.81,-5.65 12.44,-6.62 14.07,-7.59 15.78,-8.61 17.48,-9.62 19.19,-10.84 20.91,-12.06 22.65,-13.39 24.39,-14.71 26.35,-16.09 28.32,-17.47 30.15,-18.86 31.98,-20.24 33.75,-21.82 35.53,-23.41 37.54,-24.72 39.55,-26.04 41.37,-27.57 43.18,-29.10 45.00,-30.38 46.82,-31.67 48.36,-32.99 49.91,-34.32 51.81,-35.71 53.71,-37.11 55.12,-38.10 56.53,-39.10 58.12,-40.32 59.72,-41.54 61.19,-42.85 62.66,-44.16 63.89,-45.33 65.12,-46.49 66.28,-47.41 67.43,-48.33 68.53,-49.13 69.63,-49.92 70.67,-50.84 71.71,-51.76 72.99,-52.78 74.26,-53.79 75.16,-54.79 76.07,-55.79 76.68,-56.32 77.30,-56.84 77.92,-57.43 78.53,-58.01 79.25,-58.52 79.96,-59.04 80.50,-59.30 81.03,-59.56 81.75,-60.31 82.48,-61.06 83.30,-61.59 84.11,-62.13 84.81,-62.73 85.51,-63.33 86.33,-63.72 87.15,-64.11 87.94,-64.50 88.72,-64.90 89.78,-65.28 90.84,-65.66 91.90,-66.00 92.96,-66.34 96.60,-68.06 100.23,-69.78 101.80,-70.51 103.37,-71.24 103.50,-71.27 103.62,-71.31 103.76,-71.31 103.89,-71.30 104.01,-71.26 104.13,-71.21 104.24,-71.13 104.34,-71.04 104.41,-70.93 104.48,-70.82 104.51,-70.69 104.54,-70.56 104.53,-70.43 104.52,-70.30 104.46,-70.18 104.41,-70.06 104.32,-69.96 104.23,-69.87 104.12,-69.80 104.00,-69.74 103.87,-69.71 103.74,-69.69 103.61,-69.71 103.48,-69.73 103.36,-69.79 103.25,-69.85 103.15,-69.94 103.06,-70.04 103.00,-70.15 102.95,-70.27 102.93,-70.40 102.91,-70.53 102.94,-70.66 102.97,-70.79 103.03,-70.91 103.10,-71.02 103.20,-71.11 103.30,-71.19 103.42,-71.25 103.54,-71.30 103.67,-71.31 103.80,-71.32 103.93,-71.28 104.06,-71.25 104.17,-71.18 104.28,-71.11 104.36,-71.00 104.44,-70.90 104.48,-70.77 104.53,-70.65 104.53,-70.52 104.53,-70.39 104.49,-70.26 104.45,-70.14 104.38,-70.03 104.30,-69.92 104.19,-69.85 104.08,-69.77 104.08,-69.77 104.08,-69.77 102.54,-68.99 100.99,-68.21 97.31,-66.38 93.62,-64.55 92.65,-64.14 91.67,-63.72 90.79,-63.28 89.92,-62.83 88.65,-62.20 87.38,-61.56 86.79,-60.92 86.20,-60.28 85.20,-59.77 84.20,-59.25 83.61,-59.12 83.02,-58.98 81.97,-58.28 80.92,-57.58 80.26,-57.19 79.61,-56.80 78.91,-56.20 78.21,-55.61 77.62,-55.26 77.03,-54.90 76.06,-53.84 75.08,-52.77 73.83,-51.77 72.58,-50.78 71.49,-49.82 70.40,-48.86 69.32,-48.08 68.25,-47.30 67.14,-46.42 66.03,-45.54 64.78,-44.36 63.54,-43.18 62.03,-41.84 60.52,-40.49 58.90,-39.26 57.28,-38.02 55.89,-37.03 54.49,-36.05 52.63,-34.68 50.77,-33.32 49.17,-31.95 47.58,-30.59 45.81,-29.34 44.04,-28.09 42.16,-26.50 40.28,-24.92 38.34,-23.67 36.41,-22.41 34.60,-20.79 32.79,-19.17 30.94,-17.77 29.10,-16.37 27.16,-15.00 25.22,-13.63 23.46,-12.28 21.71,-10.94 19.96,-9.67 18.21,-8.41 16.52,-7.38 14.82,-6.35 13.20,-5.36 11.59,-4.37 10.10,-3.45 8.61,-2.53 7.13,-1.87 5.65,-1.20 4.48,-0.59 3.31,0.00 2.28,0.45 1.24,0.90 0.62,0.86 0,0.81 -0.09,0.80 -0.19,0.79 -0.28,0.76 -0.38,0.72 -0.46,0.66 -0.54,0.61 -0.60,0.53 -0.67,0.46 -0.72,0.37 -0.76,0.29 -0.78,0.19 -0.81,0.09 -0.81,-0.00 -0.81,-0.09 -0.78,-0.19 -0.76,-0.29 -0.72,-0.37 -0.67,-0.46 -0.60,-0.53 -0.54,-0.61 -0.46,-0.66 -0.38,-0.72 -0.28,-0.76 -0.19,-0.79 -0.09,-0.80 0.00,-0.81 0.00,-0.81 L 0,-0.81 Z"/></g><g transform="translate(62.08692406281955 68.98550180288464) rotate(0 50.20789513221152 -24.226179856520446)" stroke="none"><path fill="#000000" d="M -0.48,-0.60 Q -0.48,-0.60 0.53,-1.40 1.55,-2.19 2.55,-3.29 3.55,-4.40 5.25,-5.73 6.95,-7.06 8.47,-8.21 9.98,-9.37 11.65,-10.47 13.33,-11.58 14.79,-13.01 16.25,-14.45 18.14,-15.91 20.02,-17.36 22.01,-18.98 24.01,-20.59 25.87,-22.08 27.73,-23.58 29.30,-25.20 30.86,-26.81 32.57,-28.34 34.28,-29.86 35.59,-31.10 36.91,-32.34 38.26,-33.86 39.61,-35.38 40.83,-36.46 42.04,-37.54 42.92,-38.57 43.80,-39.59 44.57,-40.63 45.35,-41.67 46.08,-42.71 46.82,-43.76 47.53,-44.81 48.25,-45.85 48.73,-46.87 49.21,-47.88 49.62,-48.91 50.03,-49.94 50.39,-50.82 50.75,-51.69 51.34,-52.69 51.93,-53.69 52.34,-54.50 52.76,-55.32 53.12,-56.52 53.49,-57.71 53.97,-58.64 54.45,-59.56 55.03,-59.75 55.62,-59.95 56.69,-59.52 57.75,-59.09 58.44,-58.15 59.12,-57.20 59.70,-56.24 60.27,-55.28 61.07,-54.30 61.88,-53.31 62.47,-52.19 63.07,-51.07 63.70,-49.81 64.33,-48.54 65.16,-47.46 65.99,-46.37 66.79,-45.04 67.58,-43.70 68.13,-42.29 68.68,-40.88 69.48,-39.54 70.28,-38.21 70.86,-36.76 71.43,-35.31 72.07,-33.71 72.71,-32.11 73.57,-30.45 74.43,-28.78 75.20,-27.25 75.98,-25.73 76.73,-23.84 77.47,-21.95 78.36,-20.61 79.24,-19.27 80.06,-17.64 80.87,-16.00 81.80,-14.54 82.72,-13.08 83.52,-11.85 84.33,-10.61 85.07,-9.48 85.81,-8.35 86.53,-7.26 87.25,-6.18 87.96,-5.11 88.67,-4.04 89.38,-2.98 90.08,-1.93 90.77,-1.10 91.45,-0.27 92.13,0.21 92.81,0.70 93.55,1.61 94.30,2.51 94.84,3.29 95.39,4.07 95.82,4.54 96.26,5.01 96.66,5.38 97.05,5.75 97.82,6.44 98.59,7.13 98.96,7.54 99.33,7.95 99.22,8.69 99.12,9.43 99.24,9.52 99.36,9.61 99.46,9.73 99.55,9.84 99.62,9.98 99.68,10.12 99.72,10.26 99.75,10.41 99.74,10.56 99.74,10.72 99.70,10.86 99.65,11.01 99.58,11.14 99.50,11.27 99.40,11.38 99.29,11.49 99.17,11.57 99.04,11.66 98.90,11.70 98.75,11.75 98.60,11.77 98.45,11.78 98.30,11.76 98.15,11.73 98.01,11.67 97.87,11.62 98.00,11.67 98.13,11.73 97.95,11.64 97.77,11.55 97.62,11.41 97.48,11.26 97.38,11.08 97.29,10.90 97.26,10.70 97.23,10.50 97.27,10.30 97.31,10.10 97.41,9.92 97.51,9.74 97.66,9.60 97.81,9.47 97.99,9.38 98.18,9.30 98.38,9.28 98.59,9.27 98.78,9.31 98.98,9.36 99.15,9.47 99.33,9.58 99.46,9.74 99.58,9.89 99.66,10.09 99.73,10.28 99.73,10.48 99.74,10.68 99.68,10.88 99.62,11.07 99.51,11.24 99.39,11.41 99.22,11.53 99.06,11.65 98.87,11.71 98.67,11.77 98.47,11.76 98.26,11.76 98.07,11.69 97.88,11.62 97.72,11.50 97.56,11.37 97.45,11.20 97.34,11.03 97.29,10.83 97.24,10.63 97.25,10.43 97.27,10.23 97.35,10.04 97.43,9.85 97.56,9.70 97.70,9.55 97.87,9.44 98.05,9.34 98.25,9.30 98.45,9.26 98.78,9.35 99.12,9.43 99.24,9.52 99.36,9.61 99.46,9.73 99.55,9.84 99.62,9.98 99.68,10.12 99.72,10.26 99.75,10.41 99.74,10.56 99.74,10.72 99.70,10.86 99.65,11.01 99.58,11.14 99.50,11.27 99.40,11.38 99.29,11.49 99.17,11.57 99.04,11.66 98.90,11.70 98.75,11.75 98.60,11.77 98.45,11.78 98.30,11.76 98.15,11.73 98.01,11.67 97.87,11.62 97.49,10.39 97.10,9.17 96.71,8.52 96.31,7.87 95.97,7.44 95.63,7.02 95.27,6.54 94.91,6.07 94.52,5.48 94.12,4.90 93.67,4.15 93.21,3.41 92.55,2.62 91.89,1.83 91.17,1.19 90.44,0.56 89.71,-0.31 88.99,-1.20 88.28,-2.26 87.58,-3.32 86.87,-4.38 86.16,-5.45 85.44,-6.54 84.71,-7.63 83.97,-8.76 83.22,-9.89 82.41,-11.13 81.61,-12.38 80.65,-13.89 79.69,-15.41 78.91,-16.98 78.14,-18.55 77.19,-20.00 76.24,-21.46 75.52,-23.29 74.79,-25.12 74.02,-26.64 73.24,-28.17 72.35,-29.89 71.45,-31.61 70.81,-33.21 70.17,-34.81 69.63,-36.15 69.10,-37.50 68.23,-38.93 67.37,-40.36 66.86,-41.66 66.34,-42.96 65.58,-44.21 64.81,-45.46 63.88,-46.64 62.95,-47.82 62.29,-49.05 61.63,-50.27 61.08,-51.21 60.53,-52.16 59.59,-53.18 58.66,-54.19 57.99,-55.09 57.32,-55.99 56.97,-56.57 56.62,-57.15 55.92,-57.05 55.21,-56.96 54.90,-56.37 54.60,-55.78 54.33,-55.20 54.07,-54.61 53.60,-53.80 53.13,-52.99 52.59,-52.05 52.05,-51.11 51.65,-50.28 51.25,-49.46 50.82,-48.38 50.40,-47.31 49.87,-46.21 49.33,-45.12 48.61,-44.06 47.89,-43.00 47.15,-41.94 46.40,-40.88 45.60,-39.81 44.79,-38.73 43.86,-37.65 42.92,-36.56 41.76,-35.53 40.59,-34.50 39.20,-32.94 37.81,-31.38 36.49,-30.13 35.16,-28.87 33.48,-27.38 31.81,-25.89 30.19,-24.22 28.56,-22.55 26.70,-21.05 24.85,-19.55 22.84,-17.93 20.84,-16.30 19.02,-14.89 17.20,-13.48 15.64,-11.96 14.08,-10.45 12.45,-9.36 10.82,-8.27 9.32,-7.11 7.82,-5.95 6.22,-4.69 4.62,-3.43 3.55,-2.23 2.48,-1.03 1.48,-0.21 0.48,0.60 0.40,0.65 0.32,0.70 0.23,0.73 0.14,0.76 0.05,0.77 -0.03,0.78 -0.13,0.76 -0.22,0.74 -0.31,0.71 -0.39,0.67 -0.47,0.61 -0.54,0.55 -0.60,0.48 -0.66,0.41 -0.70,0.32 -0.74,0.23 -0.76,0.14 -0.77,0.05 -0.77,-0.03 -0.76,-0.13 -0.74,-0.22 -0.71,-0.31 -0.66,-0.39 -0.61,-0.47 -0.55,-0.54 -0.48,-0.60 -0.48,-0.60 L -0.48,-0.60 Z"/></g><g transform="translate(59.27808617219455 73.19875863882214) rotate(0 -17.906306340144255 28.439448429987976)" stroke="none"><path fill="#000000" d="M 0.15,0.77 Q 0.15,0.77 -0.84,0.96 -1.85,1.15 -2.57,1.60 -3.28,2.06 -4.52,2.48 -5.75,2.91 -7.03,3.46 -8.31,4.02 -9.44,4.64 -10.58,5.27 -12.15,5.77 -13.71,6.27 -15.10,7.05 -16.49,7.82 -18.17,8.39 -19.85,8.96 -21.32,9.58 -22.80,10.21 -24.45,10.88 -26.10,11.55 -27.63,12.05 -29.16,12.54 -30.41,12.95 -31.65,13.36 -32.74,13.92 -33.83,14.48 -35.00,14.75 -36.16,15.02 -37.21,15.32 -38.26,15.62 -38.83,15.98 -39.41,16.34 -39.93,16.56 -40.46,16.78 -41.22,17.24 -41.98,17.70 -42.81,17.85 -43.64,18.01 -44.20,18.03 -44.75,18.06 -44.20,18.64 -43.64,19.23 -42.80,20.16 -41.96,21.09 -40.85,22.08 -39.74,23.07 -38.51,23.89 -37.27,24.71 -35.87,25.93 -34.48,27.15 -32.94,28.24 -31.39,29.33 -29.91,30.42 -28.43,31.51 -27.00,32.58 -25.57,33.66 -24.33,34.74 -23.10,35.82 -21.79,36.87 -20.48,37.92 -19.30,38.99 -18.12,40.06 -17.04,40.90 -15.96,41.74 -15.07,42.52 -14.18,43.30 -13.40,44.04 -12.62,44.78 -11.86,45.73 -11.09,46.68 -10.22,47.43 -9.34,48.18 -8.57,48.68 -7.79,49.17 -7.01,49.82 -6.23,50.46 -5.53,50.88 -4.83,51.30 -4.08,51.92 -3.32,52.55 -2.78,52.98 -2.24,53.41 -1.53,53.74 -0.81,54.06 -0.18,54.44 0.43,54.81 0.92,55.16 1.41,55.52 2.43,55.56 3.44,55.60 4.46,55.68 5.48,55.76 7.55,55.15 9.62,54.55 9.81,54.52 10.00,54.49 10.18,54.52 10.37,54.55 10.53,54.64 10.70,54.72 10.83,54.86 10.96,55.00 11.04,55.17 11.11,55.34 11.13,55.53 11.15,55.71 11.11,55.90 11.07,56.08 10.98,56.24 10.88,56.40 10.74,56.52 10.59,56.64 10.42,56.71 10.24,56.78 10.06,56.79 9.87,56.80 9.69,56.75 9.51,56.70 9.35,56.60 9.19,56.49 9.08,56.34 8.97,56.19 8.91,56.01 8.85,55.84 8.85,55.65 8.85,55.46 8.91,55.28 8.97,55.10 9.08,54.95 9.20,54.80 9.35,54.70 9.51,54.59 9.69,54.54 9.87,54.49 10.06,54.50 10.25,54.51 10.42,54.58 10.59,54.65 10.74,54.78 10.88,54.90 10.98,55.06 11.07,55.22 11.11,55.40 11.15,55.59 11.13,55.77 11.11,55.96 11.03,56.13 10.95,56.30 10.83,56.44 10.70,56.57 10.53,56.66 10.36,56.75 10.36,56.75 10.36,56.75 7.91,57.35 5.46,57.95 4.39,58.01 3.32,58.07 2.22,57.88 1.12,57.70 0.23,57.07 -0.66,56.44 -1.13,56.07 -1.60,55.70 -2.53,55.23 -3.45,54.77 -3.91,54.28 -4.38,53.80 -5.05,53.21 -5.71,52.63 -6.45,52.11 -7.18,51.58 -7.89,50.96 -8.59,50.34 -9.40,49.76 -10.21,49.18 -11.17,48.35 -12.13,47.51 -12.83,46.63 -13.53,45.75 -14.30,45.03 -15.07,44.31 -15.93,43.56 -16.78,42.81 -17.91,41.94 -19.03,41.08 -20.19,40.04 -21.34,39.00 -22.68,37.94 -24.02,36.88 -25.23,35.85 -26.43,34.82 -27.87,33.77 -29.31,32.72 -30.80,31.67 -32.28,30.62 -33.92,29.52 -35.55,28.41 -36.89,27.32 -38.22,26.23 -39.61,25.41 -40.99,24.59 -42.25,23.63 -43.51,22.66 -44.44,21.85 -45.37,21.04 -46.22,20.17 -47.07,19.29 -47.15,18.36 -47.23,17.42 -46.78,16.79 -46.32,16.16 -45.60,15.89 -44.88,15.61 -44.01,15.64 -43.14,15.66 -42.60,15.65 -42.05,15.64 -41.07,15.30 -40.10,14.97 -39.36,14.66 -38.63,14.36 -37.54,14.05 -36.45,13.74 -35.44,13.52 -34.42,13.30 -33.25,12.70 -32.07,12.10 -30.82,11.69 -29.57,11.28 -28.09,10.80 -26.60,10.32 -24.96,9.65 -23.32,8.97 -21.80,8.32 -20.28,7.68 -18.71,7.15 -17.15,6.63 -15.64,5.79 -14.14,4.95 -12.70,4.49 -11.26,4.04 -10.08,3.36 -8.90,2.69 -7.58,2.09 -6.25,1.49 -5.16,1.09 -4.08,0.70 -3.13,0.17 -2.18,-0.34 -1.16,-0.56 -0.15,-0.77 -0.06,-0.78 0.03,-0.79 0.12,-0.77 0.22,-0.76 0.31,-0.72 0.39,-0.68 0.47,-0.62 0.55,-0.56 0.61,-0.49 0.67,-0.42 0.71,-0.33 0.75,-0.24 0.77,-0.15 0.79,-0.06 0.78,0.03 0.78,0.13 0.75,0.22 0.72,0.31 0.68,0.39 0.63,0.47 0.56,0.54 0.49,0.61 0.41,0.66 0.33,0.71 0.24,0.74 0.15,0.77 0.15,0.77 L 0.15,0.77 Z"/></g><g transform="translate(156.18285254839645 67.5811063326322) rotate(0 31.950472318209137 33.354903001051696)" stroke="none"><path fill="#000000" d="M 0.18,-0.92 Q 0.18,-0.92 1.19,-0.69 2.19,-0.46 2.95,-0.16 3.70,0.12 4.34,0.74 4.97,1.35 5.56,1.97 6.15,2.58 6.79,3.26 7.44,3.94 8.06,4.36 8.69,4.79 9.41,5.44 10.14,6.09 10.98,6.76 11.83,7.43 12.79,8.13 13.75,8.84 14.76,9.55 15.77,10.26 17.01,11.18 18.25,12.10 19.52,12.66 20.78,13.22 22.16,13.88 23.54,14.55 25.15,15.44 26.76,16.34 28.20,16.90 29.65,17.47 30.92,18.13 32.19,18.80 33.89,19.47 35.59,20.14 36.96,20.84 38.34,21.55 40.09,22.24 41.84,22.92 43.23,23.64 44.63,24.35 45.79,24.84 46.95,25.33 48.49,26.16 50.03,27.00 51.03,27.32 52.03,27.65 52.96,28.23 53.88,28.80 54.80,29.22 55.72,29.63 56.72,30.01 57.72,30.40 58.58,30.74 59.44,31.09 60.07,31.42 60.70,31.76 61.23,31.82 61.77,31.88 62.40,32.17 63.03,32.46 63.39,32.88 63.74,33.29 64.28,33.75 64.81,34.22 64.98,35.13 65.14,36.05 64.89,36.72 64.63,37.39 63.76,38.10 62.89,38.80 61.85,39.25 60.81,39.70 59.89,40.38 58.96,41.06 57.38,41.63 55.80,42.20 54.18,42.79 52.55,43.39 50.88,44.22 49.21,45.06 47.24,45.83 45.27,46.60 43.00,47.33 40.74,48.06 38.37,48.77 36.00,49.47 33.81,50.37 31.62,51.26 29.67,52.04 27.71,52.83 25.47,53.77 23.23,54.70 21.48,55.50 19.73,56.30 18.18,57.04 16.63,57.78 14.97,58.69 13.32,59.60 12.04,60.57 10.77,61.55 9.56,62.20 8.35,62.85 7.27,63.51 6.18,64.17 5.59,64.82 5.00,65.48 4.28,66.04 3.57,66.61 2.88,66.90 2.19,67.20 1.62,66.96 1.05,66.72 0.78,65.86 0.52,65.00 0.48,64.07 0.44,63.14 0.48,61.94 0.51,60.74 0.45,58.35 0.40,55.95 0.43,55.79 0.45,55.63 0.53,55.49 0.60,55.34 0.72,55.23 0.84,55.12 0.98,55.05 1.13,54.98 1.29,54.97 1.45,54.95 1.61,54.98 1.77,55.02 1.91,55.10 2.05,55.18 2.15,55.30 2.26,55.43 2.32,55.58 2.38,55.73 2.39,55.89 2.40,56.05 2.35,56.21 2.31,56.36 2.22,56.50 2.13,56.63 2.00,56.73 1.87,56.83 1.72,56.88 1.57,56.93 1.40,56.93 1.24,56.93 1.09,56.88 0.94,56.83 0.81,56.73 0.68,56.64 0.59,56.50 0.50,56.37 0.45,56.21 0.41,56.06 0.42,55.90 0.42,55.73 0.48,55.58 0.54,55.43 0.65,55.31 0.75,55.19 0.89,55.10 1.03,55.02 1.19,54.98 1.34,54.95 1.50,54.96 1.67,54.98 1.81,55.05 1.96,55.12 2.08,55.23 2.20,55.34 2.27,55.48 2.35,55.62 2.37,55.78 2.40,55.94 2.40,55.94 2.40,55.94 2.37,58.33 2.34,60.72 2.40,61.88 2.47,63.05 2.57,64.20 2.67,65.34 3.33,64.92 3.99,64.49 4.74,63.77 5.49,63.05 6.61,62.37 7.72,61.69 8.85,61.09 9.97,60.49 11.32,59.46 12.68,58.44 14.36,57.51 16.05,56.57 17.61,55.82 19.17,55.07 20.94,54.26 22.71,53.45 24.95,52.51 27.20,51.56 29.15,50.76 31.09,49.97 33.34,49.04 35.58,48.11 37.94,47.39 40.29,46.67 42.49,45.93 44.70,45.19 46.59,44.41 48.48,43.64 50.21,42.72 51.93,41.80 53.54,41.14 55.15,40.47 56.43,39.96 57.71,39.45 58.76,38.55 59.80,37.65 60.56,37.23 61.32,36.81 61.95,36.18 62.57,35.55 62.31,35.07 62.05,34.59 61.69,34.13 61.32,33.67 60.57,33.43 59.83,33.18 59.34,32.80 58.85,32.42 58.05,32.04 57.24,31.65 56.20,31.26 55.17,30.86 54.15,30.41 53.14,29.95 52.37,29.42 51.60,28.89 50.51,28.53 49.41,28.16 47.92,27.35 46.44,26.55 45.23,26.04 44.02,25.53 42.69,24.84 41.36,24.16 39.54,23.45 37.73,22.74 36.42,22.06 35.10,21.38 33.33,20.69 31.56,20.00 30.36,19.37 29.15,18.74 27.62,18.14 26.10,17.55 24.52,16.68 22.94,15.82 21.57,15.18 20.20,14.54 18.79,13.92 17.38,13.31 16.14,12.43 14.90,11.55 13.85,10.87 12.81,10.19 11.79,9.52 10.78,8.86 9.82,8.20 8.86,7.54 8.20,6.97 7.54,6.40 6.79,5.85 6.05,5.31 5.37,4.64 4.70,3.98 4.08,3.34 3.46,2.70 3.16,2.26 2.85,1.83 2.34,1.54 1.84,1.26 0.82,1.09 -0.18,0.92 -0.29,0.88 -0.40,0.85 -0.49,0.79 -0.59,0.73 -0.67,0.65 -0.75,0.56 -0.80,0.47 -0.86,0.37 -0.89,0.26 -0.93,0.15 -0.93,0.04 -0.94,-0.07 -0.91,-0.18 -0.89,-0.29 -0.84,-0.39 -0.79,-0.50 -0.72,-0.58 -0.65,-0.67 -0.56,-0.74 -0.47,-0.81 -0.37,-0.86 -0.26,-0.90 -0.15,-0.92 -0.04,-0.94 0.07,-0.93 0.18,-0.92 0.18,-0.92 L 0.18,-0.92 Z"/></g><g transform="translate(24.527086259508337 26.586497309843395) rotate(0 -2.802171222947834 10.508126473159109)" stroke="none"><path fill="#000000" d="M -0.17,1.03 Q -0.17,1.03 -0.95,0.90 -1.74,0.77 -2.27,0.97 -2.80,1.18 -3.43,1.51 -4.05,1.83 -4.54,2.22 -5.02,2.60 -5.45,3.10 -5.87,3.61 -6.32,4.31 -6.78,5.00 -7.26,5.74 -7.75,6.48 -8.05,7.23 -8.36,7.98 -8.48,8.77 -8.61,9.56 -8.71,10.57 -8.81,11.57 -8.82,12.41 -8.83,13.24 -8.82,14.00 -8.81,14.76 -8.79,15.47 -8.77,16.18 -8.52,16.72 -8.27,17.25 -8.01,17.79 -7.75,18.32 -7.14,19.01 -6.53,19.70 -5.81,19.87 -5.09,20.05 -3.82,20.12 -2.54,20.18 -1.93,20.08 -1.31,19.97 -0.73,19.70 -0.16,19.44 0.30,19.09 0.77,18.74 1.18,18.27 1.60,17.79 1.87,17.25 2.15,16.72 2.40,16.10 2.66,15.48 2.75,14.58 2.84,13.69 2.87,12.88 2.89,12.07 1.94,11.37 0.99,10.66 0.80,10.54 0.62,10.42 0.48,10.25 0.34,10.07 0.26,9.86 0.19,9.65 0.18,9.43 0.18,9.21 0.24,8.99 0.31,8.78 0.44,8.60 0.57,8.42 0.76,8.29 0.94,8.16 1.15,8.10 1.37,8.03 1.59,8.04 1.81,8.05 2.02,8.12 2.23,8.20 2.40,8.34 2.58,8.49 2.70,8.67 2.81,8.86 2.87,9.08 2.92,9.30 2.90,9.52 2.88,9.74 2.79,9.95 2.70,10.15 2.55,10.32 2.40,10.48 2.21,10.59 2.01,10.70 1.79,10.74 1.57,10.78 1.35,10.75 1.13,10.72 0.93,10.62 0.73,10.52 0.57,10.36 0.42,10.20 0.32,10.00 0.22,9.80 0.19,9.58 0.16,9.35 0.21,9.14 0.25,8.92 0.36,8.72 0.47,8.53 0.64,8.38 0.81,8.23 1.01,8.15 1.22,8.06 1.44,8.04 1.66,8.03 1.88,8.08 2.10,8.14 2.10,8.14 2.10,8.14 3.79,9.93 5.48,11.73 5.44,12.84 5.40,13.95 5.32,14.52 5.24,15.09 5.07,15.75 4.90,16.41 4.59,17.14 4.28,17.88 3.85,18.64 3.42,19.39 2.81,20.07 2.20,20.74 1.52,21.20 0.84,21.67 -0.01,22.04 -0.87,22.42 -1.74,22.56 -2.60,22.71 -3.44,22.70 -4.28,22.70 -4.99,22.62 -5.70,22.55 -6.33,22.35 -6.96,22.16 -7.95,21.31 -8.95,20.47 -9.37,19.84 -9.78,19.21 -10.02,18.60 -10.25,17.99 -10.53,17.11 -10.82,16.22 -10.79,15.47 -10.77,14.73 -10.73,13.96 -10.70,13.19 -10.66,12.33 -10.62,11.46 -10.60,10.36 -10.57,9.25 -10.41,8.25 -10.25,7.24 -9.88,6.30 -9.51,5.35 -9.05,4.61 -8.59,3.88 -8.07,3.01 -7.55,2.13 -6.95,1.48 -6.34,0.82 -5.68,0.36 -5.02,-0.09 -4.21,-0.48 -3.39,-0.87 -2.44,-1.09 -1.48,-1.30 -0.65,-1.17 0.17,-1.03 0.29,-0.99 0.41,-0.96 0.52,-0.90 0.63,-0.83 0.72,-0.74 0.81,-0.66 0.88,-0.55 0.94,-0.44 0.98,-0.32 1.02,-0.20 1.03,-0.07 1.04,0.04 1.02,0.17 1.00,0.29 0.95,0.41 0.90,0.52 0.83,0.62 0.75,0.73 0.65,0.80 0.55,0.88 0.44,0.94 0.32,0.99 0.20,1.02 0.08,1.04 -0.04,1.04 -0.17,1.03 -0.17,1.03 L -0.17,1.03 Z"/></g><g transform="translate(200.1295351987913 16.31188510526323) rotate(0 -3.9697035336045303 13.310297696106971)" stroke="none"><path fill="#000000" d="M 0.44,0.77 Q 0.44,0.77 -0.51,1.28 -1.46,1.79 -1.89,2.26 -2.32,2.72 -2.76,3.31 -3.19,3.89 -3.64,4.63 -4.09,5.37 -4.57,6.22 -5.05,7.06 -5.53,7.96 -6.02,8.85 -6.35,9.83 -6.68,10.81 -6.96,11.79 -7.24,12.76 -7.49,13.71 -7.74,14.66 -7.85,15.67 -7.97,16.69 -7.98,17.53 -8.00,18.38 -7.98,19.14 -7.96,19.90 -7.94,20.62 -7.91,21.34 -7.89,22.03 -7.87,22.72 -7.38,23.38 -6.89,24.03 -6.39,24.39 -5.90,24.74 -5.15,24.97 -4.40,25.19 -3.49,25.21 -2.58,25.22 -1.32,24.46 -0.06,23.70 0.15,23.62 0.36,23.54 0.58,23.54 0.81,23.53 1.03,23.59 1.25,23.66 1.43,23.79 1.62,23.92 1.75,24.10 1.88,24.28 1.95,24.50 2.02,24.72 2.02,24.94 2.01,25.17 1.93,25.38 1.86,25.60 1.72,25.77 1.58,25.95 1.39,26.08 1.20,26.20 0.98,26.26 0.76,26.31 0.53,26.30 0.31,26.28 0.10,26.19 -0.10,26.10 -0.27,25.95 -0.44,25.80 -0.55,25.61 -0.67,25.41 -0.71,25.19 -0.76,24.97 -0.73,24.74 -0.70,24.52 -0.60,24.31 -0.50,24.11 -0.34,23.95 -0.18,23.79 0.01,23.69 0.21,23.58 0.44,23.55 0.66,23.52 0.88,23.56 1.11,23.60 1.30,23.71 1.50,23.82 1.65,23.99 1.81,24.15 1.90,24.36 1.99,24.57 2.01,24.79 2.03,25.02 1.98,25.24 1.92,25.46 1.80,25.65 1.68,25.84 1.51,25.99 1.33,26.13 1.33,26.13 1.33,26.13 -0.65,27.04 -2.65,27.95 -3.19,27.92 -3.73,27.89 -4.87,27.65 -6.00,27.42 -6.66,27.11 -7.33,26.79 -7.80,26.40 -8.27,26.01 -8.78,25.18 -9.29,24.35 -9.57,23.58 -9.86,22.80 -9.83,22.06 -9.80,21.32 -9.76,20.59 -9.72,19.85 -9.66,19.07 -9.61,18.30 -9.53,17.42 -9.45,16.54 -9.35,15.40 -9.25,14.26 -9.00,13.30 -8.74,12.34 -8.47,11.34 -8.20,10.33 -7.87,9.20 -7.53,8.07 -7.08,7.14 -6.62,6.21 -6.16,5.31 -5.69,4.40 -5.18,3.55 -4.67,2.69 -4.12,2.05 -3.56,1.40 -2.93,0.88 -2.29,0.35 -1.36,-0.20 -0.44,-0.77 -0.34,-0.81 -0.24,-0.85 -0.13,-0.87 -0.03,-0.89 0.07,-0.88 0.18,-0.87 0.28,-0.84 0.38,-0.80 0.47,-0.74 0.56,-0.68 0.64,-0.61 0.71,-0.53 0.77,-0.44 0.82,-0.34 0.85,-0.24 0.88,-0.13 0.88,-0.03 0.89,0.07 0.86,0.18 0.84,0.28 0.79,0.38 0.75,0.48 0.68,0.56 0.61,0.64 0.52,0.71 0.44,0.77 0.44,0.77 L 0.44,0.77 Z"/></g><g transform="translate(217.87658838500369 18.64702779105312) rotate(0 -6.071355370158358 12.142726353212026)" stroke="none"><path fill="#000000" d="M 0.54,0.67 Q 0.54,0.67 -0.11,1.22 -0.77,1.77 -1.10,2.23 -1.43,2.69 -2.02,3.33 -2.62,3.97 -3.27,4.72 -3.93,5.47 -4.64,6.21 -5.35,6.96 -6.05,7.78 -6.74,8.59 -7.30,9.44 -7.85,10.28 -8.36,11.18 -8.86,12.07 -9.35,12.99 -9.84,13.91 -10.15,14.80 -10.47,15.68 -10.56,16.43 -10.65,17.18 -10.82,17.85 -10.98,18.52 -11.00,19.56 -11.02,20.60 -10.72,21.20 -10.42,21.80 -9.90,22.35 -9.37,22.89 -8.59,22.89 -7.80,22.88 -6.69,22.90 -5.59,22.92 -4.94,22.56 -4.29,22.21 -3.94,21.80 -3.59,21.39 -3.33,20.90 -3.07,20.40 -2.97,19.79 -2.87,19.18 -2.80,18.49 -2.74,17.81 -2.71,17.14 -2.68,16.48 -3.77,14.64 -4.86,12.80 -5.01,12.64 -5.15,12.49 -5.24,12.30 -5.32,12.11 -5.35,11.90 -5.37,11.69 -5.32,11.48 -5.27,11.28 -5.16,11.10 -5.06,10.92 -4.89,10.79 -4.73,10.65 -4.54,10.58 -4.34,10.50 -4.13,10.49 -3.92,10.48 -3.72,10.54 -3.52,10.59 -3.35,10.71 -3.17,10.83 -3.05,11.00 -2.92,11.17 -2.86,11.37 -2.79,11.57 -2.79,11.78 -2.79,11.99 -2.86,12.19 -2.93,12.38 -3.06,12.55 -3.19,12.72 -3.36,12.83 -3.53,12.95 -3.74,13.00 -3.94,13.06 -4.15,13.05 -4.36,13.03 -4.55,12.96 -4.75,12.88 -4.91,12.74 -5.07,12.60 -5.17,12.42 -5.28,12.24 -5.32,12.04 -5.37,11.83 -5.34,11.62 -5.32,11.41 -5.23,11.22 -5.14,11.03 -5.00,10.88 -4.85,10.73 -4.66,10.63 -4.48,10.54 -4.27,10.50 -4.06,10.47 -3.86,10.51 -3.65,10.54 -3.46,10.64 -3.28,10.74 -3.28,10.74 -3.28,10.74 -2.03,12.77 -0.79,14.80 -0.49,15.63 -0.19,16.46 -0.21,17.24 -0.23,18.01 -0.29,18.82 -0.35,19.62 -0.53,20.62 -0.72,21.62 -1.14,22.39 -1.56,23.17 -2.16,23.83 -2.77,24.50 -3.47,24.91 -4.18,25.33 -4.89,25.47 -5.61,25.62 -6.26,25.60 -6.92,25.59 -7.48,25.55 -8.04,25.51 -8.77,25.44 -9.50,25.36 -10.62,24.67 -11.74,23.97 -12.14,23.43 -12.53,22.89 -12.74,22.38 -12.95,21.88 -13.05,21.19 -13.15,20.50 -13.08,19.82 -13.00,19.14 -12.86,18.55 -12.72,17.97 -12.49,17.42 -12.26,16.88 -12.07,16.03 -11.87,15.18 -11.50,14.20 -11.14,13.23 -10.66,12.29 -10.17,11.35 -9.67,10.41 -9.16,9.46 -8.59,8.51 -8.01,7.56 -7.33,6.67 -6.64,5.78 -6.00,5.04 -5.35,4.31 -4.70,3.46 -4.06,2.61 -3.49,2.02 -2.92,1.43 -2.41,0.90 -1.90,0.37 -1.22,-0.15 -0.54,-0.67 -0.45,-0.73 -0.36,-0.78 -0.26,-0.82 -0.16,-0.85 -0.06,-0.86 0.04,-0.86 0.14,-0.85 0.25,-0.83 0.34,-0.79 0.44,-0.74 0.52,-0.68 0.60,-0.62 0.67,-0.53 0.73,-0.45 0.78,-0.36 0.82,-0.26 0.84,-0.16 0.86,-0.06 0.86,0.04 0.85,0.14 0.82,0.24 0.79,0.34 0.74,0.43 0.69,0.52 0.61,0.60 0.54,0.67 0.54,0.67 L 0.54,0.67 Z"/></g><g transform="translate(227.68417205242588 15.377828030947285) rotate(0 -1.1675635364472896 13.543811964685958)" stroke="none"><path fill="#000000" d="M 0.90,0 Q 0.90,0 0.93,0.67 0.97,1.34 1.00,2.02 1.03,2.71 1.17,3.31 1.32,3.90 1.50,4.72 1.68,5.53 1.85,6.58 2.02,7.62 2.33,8.54 2.64,9.46 2.91,10.74 3.18,12.01 3.29,13.26 3.39,14.50 3.56,15.52 3.73,16.54 3.82,17.55 3.91,18.57 3.98,19.40 4.04,20.24 3.95,21.07 3.86,21.91 3.70,22.58 3.54,23.25 3.16,23.91 2.78,24.56 2.53,25.15 2.29,25.74 1.75,26.23 1.22,26.71 0.76,27.01 0.30,27.30 -0.72,27.76 -1.76,28.21 -4.11,27.92 -6.45,27.63 -6.57,27.45 -6.70,27.28 -6.76,27.08 -6.82,26.87 -6.81,26.66 -6.81,26.45 -6.73,26.25 -6.66,26.05 -6.53,25.88 -6.39,25.72 -6.21,25.60 -6.03,25.49 -5.83,25.44 -5.62,25.39 -5.41,25.41 -5.20,25.42 -5.00,25.51 -4.80,25.59 -4.65,25.74 -4.49,25.88 -4.38,26.06 -4.28,26.25 -4.24,26.46 -4.20,26.67 -4.23,26.88 -4.26,27.09 -4.36,27.28 -4.45,27.47 -4.60,27.62 -4.75,27.77 -4.94,27.86 -5.13,27.96 -5.35,27.99 -5.56,28.01 -5.76,27.97 -5.97,27.93 -6.16,27.83 -6.34,27.72 -6.49,27.56 -6.63,27.40 -6.71,27.21 -6.79,27.01 -6.81,26.80 -6.83,26.59 -6.78,26.38 -6.72,26.18 -6.61,26.00 -6.49,25.82 -6.33,25.68 -6.16,25.55 -5.96,25.48 -5.76,25.41 -5.55,25.40 -5.33,25.40 -5.13,25.46 -4.93,25.52 -4.76,25.65 -4.58,25.77 -4.58,25.77 -4.58,25.77 -3.41,25.71 -2.24,25.66 -1.57,25.43 -0.89,25.20 -0.24,24.95 0.41,24.71 1.04,23.68 1.67,22.64 1.88,22.13 2.09,21.63 2.24,20.96 2.39,20.30 2.39,19.49 2.39,18.69 2.32,17.74 2.25,16.80 2.04,15.73 1.84,14.66 1.70,13.53 1.57,12.39 1.26,11.23 0.96,10.07 0.55,9.05 0.14,8.02 -0.12,7.01 -0.38,6.01 -0.58,5.16 -0.78,4.31 -0.90,3.51 -1.03,2.72 -1.00,2.03 -0.97,1.34 -0.93,0.67 -0.90,0 -0.88,-0.10 -0.87,-0.21 -0.83,-0.31 -0.79,-0.41 -0.73,-0.50 -0.67,-0.59 -0.59,-0.66 -0.51,-0.74 -0.41,-0.79 -0.31,-0.84 -0.21,-0.86 -0.10,-0.89 0.00,-0.89 0.10,-0.89 0.21,-0.86 0.31,-0.84 0.41,-0.79 0.51,-0.74 0.59,-0.66 0.67,-0.59 0.73,-0.50 0.79,-0.41 0.83,-0.31 0.87,-0.21 0.88,-0.10 0.90,0.00 0.90,0.00 L 0.90,0 Z"/></g><g transform="translate(243.09609816574374 22.383256088316926) rotate(0 4.2032412215264685 0.4670285371579723)" stroke="none"><path fill="#000000" d="M 0.39,-1.19 Q 0.39,-1.19 1.19,-0.90 1.99,-0.61 2.52,-0.53 3.05,-0.45 3.65,-0.41 4.24,-0.38 6.22,-0.36 8.19,-0.35 8.40,-0.31 8.60,-0.28 8.79,-0.18 8.97,-0.08 9.11,0.06 9.25,0.21 9.34,0.40 9.43,0.59 9.45,0.80 9.47,1.00 9.42,1.21 9.38,1.41 9.27,1.59 9.16,1.76 9.00,1.90 8.85,2.03 8.65,2.11 8.46,2.18 8.25,2.19 8.04,2.20 7.84,2.15 7.64,2.09 7.47,1.97 7.30,1.86 7.18,1.69 7.05,1.52 6.99,1.33 6.92,1.13 6.92,0.92 6.92,0.71 6.99,0.52 7.06,0.32 7.18,0.16 7.31,-0.00 7.48,-0.11 7.66,-0.23 7.86,-0.28 8.06,-0.34 8.26,-0.33 8.47,-0.31 8.66,-0.24 8.86,-0.16 9.01,-0.02 9.17,0.10 9.28,0.28 9.38,0.46 9.43,0.66 9.47,0.86 9.45,1.07 9.42,1.28 9.34,1.47 9.25,1.65 9.10,1.80 8.96,1.95 8.78,2.05 8.59,2.15 8.39,2.18 8.18,2.21 8.18,2.21 8.18,2.21 6.12,2.16 4.06,2.11 3.33,2.04 2.60,1.98 1.91,1.83 1.22,1.68 0.41,1.44 -0.39,1.19 -0.53,1.13 -0.67,1.06 -0.79,0.97 -0.90,0.87 -1.00,0.75 -1.09,0.63 -1.15,0.49 -1.21,0.35 -1.23,0.20 -1.26,0.05 -1.24,-0.10 -1.23,-0.25 -1.18,-0.39 -1.13,-0.54 -1.05,-0.66 -0.97,-0.79 -0.86,-0.90 -0.75,-1.00 -0.62,-1.08 -0.49,-1.15 -0.34,-1.20 -0.20,-1.24 -0.05,-1.25 0.10,-1.25 0.24,-1.22 0.39,-1.19 0.39,-1.19 L 0.39,-1.19 Z"/></g><g transform="translate(237.02474279558538 31.72381121858109) rotate(0 8.873526593106192 -0.4670285371579723)" stroke="none"><path fill="#000000" d="M 0,-1.07 Q 0,-1.07 0.67,-1.09 1.34,-1.11 2.03,-1.12 2.71,-1.14 3.68,-1.10 4.64,-1.06 5.59,-1.04 6.53,-1.01 7.47,-1.00 8.41,-0.98 9.22,-0.99 10.02,-1.00 10.90,-1.00 11.77,-1.00 12.55,-1.01 13.33,-1.03 14.06,-1.04 14.79,-1.06 15.85,-1.36 16.91,-1.66 17.07,-1.76 17.22,-1.85 17.39,-1.89 17.56,-1.93 17.74,-1.91 17.92,-1.89 18.08,-1.81 18.24,-1.74 18.37,-1.62 18.50,-1.49 18.58,-1.34 18.66,-1.18 18.69,-1.01 18.72,-0.83 18.69,-0.66 18.67,-0.48 18.58,-0.32 18.50,-0.17 18.37,-0.04 18.24,0.07 18.08,0.14 17.92,0.22 17.74,0.24 17.57,0.26 17.39,0.22 17.22,0.18 17.07,0.09 16.92,0.00 16.80,-0.13 16.69,-0.26 16.62,-0.43 16.55,-0.59 16.54,-0.77 16.53,-0.95 16.58,-1.12 16.63,-1.29 16.73,-1.44 16.83,-1.58 16.97,-1.69 17.11,-1.80 17.28,-1.86 17.45,-1.91 17.62,-1.91 17.80,-1.91 17.97,-1.86 18.14,-1.80 18.28,-1.69 18.42,-1.59 18.52,-1.44 18.62,-1.29 18.67,-1.12 18.72,-0.95 18.71,-0.77 18.70,-0.59 18.63,-0.43 18.57,-0.26 18.45,-0.13 18.34,0.00 18.34,0.00 18.34,0.00 16.57,0.53 14.79,1.06 14.06,1.04 13.33,1.03 12.55,1.01 11.77,1.00 10.90,1.00 10.02,1.00 9.22,0.99 8.41,0.98 7.47,1.00 6.53,1.01 5.59,1.04 4.64,1.06 3.68,1.10 2.71,1.14 2.03,1.12 1.34,1.11 0.67,1.09 0,1.07 -0.12,1.05 -0.25,1.04 -0.37,0.99 -0.49,0.94 -0.60,0.87 -0.71,0.80 -0.79,0.70 -0.88,0.60 -0.94,0.49 -1.00,0.38 -1.03,0.25 -1.06,0.12 -1.06,-0.00 -1.06,-0.12 -1.03,-0.25 -1.00,-0.38 -0.94,-0.49 -0.88,-0.60 -0.79,-0.70 -0.71,-0.80 -0.60,-0.87 -0.49,-0.94 -0.37,-0.99 -0.25,-1.04 -0.12,-1.05 0.00,-1.07 0.00,-1.07 L 0,-1.07 Z"/></g><g transform="translate(259.9091255034308 16.77891364242123) rotate(0 5.13726707005182 11.675697816054054)" stroke="none"><path fill="#000000" d="M 0,-1.16 Q 0,-1.16 1.07,-1.09 2.14,-1.03 3.00,-1.02 3.86,-1.02 4.76,-1.01 5.67,-1.00 6.45,-1.01 7.24,-1.03 7.98,-1.04 8.71,-1.06 9.48,-0.88 10.25,-0.70 10.51,-0.23 10.78,0.22 10.35,1.26 9.92,2.30 9.31,2.97 8.71,3.64 8.04,4.29 7.36,4.95 6.78,5.42 6.20,5.90 5.72,6.83 5.24,7.77 4.97,8.61 4.71,9.45 5.60,9.97 6.49,10.49 7.50,10.94 8.50,11.38 9.06,11.63 9.61,11.88 10.21,12.11 10.80,12.35 11.30,12.71 11.79,13.08 12.08,13.53 12.37,13.97 12.44,14.75 12.51,15.52 12.15,16.21 11.79,16.90 11.44,17.37 11.10,17.84 10.54,18.33 9.99,18.82 9.35,19.26 8.71,19.69 8.08,20.19 7.45,20.69 6.65,21.14 5.84,21.59 5.16,21.98 4.48,22.38 3.81,22.63 3.14,22.87 1.28,23.75 -0.57,24.64 -0.78,24.62 -1.00,24.61 -1.19,24.53 -1.39,24.44 -1.55,24.30 -1.71,24.16 -1.82,23.98 -1.93,23.80 -1.97,23.59 -2.01,23.38 -1.99,23.17 -1.96,22.95 -1.87,22.76 -1.78,22.57 -1.63,22.42 -1.48,22.26 -1.29,22.17 -1.10,22.07 -0.89,22.04 -0.68,22.01 -0.47,22.04 -0.26,22.08 -0.07,22.18 0.11,22.29 0.25,22.44 0.40,22.60 0.48,22.79 0.57,22.99 0.59,23.20 0.61,23.41 0.56,23.62 0.51,23.83 0.40,24.01 0.29,24.19 0.12,24.33 -0.03,24.46 -0.23,24.54 -0.43,24.61 -0.64,24.62 -0.86,24.63 -1.06,24.57 -1.26,24.51 -1.44,24.39 -1.61,24.27 -1.74,24.10 -1.87,23.93 -1.93,23.72 -2.00,23.52 -2.00,23.31 -1.99,23.09 -1.92,22.89 -1.85,22.69 -1.72,22.52 -1.59,22.36 -1.41,22.24 -1.23,22.12 -1.03,22.07 -0.82,22.01 -0.82,22.01 -0.82,22.01 1.17,21.12 3.16,20.23 3.86,19.77 4.56,19.31 5.12,18.99 5.67,18.68 6.35,18.01 7.02,17.35 7.85,16.72 8.68,16.09 9.22,15.53 9.75,14.97 9.10,14.74 8.44,14.51 7.95,14.29 7.46,14.07 6.32,13.57 5.18,13.08 4.71,12.83 4.23,12.58 3.52,12.12 2.81,11.66 2.54,11.19 2.26,10.72 2.16,10.10 2.05,9.49 2.37,8.66 2.68,7.83 2.88,7.20 3.08,6.58 3.40,6.05 3.72,5.51 4.22,4.79 4.72,4.07 5.21,3.72 5.70,3.36 6.29,2.69 6.88,2.02 7.80,1.54 8.71,1.06 7.98,1.04 7.24,1.03 6.45,1.01 5.67,1.00 4.76,1.01 3.86,1.02 3.00,1.02 2.14,1.03 1.07,1.09 0,1.16 -0.13,1.14 -0.27,1.13 -0.41,1.08 -0.54,1.03 -0.65,0.95 -0.77,0.87 -0.86,0.76 -0.95,0.66 -1.02,0.53 -1.08,0.41 -1.12,0.27 -1.15,0.14 -1.15,-0.00 -1.15,-0.14 -1.12,-0.27 -1.08,-0.41 -1.02,-0.53 -0.95,-0.66 -0.86,-0.76 -0.77,-0.87 -0.65,-0.95 -0.54,-1.03 -0.40,-1.08 -0.27,-1.13 -0.13,-1.14 0.00,-1.16 0.00,-1.16 L 0,-1.16 Z"/></g><g transform="translate(64.77224731445312 74.9833538348858) rotate(0 2.5103912353515625 29.440086364746094)" stroke="none"><path fill="#d9480f" d="M 1.03,-0.14 Q 1.03,-0.14 1.14,0.77 1.25,1.69 1.44,2.43 1.63,3.16 1.74,3.95 1.85,4.74 2.00,5.53 2.15,6.32 2.34,7.18 2.52,8.05 2.74,8.79 2.96,9.53 3.09,10.33 3.21,11.12 3.37,11.91 3.53,12.70 3.57,13.78 3.61,14.86 3.75,15.77 3.88,16.68 4.04,17.74 4.20,18.80 4.31,19.68 4.42,20.56 4.42,21.74 4.43,22.92 4.49,23.54 4.55,24.16 4.58,24.96 4.61,25.75 4.63,26.48 4.66,27.21 4.79,27.97 4.92,28.73 4.99,29.52 5.07,30.30 5.11,31.04 5.16,31.77 5.18,32.48 5.21,33.18 5.23,33.88 5.25,34.57 5.26,35.26 5.27,35.95 5.29,36.63 5.30,37.32 5.42,37.89 5.55,38.46 5.69,39.41 5.83,40.35 5.85,40.96 5.87,41.56 5.89,42.69 5.92,43.82 5.94,44.83 5.96,45.83 5.96,46.43 5.97,47.03 5.98,48.03 6.00,49.03 6.02,49.96 6.03,50.89 6.05,51.81 6.06,52.72 6.09,53.32 6.11,53.91 6.12,54.53 6.14,55.14 6.16,55.68 6.18,56.22 6.20,56.92 6.22,57.62 6.23,58.08 6.24,58.54 6.22,58.74 6.19,58.94 6.12,59.13 6.05,59.32 5.93,59.49 5.82,59.65 5.67,59.79 5.52,59.92 5.34,60.02 5.16,60.11 4.96,60.16 4.76,60.21 4.56,60.21 4.36,60.21 4.16,60.16 3.96,60.11 3.78,60.02 3.60,59.92 3.45,59.79 3.30,59.65 3.18,59.49 3.07,59.32 3.00,59.13 2.93,58.94 2.90,58.74 2.88,58.54 3.09,56.93 3.31,55.33 3.38,55.07 3.46,54.81 3.61,54.58 3.77,54.36 3.99,54.20 4.20,54.03 4.46,53.95 4.72,53.86 4.99,53.86 5.27,53.87 5.52,53.96 5.78,54.04 6.00,54.21 6.21,54.38 6.36,54.60 6.51,54.83 6.58,55.09 6.66,55.36 6.64,55.63 6.62,55.90 6.52,56.15 6.42,56.40 6.24,56.61 6.06,56.82 5.83,56.95 5.59,57.09 5.33,57.15 5.06,57.21 4.79,57.17 4.52,57.14 4.27,57.03 4.03,56.91 3.83,56.72 3.63,56.53 3.51,56.29 3.38,56.05 3.34,55.78 3.30,55.51 3.34,55.24 3.39,54.98 3.52,54.74 3.65,54.50 3.85,54.31 4.05,54.13 4.29,54.01 4.54,53.90 4.81,53.87 5.08,53.85 5.35,53.91 5.62,53.97 5.85,54.11 6.08,54.25 6.25,54.46 6.43,54.67 6.53,54.92 6.63,55.18 6.64,55.45 6.65,55.72 6.65,55.72 6.65,55.72 6.45,57.13 6.24,58.54 6.22,58.74 6.19,58.94 6.12,59.13 6.05,59.32 5.93,59.49 5.82,59.65 5.67,59.79 5.52,59.92 5.34,60.02 5.16,60.11 4.96,60.16 4.76,60.21 4.56,60.21 4.36,60.21 4.16,60.16 3.96,60.11 3.78,60.02 3.60,59.92 3.45,59.79 3.30,59.65 3.18,59.49 3.07,59.32 3.00,59.13 2.93,58.94 2.90,58.74 2.88,58.54 2.89,58.08 2.90,57.62 2.92,56.92 2.94,56.22 2.96,55.68 2.98,55.14 2.99,54.53 3.01,53.91 3.03,53.32 3.06,52.72 3.07,51.81 3.08,50.89 3.10,49.96 3.12,49.03 3.14,48.03 3.15,47.03 3.15,46.44 3.15,45.84 3.18,44.83 3.20,43.83 3.21,42.72 3.22,41.61 3.22,41.05 3.22,40.49 3.20,39.71 3.18,38.92 3.04,38.12 2.91,37.33 2.92,36.64 2.93,35.95 2.94,35.27 2.95,34.58 2.96,33.90 2.97,33.21 2.97,32.53 2.98,31.84 2.97,31.15 2.97,30.46 2.93,29.75 2.90,29.05 2.76,28.13 2.62,27.22 2.64,26.50 2.67,25.77 2.68,24.99 2.69,24.21 2.73,23.59 2.76,22.97 2.69,21.86 2.62,20.75 2.56,19.94 2.50,19.13 2.26,18.06 2.02,17.00 1.83,16.00 1.64,15.01 1.54,14.07 1.44,13.13 1.25,12.26 1.07,11.39 1.01,10.74 0.95,10.10 0.74,9.30 0.52,8.51 0.30,7.62 0.09,6.73 -0.08,5.85 -0.25,4.97 -0.31,4.30 -0.36,3.64 -0.54,2.81 -0.73,1.97 -0.88,1.06 -1.03,0.14 -1.03,0.02 -1.03,-0.10 -1.00,-0.22 -0.98,-0.34 -0.92,-0.46 -0.86,-0.57 -0.78,-0.66 -0.70,-0.76 -0.60,-0.83 -0.50,-0.91 -0.38,-0.95 -0.27,-1.00 -0.14,-1.02 -0.02,-1.04 0.10,-1.02 0.22,-1.01 0.34,-0.97 0.46,-0.93 0.56,-0.86 0.67,-0.79 0.75,-0.70 0.84,-0.60 0.90,-0.49 0.96,-0.38 0.99,-0.26 1.03,-0.14 1.03,-0.14 L 1.03,-0.14 Z"/></g><g transform="translate(66.14154052734375 76.35266230656549) rotate(0 4.3361358642578125 27.386123657226562)" stroke="none"><path fill="#d9480f" d="M 0.88,0 Q 0.88,0 0.92,0.65 0.96,1.31 1.10,2.03 1.24,2.75 1.43,3.44 1.63,4.13 1.72,5.05 1.82,5.96 1.94,6.95 2.06,7.93 2.22,9.01 2.38,10.10 2.57,11.22 2.76,12.34 2.83,13.51 2.91,14.69 3.06,15.81 3.21,16.92 3.41,17.91 3.61,18.90 3.69,20.16 3.77,21.43 3.80,22.61 3.83,23.80 3.97,24.92 4.11,26.04 4.17,27.22 4.23,28.39 4.29,29.28 4.35,30.16 4.36,31.20 4.37,32.24 4.38,33.20 4.40,34.17 4.44,34.97 4.48,35.78 4.52,36.51 4.55,37.25 4.57,38.08 4.58,38.92 4.71,39.73 4.84,40.55 4.90,41.49 4.96,42.42 5.13,43.13 5.29,43.84 5.37,44.76 5.45,45.67 5.61,46.36 5.78,47.05 5.87,47.82 5.97,48.59 6.03,49.17 6.09,49.76 6.35,50.53 6.60,51.30 6.86,51.97 7.12,52.64 7.38,53.11 7.64,53.58 7.68,53.81 7.72,54.03 7.75,54.20 7.78,54.38 7.76,54.55 7.75,54.72 7.69,54.88 7.63,55.05 7.54,55.19 7.45,55.34 7.32,55.46 7.19,55.58 7.04,55.66 6.89,55.75 6.73,55.79 6.56,55.84 6.39,55.85 6.21,55.85 6.05,55.81 5.88,55.78 5.72,55.70 5.56,55.63 5.43,55.52 5.30,55.41 5.20,55.27 5.09,55.13 5.03,54.97 4.96,54.81 5.50,53.99 6.04,53.17 6.66,52.06 7.28,50.96 7.46,50.80 7.64,50.65 7.86,50.55 8.07,50.46 8.31,50.45 8.54,50.43 8.77,50.49 9.00,50.54 9.20,50.67 9.40,50.80 9.54,50.99 9.69,51.17 9.77,51.39 9.85,51.61 9.86,51.85 9.86,52.09 9.79,52.31 9.72,52.54 9.58,52.73 9.44,52.92 9.25,53.06 9.06,53.19 8.83,53.26 8.60,53.33 8.37,53.32 8.13,53.31 7.91,53.23 7.69,53.15 7.51,53.00 7.32,52.85 7.20,52.65 7.07,52.45 7.02,52.22 6.96,51.99 6.98,51.75 7.00,51.52 7.10,51.30 7.19,51.09 7.35,50.91 7.51,50.74 7.72,50.62 7.92,50.51 8.15,50.47 8.39,50.42 8.62,50.46 8.85,50.49 9.06,50.60 9.27,50.70 9.44,50.87 9.61,51.04 9.71,51.25 9.81,51.46 9.84,51.70 9.87,51.93 9.83,52.16 9.78,52.39 9.66,52.60 9.55,52.80 9.55,52.80 9.55,52.80 8.39,54.17 7.22,55.55 7.47,54.79 7.72,54.03 7.75,54.20 7.78,54.38 7.76,54.55 7.75,54.72 7.69,54.88 7.63,55.05 7.54,55.19 7.45,55.34 7.32,55.46 7.19,55.58 7.04,55.66 6.89,55.75 6.73,55.79 6.56,55.84 6.39,55.85 6.21,55.85 6.05,55.81 5.88,55.78 5.72,55.70 5.56,55.63 5.43,55.52 5.30,55.41 5.20,55.27 5.09,55.13 5.03,54.97 4.96,54.81 4.97,54.49 4.98,54.17 4.74,53.48 4.50,52.79 4.31,51.97 4.13,51.15 3.99,50.52 3.85,49.89 3.86,49.34 3.86,48.79 3.82,48.13 3.78,47.47 3.63,46.64 3.48,45.82 3.42,45.02 3.37,44.23 3.23,43.38 3.08,42.54 3.03,41.68 2.98,40.82 2.84,39.87 2.71,38.93 2.72,38.09 2.74,37.25 2.77,36.52 2.81,35.78 2.84,34.98 2.88,34.18 2.88,33.22 2.89,32.26 2.88,31.23 2.86,30.21 2.87,29.34 2.88,28.46 2.81,27.34 2.75,26.22 2.59,25.03 2.44,23.84 2.39,22.69 2.35,21.53 2.26,20.36 2.17,19.19 1.96,18.16 1.75,17.14 1.56,15.98 1.37,14.82 1.27,13.73 1.16,12.65 0.91,11.53 0.67,10.42 0.42,9.33 0.18,8.24 -0.02,7.20 -0.23,6.16 -0.29,5.40 -0.36,4.64 -0.53,3.86 -0.71,3.08 -0.84,2.19 -0.96,1.31 -0.92,0.65 -0.88,0 -0.87,-0.10 -0.86,-0.21 -0.82,-0.31 -0.78,-0.41 -0.72,-0.50 -0.66,-0.59 -0.58,-0.66 -0.50,-0.73 -0.41,-0.78 -0.31,-0.83 -0.21,-0.85 -0.10,-0.88 0.00,-0.88 0.10,-0.88 0.21,-0.85 0.31,-0.83 0.41,-0.78 0.50,-0.73 0.58,-0.66 0.66,-0.59 0.72,-0.50 0.78,-0.41 0.82,-0.31 0.86,-0.21 0.87,-0.10 0.88,0.00 0.88,0.00 L 0.88,0 Z"/></g><g transform="translate(159.7108154296875 71.78830073429987) rotate(0 -0.6846466064453125 31.722259521484375)" stroke="none"><path fill="#d9480f" d="M 1.21,0.30 Q 1.21,0.30 1.10,0.83 0.98,1.36 0.96,2.19 0.93,3.02 0.94,3.91 0.96,4.81 0.96,5.39 0.96,5.98 0.95,6.62 0.94,7.26 0.94,7.93 0.93,8.59 0.90,9.40 0.87,10.21 0.86,10.95 0.84,11.69 0.82,12.52 0.79,13.36 0.76,14.24 0.73,15.13 0.56,16.11 0.39,17.09 0.32,17.94 0.25,18.80 0.20,19.69 0.16,20.59 0.14,21.49 0.11,22.39 0.07,23.43 0.02,24.47 0.00,25.44 -0.00,26.41 -0.04,27.61 -0.07,28.80 -0.09,29.84 -0.10,30.87 -0.12,31.97 -0.14,33.06 -0.16,34.19 -0.17,35.31 -0.17,36.31 -0.17,37.31 -0.15,38.26 -0.14,39.21 -0.29,40.32 -0.44,41.42 -0.48,42.38 -0.53,43.33 -0.56,44.38 -0.60,45.44 -0.62,46.55 -0.64,47.65 -0.64,48.65 -0.63,49.64 -0.64,50.72 -0.65,51.80 -0.64,52.79 -0.63,53.77 -0.60,54.58 -0.56,55.39 -0.52,56.13 -0.48,56.87 -0.44,57.58 -0.41,58.29 -0.38,58.98 -0.35,59.67 -0.31,60.23 -0.28,60.79 -0.11,61.40 0.04,62.00 -1.06,62.45 -2.17,62.90 -2.22,62.30 -2.27,61.69 -2.26,61.02 -2.25,60.34 -2.20,59.39 -2.14,58.45 -2.07,57.39 -1.99,56.33 -1.94,55.23 -1.88,54.12 -1.84,52.86 -1.80,51.61 -1.76,50.41 -1.73,49.22 -1.72,48.19 -1.70,47.16 -1.68,45.94 -1.67,44.71 -1.65,43.40 -1.64,42.10 -1.63,40.75 -1.62,39.41 -1.63,38.44 -1.65,37.48 -1.64,36.28 -1.63,35.08 -1.62,34.05 -1.62,33.02 -1.64,32.05 -1.65,31.09 -1.67,30.15 -1.69,29.22 -1.72,28.43 -1.76,27.64 -1.78,26.78 -1.79,25.92 -1.83,25.29 -1.88,24.66 -1.89,23.87 -1.91,23.07 -1.93,22.34 -1.95,21.61 -1.98,21.04 -2.01,20.47 -2.04,19.83 -2.06,19.19 -2.08,18.66 -2.11,18.13 -2.15,17.17 -2.20,16.21 -2.21,15.62 -2.22,15.02 -2.22,14.38 -2.23,13.73 -2.24,13.19 -2.25,12.66 -2.25,12.03 -2.26,11.41 -2.28,10.46 -2.30,9.50 -2.33,8.71 -2.36,7.92 -2.38,7.16 -2.41,6.40 -2.42,5.57 -2.44,4.74 -2.04,2.20 -1.65,-0.34 -1.47,-0.51 -1.30,-0.69 -1.07,-0.81 -0.85,-0.92 -0.60,-0.96 -0.36,-0.99 -0.11,-0.95 0.13,-0.90 0.35,-0.78 0.57,-0.66 0.73,-0.47 0.90,-0.29 1.00,-0.06 1.11,0.16 1.13,0.41 1.15,0.66 1.09,0.90 1.03,1.14 0.90,1.36 0.77,1.57 0.57,1.73 0.38,1.89 0.15,1.97 -0.08,2.06 -0.33,2.07 -0.58,2.08 -0.82,2.01 -1.06,1.94 -1.26,1.79 -1.47,1.65 -1.62,1.45 -1.76,1.25 -1.84,1.01 -1.91,0.77 -1.91,0.52 -1.91,0.27 -1.82,0.03 -1.74,-0.19 -1.58,-0.39 -1.43,-0.59 -1.22,-0.72 -1.01,-0.86 -0.76,-0.92 -0.52,-0.99 -0.27,-0.97 -0.02,-0.95 0.20,-0.85 0.43,-0.76 0.62,-0.59 0.80,-0.42 0.93,-0.21 1.05,0.00 1.10,0.24 1.15,0.49 1.12,0.74 1.09,0.99 0.98,1.21 0.87,1.44 0.87,1.44 0.87,1.44 0.74,3.09 0.61,4.74 0.60,5.57 0.58,6.40 0.56,7.16 0.54,7.92 0.51,8.71 0.48,9.50 0.45,10.46 0.43,11.41 0.43,12.03 0.43,12.66 0.41,13.19 0.40,13.73 0.40,14.38 0.40,15.02 0.39,15.62 0.38,16.21 0.33,17.17 0.28,18.13 0.26,18.66 0.23,19.19 0.21,19.83 0.19,20.47 0.16,21.04 0.12,21.61 0.10,22.34 0.08,23.07 0.07,23.87 0.05,24.66 0.01,25.29 -0.02,25.92 -0.04,26.78 -0.06,27.64 -0.09,28.43 -0.13,29.22 -0.15,30.15 -0.16,31.09 -0.18,32.05 -0.19,33.02 -0.19,34.05 -0.19,35.08 -0.18,36.28 -0.17,37.48 -0.18,38.44 -0.20,39.41 -0.19,40.75 -0.18,42.10 -0.16,43.40 -0.15,44.71 -0.13,45.94 -0.11,47.16 -0.10,48.19 -0.08,49.22 -0.05,50.41 -0.02,51.61 0.01,52.86 0.05,54.12 0.11,55.23 0.17,56.33 0.24,57.39 0.31,58.45 0.37,59.40 0.42,60.35 0.43,61.04 0.43,61.73 0.36,62.40 0.28,63.07 -0.47,63.56 -1.23,64.05 -1.75,63.39 -2.26,62.72 -2.35,61.76 -2.45,60.79 -2.41,60.23 -2.38,59.67 -2.35,58.98 -2.32,58.29 -2.29,57.58 -2.25,56.87 -2.21,56.13 -2.17,55.39 -2.13,54.58 -2.09,53.77 -2.08,52.78 -2.07,51.80 -2.08,50.72 -2.08,49.64 -2.07,48.64 -2.06,47.64 -2.06,46.52 -2.06,45.41 -2.05,44.32 -2.04,43.24 -1.97,42.24 -1.90,41.24 -1.79,40.23 -1.68,39.21 -1.66,38.26 -1.65,37.31 -1.65,36.31 -1.64,35.31 -1.66,34.19 -1.67,33.06 -1.69,31.97 -1.71,30.87 -1.73,29.84 -1.74,28.80 -1.78,27.60 -1.81,26.40 -1.82,25.43 -1.83,24.47 -1.87,23.42 -1.91,22.37 -1.91,21.45 -1.92,20.53 -1.91,19.60 -1.91,18.67 -1.87,17.72 -1.83,16.76 -1.74,15.94 -1.64,15.12 -1.67,14.24 -1.70,13.36 -1.73,12.52 -1.76,11.69 -1.77,10.95 -1.78,10.21 -1.81,9.40 -1.84,8.59 -1.85,7.93 -1.85,7.26 -1.86,6.61 -1.86,5.97 -1.84,4.91 -1.82,3.85 -1.75,2.86 -1.68,1.86 -1.60,1.30 -1.51,0.73 -1.36,0.21 -1.21,-0.30 -1.16,-0.44 -1.10,-0.58 -1.02,-0.70 -0.93,-0.83 -0.82,-0.93 -0.70,-1.03 -0.57,-1.10 -0.44,-1.17 -0.29,-1.20 -0.14,-1.24 0.00,-1.24 0.15,-1.24 0.30,-1.20 0.44,-1.17 0.58,-1.09 0.71,-1.02 0.82,-0.92 0.94,-0.82 1.02,-0.70 1.11,-0.57 1.16,-0.43 1.21,-0.29 1.23,-0.14 1.25,0.00 1.23,0.15 1.21,0.30 1.21,0.30 L 1.21,0.30 Z"/></g><g transform="translate(53.361358642578125 80.00413630558893) rotate(0 -14.605926513671875 3.1950454711914062)" stroke="none"><path fill="#5c940d" d="M 0.25,0.76 Q 0.25,0.76 -0.52,1.05 -1.30,1.34 -2.12,1.70 -2.94,2.06 -3.95,2.58 -4.95,3.09 -6.11,3.46 -7.27,3.83 -8.64,4.36 -10.00,4.89 -11.39,5.38 -12.78,5.87 -14.67,6.59 -16.57,7.32 -18.45,7.90 -20.33,8.47 -22.02,9.10 -23.71,9.73 -25.91,10.27 -28.12,10.81 -29.57,11.17 -31.02,11.53 -32.43,11.81 -33.85,12.10 -35.21,12.47 -36.57,12.85 -37.86,13.02 -39.15,13.19 -40.04,13.41 -40.93,13.63 -41.61,13.78 -42.28,13.92 -42.43,13.99 -42.57,14.05 -42.68,14.05 -42.78,14.05 -42.88,14.03 -42.99,14.00 -43.08,13.95 -43.18,13.91 -43.26,13.84 -43.34,13.77 -43.40,13.68 -43.46,13.59 -43.50,13.49 -43.53,13.40 -43.55,13.29 -43.56,13.19 -43.55,13.08 -43.54,12.98 -43.50,12.88 -43.46,12.78 -43.40,12.69 -43.35,12.60 -43.27,12.53 -43.19,12.46 -43.09,12.41 -43.00,12.36 -42.90,12.33 -42.80,12.31 -41.63,11.78 -40.46,11.25 -39.26,10.81 -38.06,10.37 -36.62,9.93 -35.18,9.49 -33.40,8.92 -31.62,8.35 -29.96,7.73 -28.29,7.11 -26.27,6.32 -24.24,5.53 -22.05,4.80 -19.86,4.07 -17.50,3.24 -15.13,2.41 -12.94,1.66 -10.75,0.92 -8.50,0.21 -6.25,-0.50 -4.12,-1.19 -1.99,-1.88 -0.18,-2.57 1.63,-3.25 3.45,-3.93 5.28,-4.62 6.99,-5.18 8.70,-5.74 9.95,-6.11 11.20,-6.48 11.80,-6.80 12.40,-7.13 12.88,-7.38 13.37,-7.64 13.47,-7.65 13.58,-7.67 13.69,-7.66 13.80,-7.66 13.90,-7.62 14.01,-7.59 14.10,-7.53 14.19,-7.47 14.27,-7.39 14.35,-7.31 14.40,-7.22 14.46,-7.13 14.49,-7.02 14.52,-6.92 14.52,-6.81 14.53,-6.70 14.51,-6.59 14.49,-6.48 14.44,-6.38 14.39,-6.28 14.32,-6.20 14.26,-6.11 14.17,-6.05 14.08,-5.98 13.98,-5.94 13.88,-5.89 13.25,-5.64 12.61,-5.38 12.05,-5.01 11.49,-4.64 10.72,-4.14 9.95,-3.63 8.88,-3.13 7.80,-2.64 6.73,-2.08 5.65,-1.52 4.27,-0.76 2.88,-0.00 1.49,0.70 0.10,1.42 -1.56,2.12 -3.23,2.82 -4.96,3.63 -6.70,4.44 -8.65,5.19 -10.60,5.94 -12.49,6.52 -14.38,7.10 -16.07,7.73 -17.77,8.36 -19.57,8.90 -21.37,9.43 -23.07,9.80 -24.77,10.16 -26.27,10.44 -27.78,10.73 -28.79,10.97 -29.81,11.22 -30.38,11.39 -30.96,11.57 -31.78,11.37 -32.60,11.17 -32.30,10.33 -31.99,9.48 -31.56,9.03 -31.13,8.59 -30.67,8.11 -30.22,7.64 -29.52,7.21 -28.82,6.78 -28.25,6.32 -27.68,5.85 -26.92,5.43 -26.16,5.00 -25.62,4.70 -25.08,4.39 -23.19,3.41 -21.31,2.43 -21.11,2.43 -20.90,2.43 -20.71,2.50 -20.52,2.57 -20.36,2.69 -20.20,2.82 -20.09,2.99 -19.98,3.16 -19.93,3.35 -19.88,3.55 -19.89,3.75 -19.90,3.95 -19.98,4.14 -20.06,4.33 -20.19,4.48 -20.33,4.63 -20.50,4.73 -20.68,4.84 -20.88,4.88 -21.07,4.92 -21.27,4.89 -21.48,4.87 -21.66,4.78 -21.84,4.69 -21.99,4.55 -22.13,4.41 -22.22,4.23 -22.32,4.05 -22.35,3.85 -22.38,3.65 -22.34,3.45 -22.30,3.25 -22.21,3.07 -22.11,2.89 -21.96,2.76 -21.81,2.62 -21.63,2.54 -21.44,2.46 -21.24,2.44 -21.04,2.42 -20.84,2.46 -20.64,2.51 -20.47,2.62 -20.30,2.72 -20.17,2.88 -20.04,3.04 -19.97,3.23 -19.90,3.41 -19.89,3.62 -19.88,3.82 -19.94,4.01 -19.99,4.21 -20.11,4.37 -20.23,4.54 -20.39,4.66 -20.55,4.78 -20.75,4.84 -20.94,4.90 -20.94,4.90 -20.94,4.90 -22.47,5.69 -24.00,6.48 -24.55,6.74 -25.10,7.00 -25.68,7.29 -26.26,7.58 -26.98,8.18 -27.71,8.78 -28.20,9.01 -28.69,9.24 -29.18,9.69 -29.67,10.14 -30.24,10.63 -30.81,11.13 -31.03,10.57 -31.25,10.01 -30.69,9.97 -30.12,9.93 -29.08,9.68 -28.03,9.42 -26.54,9.14 -25.05,8.85 -23.40,8.50 -21.75,8.15 -20.00,7.62 -18.24,7.09 -16.51,6.44 -14.78,5.79 -12.94,5.21 -11.10,4.64 -9.20,3.90 -7.31,3.16 -5.55,2.32 -3.80,1.48 -2.20,0.78 -0.60,0.08 0.74,-0.65 2.09,-1.39 3.46,-2.19 4.82,-3.00 5.90,-3.65 6.98,-4.29 7.88,-4.79 8.78,-5.30 9.58,-5.89 10.37,-6.48 11.02,-6.85 11.67,-7.23 12.52,-7.43 13.37,-7.64 13.47,-7.65 13.58,-7.67 13.69,-7.66 13.80,-7.66 13.90,-7.62 14.01,-7.59 14.10,-7.53 14.19,-7.47 14.27,-7.39 14.35,-7.31 14.40,-7.22 14.46,-7.13 14.49,-7.02 14.52,-6.92 14.52,-6.81 14.53,-6.70 14.51,-6.59 14.49,-6.48 14.44,-6.38 14.39,-6.28 14.32,-6.20 14.26,-6.11 14.17,-6.05 14.08,-5.98 13.98,-5.94 13.88,-5.89 13.45,-5.80 13.02,-5.71 12.30,-5.46 11.58,-5.21 10.34,-4.85 9.11,-4.48 7.43,-3.93 5.75,-3.38 3.92,-2.69 2.10,-2.01 0.26,-1.31 -1.57,-0.61 -3.71,0.08 -5.84,0.78 -8.08,1.49 -10.31,2.20 -12.49,2.95 -14.68,3.70 -17.05,4.55 -19.42,5.39 -21.57,6.12 -23.72,6.86 -25.74,7.67 -27.77,8.48 -29.45,9.14 -31.14,9.80 -32.91,10.41 -34.69,11.01 -36.06,11.49 -37.43,11.96 -38.51,12.42 -39.59,12.89 -40.51,13.38 -41.43,13.87 -42.00,13.96 -42.57,14.05 -42.68,14.05 -42.78,14.05 -42.88,14.03 -42.99,14.00 -43.08,13.95 -43.18,13.91 -43.26,13.84 -43.34,13.77 -43.40,13.68 -43.46,13.59 -43.50,13.49 -43.53,13.40 -43.55,13.29 -43.56,13.19 -43.55,13.08 -43.54,12.98 -43.50,12.88 -43.46,12.78 -43.40,12.69 -43.35,12.60 -43.27,12.53 -43.19,12.46 -43.09,12.41 -43.00,12.36 -42.90,12.33 -42.80,12.31 -42.65,12.30 -42.50,12.29 -41.86,12.26 -41.23,12.24 -40.28,12.06 -39.32,11.88 -38.12,11.72 -36.92,11.57 -35.52,11.18 -34.11,10.79 -32.72,10.51 -31.34,10.23 -29.89,9.87 -28.44,9.51 -26.31,8.98 -24.18,8.46 -22.46,7.81 -20.73,7.16 -18.90,6.59 -17.07,6.01 -15.17,5.27 -13.27,4.52 -11.91,4.02 -10.55,3.52 -9.15,2.95 -7.76,2.38 -6.74,2.02 -5.72,1.66 -4.68,1.07 -3.64,0.47 -2.74,0.09 -1.84,-0.29 -1.05,-0.53 -0.25,-0.76 -0.16,-0.78 -0.06,-0.80 0.03,-0.80 0.13,-0.80 0.22,-0.77 0.31,-0.74 0.40,-0.69 0.48,-0.64 0.55,-0.58 0.62,-0.51 0.68,-0.42 0.73,-0.34 0.76,-0.25 0.79,-0.16 0.80,-0.06 0.81,0.03 0.79,0.12 0.77,0.22 0.74,0.31 0.70,0.40 0.64,0.48 0.58,0.56 0.50,0.62 0.43,0.68 0.34,0.72 0.25,0.76 0.25,0.76 L 0.25,0.76 Z"/></g><g transform="translate(73.90093994140625 131.58133051945612) rotate(0 40.850982666015625 -29.21186065673828)" stroke="none"><path fill="#5c940d" d="M -0.16,-0.80 Q -0.16,-0.80 0.48,-0.97 1.12,-1.14 1.79,-1.55 2.47,-1.95 3.48,-2.50 4.49,-3.05 5.58,-3.67 6.67,-4.29 7.91,-5.07 9.16,-5.84 10.60,-6.82 12.05,-7.80 13.60,-8.74 15.16,-9.69 16.58,-10.73 18.00,-11.77 19.69,-12.76 21.38,-13.75 23.28,-14.82 25.17,-15.89 26.86,-17.11 28.55,-18.33 30.22,-19.39 31.89,-20.45 33.64,-21.56 35.39,-22.66 37.05,-23.78 38.70,-24.90 40.20,-25.90 41.69,-26.90 43.28,-27.74 44.86,-28.58 46.29,-29.44 47.72,-30.31 48.97,-31.19 50.23,-32.07 51.41,-32.97 52.60,-33.87 53.81,-34.54 55.01,-35.21 56.01,-35.87 57.01,-36.53 57.66,-37.09 58.31,-37.64 58.97,-38.27 59.62,-38.89 60.14,-39.44 60.66,-39.99 61.10,-40.59 61.54,-41.19 62.19,-41.78 62.84,-42.38 63.38,-42.80 63.92,-43.21 64.31,-43.70 64.70,-44.19 65.29,-44.55 65.88,-44.92 66.52,-45.57 67.16,-46.23 67.81,-46.54 68.46,-46.86 69.14,-47.49 69.83,-48.13 70.49,-48.77 71.16,-49.41 71.75,-49.84 72.34,-50.27 72.86,-50.94 73.38,-51.60 73.80,-52.18 74.21,-52.75 74.61,-53.10 75.01,-53.46 75.32,-53.95 75.62,-54.44 76.00,-54.97 76.38,-55.50 76.81,-56.32 77.24,-57.15 77.62,-57.55 78.01,-57.96 78.62,-58.63 79.23,-59.30 79.65,-59.78 80.08,-60.26 80.23,-60.39 80.38,-60.53 80.55,-60.64 80.73,-60.74 80.93,-60.79 81.12,-60.85 81.32,-60.85 81.53,-60.86 81.72,-60.82 81.92,-60.78 82.11,-60.69 82.29,-60.60 82.44,-60.47 82.60,-60.34 82.72,-60.18 82.84,-60.02 82.92,-59.83 83.00,-59.64 83.03,-59.44 83.06,-59.24 83.04,-59.04 83.03,-58.84 82.96,-58.64 82.90,-58.45 82.79,-58.28 82.68,-58.11 81.34,-59.22 80.01,-60.34 80.15,-60.48 80.30,-60.62 80.48,-60.72 80.65,-60.82 80.85,-60.87 81.04,-60.93 81.24,-60.93 81.44,-60.94 81.64,-60.90 81.84,-60.86 82.02,-60.77 82.21,-60.68 82.36,-60.55 82.52,-60.42 82.64,-60.26 82.76,-60.10 82.84,-59.91 82.91,-59.73 82.95,-59.53 82.98,-59.33 82.96,-59.12 82.94,-58.92 82.88,-58.73 82.81,-58.54 82.70,-58.37 82.59,-58.20 82.30,-57.60 82.01,-57.00 81.58,-56.53 81.16,-56.06 80.78,-55.58 80.39,-55.10 79.89,-54.56 79.40,-54.03 78.84,-53.59 78.28,-53.15 77.76,-52.62 77.24,-52.09 76.50,-51.50 75.76,-50.91 75.08,-50.34 74.41,-49.77 73.39,-49.01 72.38,-48.25 71.56,-47.58 70.75,-46.91 69.59,-45.97 68.42,-45.02 67.79,-44.55 67.16,-44.09 66.38,-43.54 65.60,-42.99 64.89,-42.39 64.19,-41.79 63.65,-41.25 63.10,-40.71 62.30,-40.08 61.49,-39.46 60.76,-38.91 60.03,-38.37 59.32,-37.87 58.62,-37.37 57.97,-36.80 57.31,-36.23 56.46,-35.60 55.60,-34.96 54.85,-34.41 54.10,-33.85 53.25,-33.26 52.39,-32.66 51.64,-32.11 50.89,-31.57 50.01,-31.07 49.13,-30.57 48.26,-30.00 47.39,-29.44 46.46,-28.92 45.53,-28.40 44.60,-27.91 43.68,-27.43 42.61,-26.96 41.54,-26.50 40.77,-25.94 39.99,-25.38 38.93,-24.85 37.87,-24.32 37.04,-23.93 36.20,-23.54 35.37,-23.03 34.55,-22.52 33.48,-22.02 32.41,-21.52 31.64,-20.95 30.86,-20.38 29.95,-19.85 29.05,-19.31 28.30,-18.81 27.56,-18.31 26.89,-17.73 26.22,-17.15 25.54,-16.51 24.86,-15.88 24.18,-15.21 23.49,-14.55 22.81,-13.87 22.13,-13.19 21.42,-12.60 20.71,-12.01 19.98,-11.57 19.24,-11.14 18.63,-10.63 18.02,-10.12 17.36,-9.52 16.69,-8.91 15.68,-8.25 14.66,-7.58 14.11,-7.23 13.56,-6.89 13.05,-6.33 12.54,-5.77 12.10,-5.40 11.66,-5.03 10.70,-4.20 9.73,-3.37 9.20,-3.01 8.67,-2.66 7.78,-1.92 6.89,-1.19 6.46,-0.63 6.03,-0.07 5.46,0.36 4.89,0.81 4.33,1.18 3.77,1.55 3.60,1.79 3.43,2.04 3.25,2.09 3.08,2.13 2.90,2.14 2.72,2.14 2.54,2.10 2.37,2.06 2.21,1.98 2.05,1.89 1.91,1.78 1.78,1.66 1.67,1.51 1.57,1.37 1.50,1.20 1.44,1.03 1.41,0.85 1.39,0.68 1.41,0.50 1.43,0.32 1.49,0.15 1.55,-0.01 1.65,-0.16 1.75,-0.31 1.88,-0.43 2.02,-0.55 2.17,-0.64 2.33,-0.72 3.17,-1.61 4.00,-2.51 4.21,-2.63 4.41,-2.76 4.64,-2.82 4.88,-2.87 5.12,-2.85 5.36,-2.83 5.58,-2.74 5.80,-2.64 5.97,-2.48 6.15,-2.32 6.27,-2.11 6.39,-1.90 6.43,-1.66 6.47,-1.42 6.44,-1.19 6.41,-0.95 6.30,-0.73 6.19,-0.52 6.02,-0.35 5.85,-0.18 5.63,-0.08 5.42,0.02 5.18,0.05 4.94,0.08 4.70,0.03 4.47,-0.00 4.26,-0.12 4.05,-0.24 3.89,-0.42 3.73,-0.60 3.64,-0.82 3.54,-1.04 3.53,-1.28 3.51,-1.52 3.57,-1.76 3.63,-1.99 3.76,-2.19 3.89,-2.39 4.08,-2.54 4.27,-2.69 4.49,-2.77 4.72,-2.85 4.96,-2.86 5.20,-2.86 5.43,-2.79 5.66,-2.72 5.85,-2.58 6.05,-2.44 6.19,-2.24 6.32,-2.04 6.39,-1.81 6.46,-1.58 6.45,-1.34 6.45,-1.10 6.36,-0.88 6.28,-0.65 6.12,-0.47 5.97,-0.28 5.97,-0.28 5.97,-0.28 4.70,0.88 3.43,2.04 3.25,2.09 3.08,2.13 2.90,2.14 2.72,2.14 2.54,2.10 2.37,2.06 2.21,1.98 2.05,1.89 1.91,1.78 1.78,1.66 1.67,1.51 1.57,1.37 1.50,1.20 1.44,1.03 1.41,0.85 1.39,0.68 1.41,0.50 1.43,0.32 1.49,0.15 1.55,-0.01 1.65,-0.16 1.75,-0.31 1.88,-0.43 2.02,-0.55 2.17,-0.64 2.33,-0.72 2.47,-0.83 2.61,-0.94 3.23,-1.41 3.86,-1.88 4.35,-2.24 4.84,-2.61 5.65,-3.14 6.46,-3.68 6.94,-4.16 7.42,-4.64 7.91,-4.91 8.40,-5.18 8.95,-5.56 9.49,-5.94 10.34,-6.51 11.19,-7.08 11.92,-7.81 12.66,-8.54 13.17,-8.75 13.69,-8.97 14.57,-9.62 15.45,-10.27 16.15,-10.92 16.86,-11.57 17.62,-12.16 18.38,-12.75 19.01,-13.05 19.65,-13.35 20.31,-13.85 20.97,-14.36 21.67,-15.04 22.36,-15.72 23.06,-16.39 23.76,-17.07 24.47,-17.73 25.19,-18.38 25.96,-19.00 26.73,-19.62 27.52,-20.09 28.31,-20.56 29.16,-21.06 30.01,-21.56 30.89,-22.19 31.78,-22.83 32.77,-23.31 33.76,-23.80 34.68,-24.38 35.60,-24.95 36.42,-25.26 37.23,-25.58 38.19,-26.07 39.15,-26.57 40.05,-27.19 40.95,-27.82 41.96,-28.29 42.98,-28.76 43.87,-29.24 44.76,-29.72 45.63,-30.24 46.50,-30.75 47.40,-31.39 48.29,-32.02 49.10,-32.49 49.91,-32.96 50.66,-33.48 51.41,-33.99 52.24,-34.63 53.06,-35.28 53.79,-35.80 54.52,-36.32 55.31,-36.99 56.09,-37.65 56.82,-38.28 57.55,-38.91 58.24,-39.38 58.94,-39.86 59.65,-40.36 60.35,-40.87 61.08,-41.48 61.81,-42.10 62.41,-42.62 63.01,-43.15 63.76,-43.82 64.51,-44.49 65.30,-45.08 66.09,-45.67 66.67,-46.02 67.26,-46.37 68.34,-47.36 69.43,-48.35 70.20,-49.14 70.97,-49.93 71.84,-50.75 72.70,-51.58 73.36,-52.26 74.02,-52.94 74.56,-53.45 75.10,-53.95 76.09,-55.01 77.07,-56.07 77.45,-56.53 77.82,-56.99 78.26,-57.63 78.69,-58.27 79.07,-58.70 79.45,-59.14 79.73,-59.74 80.01,-60.34 80.15,-60.48 80.30,-60.62 80.48,-60.72 80.65,-60.82 80.85,-60.87 81.04,-60.93 81.24,-60.93 81.44,-60.94 81.64,-60.90 81.84,-60.86 82.02,-60.77 82.20,-60.68 82.36,-60.55 82.52,-60.42 82.64,-60.26 82.76,-60.10 82.84,-59.91 82.91,-59.73 82.95,-59.53 82.98,-59.33 82.96,-59.12 82.94,-58.92 82.88,-58.73 82.81,-58.54 82.70,-58.37 82.59,-58.20 81.34,-59.23 80.08,-60.26 80.23,-60.39 80.38,-60.53 80.55,-60.63 80.73,-60.74 80.92,-60.79 81.12,-60.85 81.32,-60.85 81.53,-60.86 81.72,-60.82 81.92,-60.78 82.11,-60.69 82.29,-60.60 82.44,-60.47 82.60,-60.34 82.72,-60.18 82.84,-60.02 82.92,-59.83 83.00,-59.64 83.03,-59.44 83.06,-59.24 83.04,-59.04 83.03,-58.84 82.96,-58.64 82.90,-58.45 82.79,-58.28 82.68,-58.11 82.33,-57.88 81.98,-57.64 81.45,-57.09 80.92,-56.55 80.15,-55.87 79.37,-55.20 79.21,-54.53 79.04,-53.87 78.71,-53.38 78.39,-52.90 77.98,-52.47 77.58,-52.05 77.10,-51.58 76.62,-51.11 76.30,-50.65 75.99,-50.19 75.46,-49.67 74.93,-49.14 74.45,-48.61 73.97,-48.08 73.16,-47.44 72.34,-46.80 71.50,-46.17 70.65,-45.54 70.09,-45.06 69.53,-44.59 68.73,-44.22 67.93,-43.85 67.08,-43.29 66.23,-42.74 65.65,-42.14 65.08,-41.54 64.58,-41.25 64.08,-40.95 63.51,-40.50 62.95,-40.05 62.39,-39.41 61.83,-38.77 61.24,-38.26 60.65,-37.75 59.93,-37.13 59.21,-36.50 58.47,-35.96 57.73,-35.43 56.69,-34.75 55.65,-34.07 54.52,-33.44 53.39,-32.82 52.19,-31.91 50.98,-31.00 49.69,-30.09 48.40,-29.18 46.94,-28.29 45.48,-27.41 43.95,-26.61 42.43,-25.81 40.94,-24.80 39.44,-23.80 37.77,-22.67 36.10,-21.54 34.35,-20.43 32.60,-19.33 30.97,-18.29 29.34,-17.24 27.59,-15.98 25.84,-14.71 23.96,-13.64 22.08,-12.57 20.45,-11.61 18.82,-10.65 17.36,-9.57 15.90,-8.49 14.39,-7.54 12.87,-6.60 11.42,-5.58 9.97,-4.57 8.72,-3.75 7.47,-2.93 6.40,-2.27 5.34,-1.60 4.35,-0.98 3.36,-0.36 2.43,0.12 1.50,0.62 0.83,0.71 0.16,0.80 0.06,0.81 -0.03,0.81 -0.13,0.80 -0.23,0.78 -0.32,0.74 -0.41,0.70 -0.49,0.64 -0.57,0.58 -0.63,0.51 -0.69,0.43 -0.73,0.34 -0.77,0.25 -0.79,0.15 -0.81,0.06 -0.81,-0.03 -0.80,-0.13 -0.78,-0.22 -0.75,-0.32 -0.70,-0.40 -0.65,-0.49 -0.58,-0.56 -0.51,-0.63 -0.43,-0.68 -0.34,-0.74 -0.25,-0.77 -0.16,-0.80 -0.16,-0.80 L -0.16,-0.80 Z"/></g><g transform="translate(164.27517700195312 133.40707514836237) rotate(0 23.506423950195312 -15.062362670898438)" stroke="none"><path fill="#5c940d" d="M -0.39,-0.78 Q -0.39,-0.78 0.10,-1.08 0.61,-1.39 1.13,-1.84 1.64,-2.30 2.32,-2.81 2.99,-3.31 4.02,-3.78 5.04,-4.25 5.81,-4.69 6.58,-5.14 7.73,-5.70 8.89,-6.27 9.91,-6.76 10.93,-7.25 12.04,-7.72 13.15,-8.20 14.28,-8.65 15.41,-9.11 16.37,-9.67 17.33,-10.23 18.16,-10.65 19.00,-11.08 19.70,-11.51 20.40,-11.95 21.13,-12.31 21.86,-12.67 22.33,-13.05 22.80,-13.44 23.31,-13.79 23.82,-14.14 24.22,-14.51 24.61,-14.87 25.11,-15.23 25.62,-15.59 26.33,-16.14 27.05,-16.70 27.62,-17.25 28.19,-17.79 28.64,-18.22 29.10,-18.65 29.60,-19.06 30.11,-19.47 30.74,-19.89 31.36,-20.31 31.87,-20.63 32.37,-20.95 32.90,-21.24 33.44,-21.54 34.07,-21.96 34.70,-22.38 35.19,-22.66 35.69,-22.95 36.07,-23.32 36.46,-23.70 37.17,-24.25 37.88,-24.80 38.27,-25.17 38.67,-25.54 39.16,-25.86 39.66,-26.18 40.33,-26.60 41.01,-27.01 41.70,-27.32 42.38,-27.62 43.29,-28.00 44.20,-28.37 44.86,-28.54 45.52,-28.72 46.08,-29.05 46.65,-29.39 47.45,-29.66 48.24,-29.94 48.90,-30.53 49.55,-31.11 49.47,-30.56 49.38,-30.00 49.42,-30.83 49.45,-31.65 49.62,-31.79 49.78,-31.93 49.97,-32.02 50.16,-32.11 50.37,-32.16 50.58,-32.20 50.79,-32.19 51.00,-32.19 51.20,-32.13 51.41,-32.07 51.59,-31.97 51.78,-31.86 51.93,-31.72 52.08,-31.57 52.20,-31.39 52.31,-31.22 52.38,-31.02 52.45,-30.82 52.47,-30.60 52.49,-30.39 52.46,-30.18 52.43,-29.97 52.35,-29.78 52.26,-29.58 52.14,-29.41 52.01,-29.24 51.29,-28.78 50.57,-28.31 49.95,-28.11 49.34,-27.91 48.80,-27.65 48.27,-27.39 47.69,-26.98 47.11,-26.56 46.00,-26.08 44.89,-25.59 43.93,-25.18 42.96,-24.77 41.71,-24.35 40.45,-23.92 39.32,-23.39 38.18,-22.87 37.19,-22.27 36.19,-21.68 35.05,-21.15 33.91,-20.61 32.91,-20.14 31.92,-19.67 30.82,-19.20 29.72,-18.74 28.78,-18.17 27.83,-17.61 26.87,-17.09 25.91,-16.58 25.11,-16.18 24.30,-15.79 23.65,-15.27 23.00,-14.76 22.09,-14.34 21.19,-13.92 20.49,-13.50 19.78,-13.08 18.93,-12.64 18.07,-12.20 17.30,-11.85 16.53,-11.49 15.86,-11.10 15.20,-10.71 14.53,-10.28 13.86,-9.84 13.13,-9.48 12.39,-9.12 11.58,-8.74 10.77,-8.36 10.06,-7.94 9.35,-7.53 8.60,-7.18 7.85,-6.82 7.20,-6.44 6.56,-6.06 5.83,-5.73 5.09,-5.39 4.46,-5.02 3.83,-4.66 3.39,-4.18 2.95,-3.70 2.22,-3.24 1.49,-2.77 0.84,-2.36 0.20,-1.95 -0.26,-1.71 -0.73,-1.46 -1.13,-0.98 -1.53,-0.50 -2.12,-0.17 -2.70,0.16 -2.98,0.36 -3.25,0.56 -3.41,0.60 -3.57,0.63 -3.74,0.62 -3.90,0.62 -4.06,0.57 -4.22,0.53 -4.36,0.45 -4.51,0.37 -4.63,0.25 -4.74,0.14 -4.83,0.00 -4.92,-0.12 -4.98,-0.28 -5.03,-0.44 -5.04,-0.60 -5.06,-0.76 -5.03,-0.93 -5.01,-1.09 -4.94,-1.24 -4.88,-1.39 -4.78,-1.52 -4.69,-1.66 -4.56,-1.76 -4.43,-1.87 -4.28,-1.94 -4.14,-2.01 -2.82,-3.07 -1.51,-4.13 -0.44,-4.87 0.61,-5.60 1.72,-6.41 2.84,-7.22 4.00,-7.97 5.17,-8.72 6.74,-9.56 8.31,-10.40 9.88,-11.27 11.45,-12.13 13.19,-13.03 14.92,-13.92 16.59,-14.69 18.25,-15.47 20.14,-16.32 22.03,-17.17 23.87,-18.05 25.72,-18.93 27.71,-19.70 29.70,-20.48 31.71,-21.33 33.72,-22.18 36.03,-23.06 38.35,-23.95 39.47,-24.33 40.59,-24.71 41.82,-25.26 43.05,-25.80 44.11,-26.29 45.16,-26.79 47.13,-27.78 49.10,-28.78 49.22,-28.82 49.33,-28.87 49.45,-28.87 49.57,-28.88 49.68,-28.84 49.80,-28.81 49.90,-28.74 50.00,-28.67 50.07,-28.57 50.14,-28.48 50.18,-28.36 50.21,-28.25 50.21,-28.13 50.21,-28.01 50.17,-27.89 50.13,-27.78 50.06,-27.69 49.98,-27.59 49.88,-27.52 49.78,-27.46 49.66,-27.43 49.55,-27.40 49.43,-27.41 49.31,-27.41 49.20,-27.46 49.09,-27.51 49.00,-27.59 48.90,-27.66 48.84,-27.77 48.78,-27.87 48.76,-27.99 48.74,-28.11 48.75,-28.23 48.76,-28.35 48.82,-28.46 48.87,-28.56 48.95,-28.65 49.04,-28.74 49.14,-28.79 49.25,-28.85 49.37,-28.86 49.49,-28.88 49.61,-28.86 49.73,-28.84 49.83,-28.78 49.94,-28.72 50.02,-28.63 50.10,-28.55 50.15,-28.44 50.20,-28.33 50.21,-28.21 50.22,-28.09 50.19,-27.97 50.16,-27.85 50.10,-27.75 50.04,-27.65 49.94,-27.57 49.85,-27.50 49.85,-27.50 49.85,-27.50 47.79,-26.54 45.72,-25.59 44.66,-25.09 43.59,-24.59 42.30,-24.02 41.02,-23.46 39.92,-23.08 38.83,-22.71 36.54,-21.82 34.25,-20.94 32.22,-20.08 30.20,-19.22 28.26,-18.45 26.31,-17.69 24.46,-16.79 22.61,-15.90 20.73,-15.04 18.86,-14.18 17.23,-13.40 15.60,-12.62 13.90,-11.71 12.20,-10.80 10.64,-9.90 9.09,-9.00 7.61,-8.15 6.13,-7.30 5.06,-6.53 3.99,-5.76 2.93,-4.86 1.87,-3.97 0.92,-3.15 -0.02,-2.34 -1.24,-1.35 -2.46,-0.37 -2.85,0.09 -3.25,0.56 -3.41,0.60 -3.57,0.63 -3.74,0.62 -3.90,0.62 -4.06,0.57 -4.22,0.53 -4.36,0.45 -4.51,0.37 -4.63,0.25 -4.74,0.14 -4.83,0.00 -4.92,-0.12 -4.98,-0.28 -5.03,-0.44 -5.04,-0.60 -5.06,-0.76 -5.03,-0.93 -5.01,-1.09 -4.94,-1.24 -4.88,-1.39 -4.78,-1.52 -4.69,-1.66 -4.56,-1.76 -4.43,-1.87 -4.28,-1.94 -4.14,-2.01 -3.49,-2.41 -2.85,-2.82 -1.92,-3.33 -0.98,-3.84 -0.31,-4.27 0.36,-4.70 0.89,-4.97 1.42,-5.25 2.08,-5.89 2.75,-6.53 3.49,-6.94 4.24,-7.35 4.88,-7.62 5.53,-7.88 6.27,-8.29 7.02,-8.70 7.68,-8.98 8.35,-9.25 9.12,-9.70 9.90,-10.15 10.72,-10.56 11.55,-10.97 12.19,-11.24 12.84,-11.50 13.56,-11.93 14.28,-12.37 15.05,-12.77 15.81,-13.17 16.54,-13.46 17.27,-13.74 18.10,-14.17 18.94,-14.61 19.73,-15.03 20.53,-15.44 21.29,-15.75 22.05,-16.05 22.87,-16.62 23.68,-17.19 24.46,-17.49 25.25,-17.80 26.17,-18.31 27.10,-18.83 28.11,-19.45 29.13,-20.07 30.19,-20.55 31.24,-21.03 32.22,-21.54 33.20,-22.04 34.24,-22.58 35.28,-23.12 36.31,-23.82 37.35,-24.51 38.53,-25.17 39.71,-25.82 40.81,-26.32 41.92,-26.82 42.80,-27.35 43.68,-27.89 44.45,-28.39 45.22,-28.89 45.96,-29.56 46.70,-30.23 47.44,-30.67 48.18,-31.10 48.81,-31.38 49.45,-31.65 49.62,-31.79 49.78,-31.93 49.97,-32.02 50.16,-32.11 50.37,-32.16 50.58,-32.20 50.79,-32.19 51.00,-32.19 51.20,-32.13 51.41,-32.07 51.59,-31.97 51.78,-31.86 51.93,-31.72 52.08,-31.57 52.20,-31.40 52.31,-31.22 52.38,-31.02 52.45,-30.82 52.47,-30.60 52.49,-30.39 52.46,-30.18 52.43,-29.97 52.35,-29.78 52.26,-29.58 52.14,-29.41 52.01,-29.24 52.15,-29.90 52.28,-30.55 52.03,-29.65 51.79,-28.74 51.25,-28.45 50.71,-28.16 49.84,-27.55 48.97,-26.94 48.24,-26.71 47.50,-26.48 47.01,-26.10 46.51,-25.72 45.56,-25.46 44.60,-25.20 44.14,-24.92 43.69,-24.64 42.93,-24.20 42.16,-23.77 41.55,-23.42 40.93,-23.08 40.25,-22.61 39.57,-22.14 39.10,-21.72 38.62,-21.29 38.08,-20.82 37.54,-20.35 36.67,-19.84 35.79,-19.34 35.04,-18.92 34.29,-18.50 33.75,-18.26 33.21,-18.01 32.25,-17.45 31.29,-16.89 30.64,-16.35 29.98,-15.82 29.54,-15.43 29.11,-15.05 28.37,-14.61 27.64,-14.18 26.82,-13.68 26.00,-13.18 25.45,-12.77 24.89,-12.35 24.40,-12.11 23.90,-11.86 23.25,-11.45 22.59,-11.05 21.90,-10.78 21.22,-10.52 20.43,-10.11 19.65,-9.69 18.85,-9.35 18.05,-9.01 17.01,-8.38 15.97,-7.76 14.87,-7.28 13.77,-6.80 12.71,-6.32 11.66,-5.83 10.67,-5.29 9.69,-4.76 8.60,-4.15 7.51,-3.53 6.69,-3.06 5.87,-2.58 5.03,-2.12 4.19,-1.66 3.55,-1.21 2.91,-0.76 2.20,-0.21 1.48,0.34 0.94,0.56 0.39,0.78 0.29,0.82 0.19,0.85 0.08,0.87 -0.01,0.88 -0.12,0.86 -0.22,0.85 -0.32,0.81 -0.42,0.77 -0.51,0.70 -0.59,0.64 -0.66,0.56 -0.73,0.48 -0.78,0.39 -0.82,0.29 -0.85,0.19 -0.87,0.08 -0.87,-0.01 -0.87,-0.12 -0.84,-0.22 -0.81,-0.32 -0.76,-0.42 -0.71,-0.51 -0.64,-0.59 -0.57,-0.67 -0.48,-0.72 -0.39,-0.78 -0.39,-0.78 L -0.39,-0.78 Z"/></g><g transform="translate(156.34868415248457 17.26182673527643) rotate(0 15.518814086914062 10.041572570800781)" stroke="none"><path fill="#000000" d="M 0.97,-0.78 Q 0.97,-0.78 1.48,-0.11 1.98,0.55 2.84,1.27 3.69,1.98 4.57,2.68 5.44,3.39 5.92,3.92 6.40,4.44 6.80,4.86 7.19,5.28 7.57,5.80 7.95,6.33 8.61,7.02 9.26,7.72 9.63,8.41 9.99,9.10 10.41,10.17 10.83,11.25 10.89,11.81 10.95,12.37 11.01,13.22 11.06,14.07 11.06,14.62 11.06,15.17 11.08,16.14 11.09,17.11 10.93,17.78 10.77,18.45 10.38,19.18 9.98,19.91 9.68,20.37 9.37,20.83 8.85,21.47 8.32,22.11 7.72,22.56 7.12,23.01 6.60,23.50 6.08,24.00 5.26,24.01 4.43,24.01 3.95,23.75 3.46,23.49 3.25,22.55 3.04,21.62 3.41,20.86 3.78,20.10 4.58,19.37 5.39,18.65 6.08,18.35 6.77,18.05 7.44,17.82 8.11,17.60 8.80,17.39 9.48,17.17 10.17,16.96 10.86,16.75 11.67,16.64 12.48,16.53 13.09,16.38 13.71,16.24 14.49,16.16 15.27,16.08 15.99,16.05 16.72,16.03 17.30,15.90 17.88,15.78 18.64,15.71 19.40,15.65 20.00,15.51 20.60,15.37 21.25,15.19 21.90,15.01 22.53,14.89 23.17,14.78 23.79,14.61 24.41,14.45 25.11,13.96 25.80,13.48 26.23,12.91 26.66,12.34 27.10,11.60 27.54,10.87 27.99,9.99 28.45,9.11 28.65,8.60 28.86,8.08 29.10,7.47 29.33,6.86 29.41,6.33 29.49,5.80 29.53,5.18 29.58,4.56 29.62,3.78 29.67,2.99 29.67,2.39 29.68,1.80 29.04,-0.18 28.41,-2.16 28.38,-2.38 28.35,-2.60 28.40,-2.81 28.44,-3.03 28.56,-3.22 28.67,-3.41 28.84,-3.56 29.00,-3.70 29.21,-3.79 29.41,-3.87 29.63,-3.89 29.85,-3.90 30.07,-3.84 30.28,-3.79 30.46,-3.66 30.65,-3.54 30.78,-3.37 30.92,-3.19 30.99,-2.98 31.06,-2.78 31.07,-2.56 31.07,-2.33 31.00,-2.12 30.93,-1.91 30.80,-1.74 30.67,-1.56 30.49,-1.43 30.31,-1.31 30.09,-1.25 29.88,-1.18 29.66,-1.19 29.44,-1.20 29.23,-1.28 29.03,-1.36 28.86,-1.50 28.69,-1.64 28.57,-1.83 28.46,-2.02 28.41,-2.24 28.36,-2.45 28.38,-2.67 28.40,-2.89 28.49,-3.09 28.58,-3.29 28.73,-3.46 28.88,-3.62 29.07,-3.72 29.27,-3.83 29.49,-3.87 29.70,-3.91 29.92,-3.87 30.14,-3.84 30.34,-3.74 30.53,-3.64 30.69,-3.48 30.84,-3.32 30.94,-3.12 31.03,-2.92 31.03,-2.92 31.03,-2.92 31.56,-1.33 32.08,0.24 32.22,1.03 32.37,1.82 32.35,2.43 32.34,3.05 32.35,3.89 32.37,4.73 32.33,5.47 32.29,6.21 32.17,7.01 32.05,7.81 31.83,8.49 31.61,9.16 31.11,10.28 30.62,11.40 30.37,11.88 30.11,12.35 29.82,12.84 29.53,13.34 29.15,13.86 28.77,14.39 28.39,14.78 28.02,15.16 27.27,15.63 26.53,16.10 25.99,16.56 25.46,17.01 24.85,17.20 24.24,17.38 23.43,17.45 22.62,17.52 21.90,17.73 21.19,17.94 20.42,18.12 19.64,18.30 19.04,18.36 18.43,18.41 17.64,18.58 16.85,18.74 16.21,18.78 15.56,18.82 14.98,18.88 14.39,18.95 13.64,19.15 12.89,19.35 12.34,19.43 11.79,19.52 11.13,19.76 10.47,20.01 9.83,20.26 9.19,20.51 8.21,20.92 7.22,21.34 6.58,21.45 5.94,21.56 5.26,21.50 4.59,21.45 4.93,21.03 5.28,20.62 5.89,20.10 6.50,19.59 6.94,19.04 7.38,18.50 7.73,17.79 8.07,17.09 8.08,16.14 8.09,15.19 8.09,14.35 8.09,13.50 8.06,12.64 8.02,11.78 7.76,11.05 7.49,10.32 7.05,9.60 6.60,8.88 5.93,7.98 5.25,7.08 4.57,6.25 3.89,5.43 2.94,4.61 1.99,3.80 1.48,3.32 0.98,2.85 0.54,2.46 0.11,2.07 -0.43,1.42 -0.97,0.78 -1.05,0.65 -1.13,0.52 -1.18,0.38 -1.22,0.23 -1.23,0.08 -1.24,-0.06 -1.22,-0.21 -1.19,-0.35 -1.13,-0.49 -1.07,-0.63 -0.98,-0.75 -0.89,-0.87 -0.77,-0.96 -0.65,-1.06 -0.52,-1.12 -0.38,-1.18 -0.23,-1.21 -0.08,-1.24 0.06,-1.23 0.21,-1.23 0.35,-1.18 0.50,-1.14 0.63,-1.06 0.76,-0.99 0.86,-0.88 0.97,-0.78 0.97,-0.78 L 0.97,-0.78 Z"/></g></svg>